<?xml version="1.0" encoding="utf-8"?>
<!-- Generator: Adobe Illustrator 18.0.0, SVG Export Plug-In . SVG Version: 6.00 Build 0)  -->
<!DOCTYPE svg PUBLIC "-//W3C//DTD SVG 1.1//EN" "http://www.w3.org/Graphics/SVG/1.1/DTD/svg11.dtd">
<svg version="1.1" id="Layer_1" xmlns="http://www.w3.org/2000/svg" xmlns:xlink="http://www.w3.org/1999/xlink" x="0px" y="0px"
	 width="150px" height="39.5px" viewBox="0 0 150 39.5" enable-background="new 0 0 150 39.5" xml:space="preserve">
<g opacity="0.35">
	<path d="M145.1,0.7c1.4,0,2.5,1.1,2.5,2.5c0,1.4-1.1,2.5-2.5,2.5c-1.4,0-2.5-1.1-2.5-2.5C142.5,1.8,143.7,0.7,145.1,0.7 M145.1,0
		c-1.8,0-3.2,1.5-3.2,3.2c0,1.8,1.5,3.2,3.2,3.2c1.8,0,3.2-1.5,3.2-3.2C148.3,1.5,146.8,0,145.1,0"/>
	<path d="M144.7,4.7H144V1.2h0.8c0.3,0,0.5,0,0.6,0c0.1,0,0.2,0,0.3,0.1c0.2,0.1,0.4,0.2,0.5,0.4c0.1,0.2,0.2,0.4,0.2,0.6
		c0,0.3-0.1,0.5-0.2,0.7c-0.1,0.2-0.4,0.3-0.6,0.4l0.9,1.4h-0.8l-0.9-1.6V4.7z M144.7,2.9h0.2c0.3,0,0.5-0.1,0.6-0.1
		c0.1-0.1,0.2-0.2,0.2-0.4c0-0.2-0.1-0.3-0.2-0.4c-0.1-0.1-0.3-0.1-0.6-0.1h-0.3V2.9z"/>
	<rect x="23.4" y="0.2" fill="#9D9D9D" width="6.1" height="27"/>
	<path fill="#9D9D9D" d="M32.5,0.2h6.1v4.6h-6.1V0.2z M32.5,7h6.1v20.3h-6.1V7z"/>
	<path fill="#9D9D9D" d="M47.7,27.3h-6.1V7h5.8v2.1c1.3-1.9,3.2-2.8,5.5-2.8c2.2,0,4,0.7,5.4,2.1c0.8,0.8,1.3,1.6,1.6,2.5
		c0.3,0.8,0.4,2.1,0.4,3.7v12.7h-6.1V16.2c0-2.8-1.1-4.2-3.2-4.2c-2.3,0-3.4,1.3-3.4,4V27.3z"/>
	<polygon fill="#9D9D9D" points="69.4,27.3 63.3,27.3 63.3,0.2 69.4,0.2 69.4,14.3 75.1,7 82.3,7 74.6,15.9 82.1,27.3 75.2,27.3 
		69.4,17.5 	"/>
	<path d="M88.8,27.3H83v-27h6.1v8.4c1.5-1.5,3.4-2.3,5.8-2.3c2.9,0,5.3,1,7.2,3c1.9,2,2.8,4.6,2.8,7.7c0,3.2-1,5.8-2.9,7.9
		c-1.9,2.1-4.4,3.1-7.3,3.1c-1.2,0-2.2-0.2-3.1-0.6c-0.8-0.4-1.8-1.2-2.8-2.2V27.3z M93.9,11.9c-1.4,0-2.6,0.5-3.6,1.5
		c-1,1-1.4,2.2-1.4,3.7c0,1.5,0.5,2.7,1.4,3.7c0.9,1,2.1,1.5,3.5,1.5c1.4,0,2.6-0.5,3.6-1.5c1-1,1.5-2.2,1.5-3.7
		c0-1.4-0.5-2.7-1.4-3.7C96.4,12.5,95.3,11.9,93.9,11.9"/>
	<path fill="#9D9D9D" d="M5.8,27.3H0v-27h6.1v8.4c1.5-1.5,3.4-2.3,5.8-2.3c2.9,0,5.3,1,7.2,3c1.9,2,2.8,4.6,2.8,7.7
		c0,3.2-1,5.8-2.9,7.9c-1.9,2.1-4.4,3.1-7.3,3.1c-1.2,0-2.2-0.2-3.1-0.6c-0.8-0.4-1.8-1.2-2.8-2.2V27.3z M10.9,11.9
		c-1.4,0-2.6,0.5-3.6,1.5c-1,1-1.4,2.2-1.4,3.7c0,1.5,0.5,2.7,1.4,3.7c0.9,1,2.1,1.5,3.5,1.5c1.4,0,2.6-0.5,3.6-1.5
		c1-1,1.5-2.2,1.5-3.7c0-1.4-0.5-2.7-1.4-3.7C13.4,12.5,12.3,11.9,10.9,11.9"/>
	<path d="M117.1,27.9c-3.2,0-5.8-1-7.9-3c-2.1-2-3.1-4.6-3.1-7.7c0-3.2,1-5.8,3.1-7.8c2.1-2.1,4.7-3.1,7.8-3.1c3.1,0,5.7,1,7.8,3.1
		c2.1,2.1,3.1,4.6,3.1,7.7c0,3.1-1,5.7-3.1,7.7C122.8,26.9,120.2,27.9,117.1,27.9 M117.1,11.9c-1.4,0-2.5,0.5-3.5,1.5
		c-0.9,1-1.4,2.2-1.4,3.7c0,1.5,0.5,2.7,1.4,3.7c0.9,1,2.1,1.5,3.5,1.5c1.4,0,2.5-0.5,3.4-1.5c0.9-1,1.4-2.2,1.4-3.7
		c0-1.4-0.5-2.7-1.4-3.7C119.6,12.5,118.4,11.9,117.1,11.9"/>
	<polygon points="138.3,12.3 141.5,7 148.7,7 141.9,16.4 149.8,27.3 142.3,27.3 138.3,21 134.1,27.3 126.9,27.3 134.6,16.4 127.8,7 
		135,7 	"/>
	<g>
		<path d="M83.8,34.6H83v-0.6h0.8c0-0.1,0-0.3,0-0.4c0-0.1,0-0.3,0.1-0.4c0-0.1,0.1-0.3,0.2-0.4c0.1-0.1,0.2-0.3,0.3-0.4
			c0.1-0.1,0.3-0.2,0.6-0.3c0.2-0.1,0.5-0.1,0.8-0.1v0.6c-0.3,0-0.6,0-0.8,0.1c-0.2,0.1-0.3,0.2-0.4,0.3c-0.1,0.1-0.1,0.3-0.2,0.4
			c0,0.2,0,0.3,0,0.4v0h1.3v0.6h-1.3v4.6h-0.7V34.6z"/>
		<path d="M86.5,33.9h0.7v0.8h0c0.1-0.2,0.2-0.3,0.3-0.4c0.1-0.1,0.2-0.2,0.4-0.3c0.1-0.1,0.3-0.1,0.4-0.1c0.1,0,0.3,0,0.4-0.1v0.7
			c-0.2,0-0.5,0.1-0.6,0.2c-0.2,0.1-0.4,0.2-0.5,0.4c-0.1,0.1-0.2,0.3-0.3,0.5c-0.1,0.2-0.1,0.4-0.1,0.6v3.1h-0.7V33.9z"/>
		<path d="M89.1,36.6c0-0.4,0.1-0.8,0.2-1.1c0.2-0.3,0.4-0.6,0.6-0.9c0.3-0.2,0.5-0.4,0.9-0.6c0.3-0.1,0.7-0.2,1-0.2
			c0.4,0,0.8,0.1,1.1,0.2c0.3,0.2,0.6,0.4,0.9,0.6c0.2,0.3,0.4,0.5,0.6,0.9c0.1,0.3,0.2,0.7,0.2,1c0,0.4-0.1,0.7-0.2,1
			c-0.1,0.3-0.3,0.6-0.6,0.9c-0.2,0.3-0.5,0.5-0.9,0.6c-0.3,0.2-0.7,0.2-1.1,0.2c-0.4,0-0.7-0.1-1.1-0.2c-0.3-0.1-0.6-0.4-0.9-0.6
			c-0.2-0.2-0.4-0.5-0.6-0.9C89.2,37.3,89.1,37,89.1,36.6z M89.8,36.6c0,0.3,0.1,0.6,0.2,0.8c0.1,0.3,0.3,0.5,0.5,0.7
			c0.2,0.2,0.4,0.3,0.7,0.4c0.2,0.1,0.5,0.2,0.8,0.2c0.3,0,0.5,0,0.8-0.1c0.2-0.1,0.5-0.2,0.7-0.4c0.2-0.2,0.4-0.4,0.5-0.7
			c0.1-0.3,0.2-0.6,0.2-0.9c0-0.3-0.1-0.7-0.2-0.9c-0.1-0.3-0.3-0.5-0.5-0.7c-0.2-0.2-0.4-0.3-0.7-0.4c-0.2-0.1-0.5-0.1-0.7-0.1
			c-0.2,0-0.5,0-0.7,0.1c-0.2,0.1-0.5,0.2-0.7,0.4c-0.2,0.2-0.4,0.4-0.5,0.7C89.9,35.9,89.8,36.3,89.8,36.6z"/>
		<path d="M96.3,34.6c0.1-0.2,0.3-0.4,0.6-0.5c0.2-0.1,0.5-0.2,0.8-0.2c0.4,0,0.7,0.1,1,0.3c0.3,0.2,0.5,0.4,0.7,0.7
			c0.4-0.7,1-1,1.8-1c0.3,0,0.6,0.1,0.8,0.2c0.3,0.1,0.5,0.3,0.7,0.5c0.2,0.2,0.3,0.4,0.4,0.7c0.1,0.3,0.2,0.6,0.2,0.9v3.1h-0.7v-3
			c0-0.6-0.1-1-0.4-1.3c-0.3-0.3-0.6-0.4-1.1-0.4c-0.4,0-0.8,0.1-1.1,0.4c-0.3,0.3-0.4,0.7-0.4,1.3v3h-0.7v-3c0-0.6-0.1-1-0.4-1.3
			c-0.3-0.3-0.6-0.4-1.1-0.4c-0.4,0-0.8,0.1-1.1,0.4c-0.3,0.3-0.4,0.7-0.4,1.3v3h-0.7v-5.2h0.7V34.6z"/>
	</g>
	<g>
		<path d="M137.3,30.9c-3.4,0-5.6,1.8-5.6,4.4c0,2.5,2.1,4.1,5.1,4.1c1,0,1.9-0.1,2.9-0.4v-2c-0.7,0.8-1.6,1.1-2.5,1.1
			c-1.8,0-3.1-1.2-3.1-3c0-1.7,1.3-3,3.1-3c1,0,1.7,0.4,2.4,1v-2.1C138.9,31,138.1,30.9,137.3,30.9"/>
		<path d="M112.2,32.4c1.2,0,2.7,0.3,3.4,0.8v-2h-8.9v2c0.6-0.5,2-0.8,3.4-0.8v5.4c0,0.8-0.1,1-0.4,1.4h2.8
			c-0.3-0.4-0.4-0.6-0.4-1.4V32.4z"/>
		<path d="M121.2,34.3c-0.5,0.2-1.4,0.2-1.9,0.2h-0.7v-2.1h1c0.9,0,2.4,0.2,3,0.7v-1.9h-6.5c0.3,0.4,0.4,0.6,0.4,1.4v5.2
			c0,0.8-0.1,1-0.3,1.4h6.9v-2c-0.9,0.7-2.7,0.7-3.5,0.7h-1v-2.2h0.7c0.5,0,1.4,0.1,1.9,0.3V34.3z"/>
		<path d="M130.8,31.5c-1-0.3-2.4-0.5-3.4-0.5c-1.9,0-3.7,0.6-3.7,2.6c0,3.5,5.6,1.6,5.6,3.8c0,0.7-1,1-1.8,1
			c-1.4,0-2.4-0.3-3.7-1.1V39c0.9,0.3,2.2,0.5,3.6,0.5c1.9,0,3.7-0.6,3.7-2.6c0-3.7-5.6-2-5.6-3.8c0-0.7,0.9-1,1.7-1
			c1.3,0,2.7,0.4,3.5,1.2V31.5z"/>
		<path d="M145,38.2c-1.6,0-2.7-1.3-2.7-3c0-1.6,1-3,2.7-3c1.6,0,2.7,1.3,2.7,3C147.7,36.9,146.6,38.2,145,38.2 M145.2,31.1
			c-3,0-5.2,1.8-5.2,4.3c0,2.5,1.9,4.1,4.8,4.1c3.1,0,5.2-1.7,5.2-4.2C150,32.7,148.1,31.1,145.2,31.1"/>
	</g>
</g>
</svg>
