<?xml version="1.0" encoding="utf-8"?>
<!-- Generator: Adobe Illustrator 18.0.0, SVG Export Plug-In . SVG Version: 6.00 Build 0)  -->
<!DOCTYPE svg PUBLIC "-//W3C//DTD SVG 1.1//EN" "http://www.w3.org/Graphics/SVG/1.1/DTD/svg11.dtd">
<svg version="1.1" id="Layer_1" xmlns="http://www.w3.org/2000/svg" xmlns:xlink="http://www.w3.org/1999/xlink" x="0px" y="0px"
	 width="118.5px" height="66.6px" viewBox="0 0 118.5 66.6" enable-background="new 0 0 118.5 66.6" xml:space="preserve">
<g opacity="0.3">
	<path fill-rule="evenodd" clip-rule="evenodd" d="M32.5,66.2h-2.6v-1.6c-0.2,0.2-0.5,0.4-0.9,0.7c-0.4,0.3-0.8,0.5-1.1,0.7
		c-0.4,0.2-0.9,0.4-1.5,0.5c-0.6,0.1-1.2,0.2-2,0.2c-1.4,0-2.6-0.5-3.5-1.4c-1-0.9-1.5-2.1-1.5-3.5c0-1.2,0.2-2.1,0.7-2.8
		c0.5-0.7,1.2-1.3,2.2-1.7c0.9-0.4,2.1-0.7,3.4-0.8c1.3-0.1,2.7-0.3,4.3-0.3v-0.4c0-0.6-0.1-1.1-0.3-1.5c-0.2-0.4-0.5-0.7-0.9-0.9
		c-0.4-0.2-0.8-0.4-1.3-0.4c-0.5-0.1-1.1-0.1-1.6-0.1c-0.7,0-1.4,0.1-2.3,0.3c-0.8,0.2-1.7,0.4-2.6,0.8h-0.1V51
		c0.5-0.1,1.2-0.3,2.2-0.5c1-0.2,1.9-0.2,2.8-0.2c1.1,0,2,0.1,2.8,0.3c0.8,0.2,1.5,0.5,2.1,0.9c0.6,0.4,1,1,1.3,1.6
		c0.3,0.7,0.5,1.5,0.5,2.5V66.2L32.5,66.2z M29.9,62.4v-4.3c-0.8,0-1.7,0.1-2.8,0.2c-1.1,0.1-1.9,0.2-2.5,0.4
		c-0.7,0.2-1.4,0.5-1.8,1c-0.5,0.4-0.7,1.1-0.7,1.8c0,0.9,0.3,1.6,0.8,2c0.5,0.4,1.4,0.7,2.5,0.7c0.9,0,1.7-0.2,2.5-0.5
		C28.6,63.3,29.3,62.9,29.9,62.4L29.9,62.4z"/>
	<polygon fill-rule="evenodd" clip-rule="evenodd" points="35.8,66.2 35.8,44.6 38.4,44.6 38.4,66.2 35.8,66.2 	"/>
	<polygon fill-rule="evenodd" clip-rule="evenodd" points="41.7,66.2 41.7,44.6 44.3,44.6 44.3,66.2 41.7,66.2 	"/>
	<path fill-rule="evenodd" clip-rule="evenodd" d="M17.1,64.7c-0.5,0.2-1,0.4-1.4,0.6c-0.4,0.2-0.9,0.4-1.6,0.6
		c-0.6,0.2-1.2,0.3-1.8,0.4c-0.7,0.1-1.4,0.2-2.2,0.2c-1.5,0-2.9-0.2-4.1-0.6c-1.2-0.4-2.3-1.1-3.2-2c-0.9-0.9-1.6-2-2.1-3.3
		C0.2,59.3,0,57.7,0,55.9c0-1.7,0.2-3.2,0.7-4.6c0.5-1.3,1.2-2.5,2.1-3.4c0.9-0.9,1.9-1.6,3.2-2c1.2-0.5,2.6-0.7,4.1-0.7
		c1.1,0,2.2,0.1,3.3,0.4c1.1,0.3,2.3,0.7,3.7,1.4v3.3h-0.2c-1.1-1-2.3-1.6-3.4-2.1c-1.1-0.4-2.3-0.7-3.6-0.7c-1,0-2,0.2-2.8,0.5
		c-0.8,0.3-1.6,0.9-2.2,1.6c-0.6,0.7-1.1,1.6-1.5,2.6c-0.4,1.1-0.5,2.3-0.5,3.7c0,1.5,0.2,2.7,0.6,3.7c0.4,1,0.9,1.9,1.5,2.5
		c0.6,0.7,1.4,1.2,2.3,1.5C8.1,64,9,64.2,10,64.2c1.3,0,2.6-0.2,3.7-0.7c1.2-0.5,2.2-1.1,3.2-2h0.2V64.7L17.1,64.7z"/>
	<path fill-rule="evenodd" clip-rule="evenodd" d="M85.9,58.7H74.5c0,1,0.1,1.8,0.4,2.5c0.3,0.7,0.7,1.3,1.2,1.7
		c0.5,0.4,1,0.8,1.7,1c0.7,0.2,1.4,0.3,2.2,0.3c1.1,0,2.1-0.2,3.2-0.6c1.1-0.4,1.8-0.8,2.3-1.2h0.1v2.8c-0.9,0.4-1.8,0.7-2.7,0.9
		C82,66.4,81,66.5,80,66.5c-2.6,0-4.6-0.7-6-2.1c-1.4-1.4-2.2-3.4-2.2-5.9c0-2.5,0.7-4.5,2.1-6c1.4-1.5,3.2-2.2,5.5-2.2
		c2.1,0,3.7,0.6,4.8,1.8c1.1,1.2,1.7,3,1.7,5.2V58.7L85.9,58.7z M83.2,56.7c0-1.4-0.4-2.4-1-3.2c-0.7-0.7-1.7-1.1-3.1-1.1
		c-1.4,0-2.5,0.4-3.3,1.2c-0.8,0.8-1.3,1.8-1.4,3.1H83.2L83.2,56.7z"/>
	<path fill-rule="evenodd" clip-rule="evenodd" d="M101.4,66.2h-2.6v-1.6c-0.7,0.6-1.5,1.2-2.3,1.5c-0.8,0.4-1.7,0.5-2.6,0.5
		c-1.8,0-3.3-0.7-4.4-2.1c-1.1-1.4-1.6-3.4-1.6-5.9c0-1.3,0.2-2.5,0.6-3.5c0.4-1,0.9-1.9,1.5-2.6c0.6-0.7,1.4-1.2,2.2-1.6
		c0.8-0.4,1.7-0.6,2.6-0.6c0.8,0,1.5,0.1,2.2,0.3c0.6,0.2,1.3,0.4,2,0.8v-6.7h2.6V66.2L101.4,66.2z M98.8,62.4v-8.9
		c-0.7-0.3-1.3-0.5-1.9-0.7c-0.6-0.1-1.2-0.2-1.8-0.2c-1.5,0-2.6,0.5-3.4,1.5c-0.8,1-1.2,2.5-1.2,4.3c0,1.8,0.3,3.2,0.9,4.2
		c0.6,1,1.6,1.4,3,1.4c0.7,0,1.5-0.2,2.2-0.5C97.4,63.3,98.1,62.9,98.8,62.4L98.8,62.4z"/>
	<path fill-rule="evenodd" clip-rule="evenodd" d="M104.6,48.1v-2.7h2.9v2.7H104.6L104.6,48.1z M104.7,66.2V50.7h2.6v15.5H104.7
		L104.7,66.2z"/>
	<path fill-rule="evenodd" clip-rule="evenodd" d="M71.8,53.6h-0.1c-0.4-0.1-0.8-0.2-1.1-0.2c-0.4,0-0.8-0.1-1.3-0.1
		c-0.8,0-1.6,0.2-2.3,0.5c-0.7,0.4-1.5,0.8-2.2,1.4v11h-2.6V50.7h2.6V53c1-0.8,1.9-1.4,2.7-1.8c0.8-0.4,1.6-0.5,2.4-0.5
		c0.5,0,0.8,0,1,0c0.2,0,0.5,0.1,0.9,0.1V53.6L71.8,53.6z"/>
	<path fill-rule="evenodd" clip-rule="evenodd" d="M118.5,66c-0.5,0.1-1,0.2-1.6,0.3c-0.6,0.1-1.1,0.1-1.5,0.1
		c-1.6,0-2.8-0.4-3.6-1.3c-0.8-0.8-1.2-2.2-1.2-4.1V46.3h2.6v4.4h5.4v2.2h-5.4V60c0,0.8,0,1.4,0.1,1.9c0,0.5,0.2,0.9,0.4,1.3
		c0.2,0.4,0.5,0.6,0.8,0.8c0.4,0.2,0.9,0.2,1.6,0.2c0.4,0,0.9-0.1,1.3-0.2c0.5-0.1,0.8-0.2,1-0.3h0.1V66L118.5,66z"/>
	<path fill-rule="evenodd" clip-rule="evenodd" d="M59.4,65.3c-0.9,0.4-1.7,0.7-2.4,1c-0.8,0.2-1.6,0.3-2.4,0.3
		c-1.1,0-2.1-0.2-3-0.5c-0.9-0.3-1.7-0.8-2.4-1.5c-0.7-0.7-1.2-1.5-1.5-2.5c-0.4-1-0.5-2.2-0.5-3.5c0-2.5,0.7-4.5,2-5.9
		c1.4-1.4,3.2-2.1,5.4-2.1c0.9,0,1.7,0.1,2.6,0.4c0.8,0.2,1.6,0.5,2.3,0.9v2.9h-0.1c-0.8-0.6-1.6-1.1-2.4-1.4
		c-0.8-0.3-1.6-0.5-2.4-0.5c-1.5,0-2.6,0.5-3.5,1.5c-0.8,1-1.3,2.4-1.3,4.3c0,1.8,0.4,3.3,1.2,4.2c0.8,1,2,1.5,3.5,1.5
		c0.5,0,1-0.1,1.6-0.2c0.5-0.1,1-0.3,1.4-0.5c0.4-0.2,0.7-0.4,1.1-0.6c0.3-0.2,0.6-0.4,0.8-0.6h0.1V65.3L59.4,65.3z"/>
	<polygon fill-rule="evenodd" clip-rule="evenodd" fill="#545454" points="35.4,37.2 35.4,11.9 56.8,11.9 56.8,37.2 35.4,37.2 	"/>
	<path fill-rule="evenodd" clip-rule="evenodd" fill="#545454" d="M54.7,4.5c0-2.5,2-4.5,4.5-4.5c2.5,0,4.5,2,4.5,4.5
		c0,2.5-2,4.5-4.5,4.5C56.7,9,54.7,7,54.7,4.5L54.7,4.5z"/>
	<polygon fill-rule="evenodd" clip-rule="evenodd" fill="#545454" points="61.7,37.2 61.7,11.9 83.1,11.9 83.1,37.2 61.7,37.2 	"/>
</g>
</svg>
