<?xml version="1.0" encoding="utf-8"?>
<!-- Generator: Adobe Illustrator 18.0.0, SVG Export Plug-In . SVG Version: 6.00 Build 0)  -->
<!DOCTYPE svg PUBLIC "-//W3C//DTD SVG 1.1//EN" "http://www.w3.org/Graphics/SVG/1.1/DTD/svg11.dtd">
<svg version="1.1" id="Layer_1" xmlns="http://www.w3.org/2000/svg" xmlns:xlink="http://www.w3.org/1999/xlink" x="0px" y="0px"
	 width="115px" height="70px" viewBox="0 0 115 70" enable-background="new 0 0 115 70" xml:space="preserve">
<g opacity="0.4">
	<polygon fill="#C9C9C9" points="31.1,53.6 84.6,53.6 84.6,0 31.1,0 	"/>
	<path d="M80.5,12.3h-0.7c-0.3-2-1-4.1-3.1-5.1c-1.3-0.6-3.4-0.4-4.5-0.4l-0.1,23.3c0.4,2.1,3.7,1.7,3.8,1.7v1H63.3
		c-0.1-0.1-0.1-1,0-1c4.4,0,3.9-0.3,3.9-7.9c0-7.1,0-17.1,0-17.1c0-0.2-2.8,0-4.3,0.3c-2.5,0.7-3.1,3.1-3.4,5.3c0-0.1-0.8-0.1-0.8,0
		v-7h3.6h18.3L80.5,12.3L80.5,12.3z"/>
	<path d="M56.1,12.3h-1C54.8,10.2,54.3,8,52,7.2c-2.4-0.6-4.8-0.4-7.3-0.4v0.4v11c1.4,0,3.1,0.1,4.3-0.8c1.2-1.3,1.5-2.9,1.8-4.6
		h0.7v12.6h-0.8c-0.4-2-0.5-4.2-2.6-5.2c-1.1-0.4-2.4-0.7-3.4-0.7v9.3c0.1,0.9,0.2,2,0.9,2.6c0.8,0.6,2.1,0.4,2.9,0.4v0.9l-12.6,0.1
		V32c0.8-0.1,3.1,0.1,3.4-1.6l0.3-1.6v-20c-0.1-0.7-0.3-1.5-1-2c-0.8-0.5-1.8-0.5-2.7-0.5c0-0.3-0.1-0.8-0.1-0.8h20.3V12.3
		L56.1,12.3z"/>
	<path d="M7.2,63.2H7l0,0c-0.1-0.6-0.2-0.8-0.5-1c-0.3-0.3-0.7-0.4-1.4-0.4H2.5v3.3h1.9c1.1,0,1.4-0.2,1.4-1.1v-0.1H6v2.9H5.8l0,0
		c0-1-0.3-1.2-1.4-1.2H2.5v2.9c0,0.8,0.3,1.1,1.2,1.1l0,0v0.2H0v-0.2h0.1c0.8-0.1,1.1-0.3,1.1-1.1v-5.8c0-0.8-0.2-1.1-1.1-1.1H0
		v-0.2h7.2L7.2,63.2L7.2,63.2z"/>
	<path d="M8,61.4h3.9v0.2h-0.1c-0.9,0-1.2,0.3-1.2,1.1v5.8c0,0.8,0.3,1.1,1.3,1.1v0.2H8v-0.2c1.1,0,1.3-0.3,1.3-1.1v-5.8
		c0-0.8-0.3-1.1-1.1-1.1H8V61.4L8,61.4z"/>
	<path d="M22.2,61.6h-0.4c-0.8,0-0.9,0.1-0.9,1.2v7.1h-0.2l-6-6.8v5c0,1.1,0.2,1.4,0.9,1.5h0.3l0,0v0.2h-3v-0.2l0,0
		c1,0,1.2-0.3,1.2-1.3v-5.7c-0.4-0.7-0.9-1-1.6-1h-0.1v-0.2h2.5l5.4,6.2v-4.7c0-1.1-0.1-1.3-0.9-1.3h-0.3v-0.2h3.1L22.2,61.6
		L22.2,61.6z"/>
	<path d="M30.5,68.7c0.3,0.7,0.6,0.9,1.1,0.9h0.1v0.2h-3.5v-0.2h0.1c0.5,0,0.8-0.3,0.8-0.6c0-0.2,0-0.3-0.1-0.6L28.3,67h-3.4
		l-0.7,1.7C24,68.8,24,68.9,24,69c0,0.4,0.3,0.6,0.9,0.6l0,0v0.2h-2.4v-0.2c0.5-0.1,0.8-0.3,1.1-1.2l3.3-7.4h0.2L30.5,68.7
		L30.5,68.7z M25,66.5h3l-1.5-3.4L25,66.5L25,66.5z"/>
	<path d="M41.7,61.6h-0.3c-0.9,0-1,0.1-1,1.2v7.1h-0.2l-6-6.8v5c0,1.1,0.2,1.4,0.9,1.5h0.3l0,0v0.2h-3v-0.2l0,0
		c1.1,0,1.2-0.3,1.3-1.3v-5.7c-0.5-0.7-0.9-1-1.7-1h-0.1v-0.2h2.5l5.4,6.2v-4.7c0-1.1-0.1-1.3-0.9-1.3h-0.3v-0.2h3.1L41.7,61.6
		L41.7,61.6z"/>
	<path d="M50.2,64H50c-0.2-0.7-0.4-1.2-0.9-1.6c-0.5-0.5-1.3-0.8-2-0.8c-0.9,0-1.7,0.4-2.3,1c-0.6,0.7-0.9,1.8-0.9,3.1
		c0,0.8,0.1,1.4,0.4,1.9c0.5,1.2,1.6,1.8,2.9,1.8c0.9,0,1.6-0.2,2.4-0.9c0.3-0.3,0.4-0.4,0.6-0.7l0.2,0.1c-0.9,1.4-2,2.1-3.6,2.1
		c-2.5,0-4.4-1.9-4.4-4.3c0-2.5,2-4.5,4.5-4.5c0.7,0,1.5,0.2,2.1,0.5c0.1,0,0.2,0.1,0.3,0.1c0.2,0,0.3-0.2,0.5-0.6l0,0H50L50.2,64
		L50.2,64z"/>
	<path d="M51,61.4h3.9v0.2h-0.1c-0.9,0-1.2,0.3-1.2,1.1v5.8c0,0.8,0.3,1.1,1.3,1.1v0.2H51v-0.2c1,0,1.3-0.3,1.3-1.1v-5.8
		c0-0.8-0.3-1.1-1.1-1.1H51L51,61.4L51,61.4z"/>
	<path d="M63.4,68.7c0.3,0.7,0.5,0.9,1.1,0.9l0,0v0.2h-3.4v-0.2l0,0c0.5,0,0.9-0.3,0.9-0.6c0-0.2-0.1-0.3-0.2-0.6L61.2,67h-3.4
		L57,68.7c0,0.1,0,0.2,0,0.3c0,0.4,0.3,0.6,0.8,0.6h0.1v0.2h-2.5v-0.2c0.6-0.1,0.8-0.3,1.2-1.2l3.2-7.4H60L63.4,68.7L63.4,68.7z
		 M58,66.5h3l-1.5-3.4L58,66.5L58,66.5z"/>
	<path d="M71.9,69.8h-6.7v-0.2h0.1c0.9,0,1.1-0.3,1.1-1.1v-5.8c0-0.8-0.2-1.1-1.1-1.1h-0.1v-0.2H69v0.2h-0.1c-0.9,0-1.2,0.3-1.2,1.1
		v6.1c0,0.3,0.2,0.4,0.6,0.4H70c0.8,0,1.1-0.1,1.5-0.4c0.4-0.3,0.5-0.6,0.9-1.3l0,0h0.2L71.9,69.8L71.9,69.8z"/>
	<path d="M84.1,61.4l0.1,1.9H84c-0.1-0.6-0.3-0.9-0.6-1.1c-0.3-0.2-0.5-0.3-1.2-0.3h-1.1v6.6c0,0.8,0.3,1.1,1.1,1.1h0.1v0.2h-3.8
		v-0.2h0.1c0.9,0,1.1-0.3,1.1-1.1v-6.6h-1c-1.1,0-1.4,0.2-1.7,0.8c-0.1,0.2-0.1,0.3-0.2,0.6h-0.2l0.1-1.9H84.1L84.1,61.4z"/>
	<path d="M84.7,61.4h3.9v0.2h-0.2c-0.8,0-1.1,0.3-1.1,1.1v5.8c0,0.8,0.3,1.1,1.3,1.1v0.2h-3.9v-0.2c1,0,1.3-0.3,1.3-1.1v-5.8
		c0-0.8-0.3-1.1-1.2-1.1h-0.1L84.7,61.4L84.7,61.4z"/>
	<path d="M100.4,61.4v0.2l0,0c-0.9,0-1.2,0.3-1.2,1.1v5.8c0,0.8,0.3,1.1,1.2,1.1l0,0v0.2h-3.7v-0.2c0.9,0,1.2-0.3,1.2-1.1v-5.8l0,0
		l-3.3,7.1h-0.2l-3.2-7.1l0,0v5.8c0,0.8,0.2,1.1,1.1,1.1l0,0v0.2h-2.9v-0.2h0.1c0.8,0,1.1-0.3,1.1-1.1v-5.7c0-0.8-0.3-1.1-1.2-1.2
		v-0.2H92l2.9,6.4l3-6.4H100.4L100.4,61.4z"/>
	<path d="M108,63.2h-0.2c-0.1-0.8-0.5-1.3-1.2-1.3h-0.3h-2.5v3.2h2.2c0.7,0,1.1-0.3,1.1-1.2l0,0h0.2v3h-0.2v-0.1
		c0-0.9-0.4-1.2-1.2-1.2h-2.1v3c0,0.5,0.1,0.7,0.6,0.7h2c0.6,0,1-0.2,1.4-0.6c0.3-0.3,0.3-0.3,0.6-0.9l0.1-0.1h0.2l-0.7,2.1h-6.7
		v-0.2l0,0c0.9,0,1.2-0.3,1.2-1.1v-5.8c0-0.8-0.3-1.1-1.2-1.1l0,0v-0.2h6.6L108,63.2L108,63.2z"/>
	<path d="M114.5,64h-0.2c-0.1-1.3-1.1-2.3-2.2-2.3c-0.9,0-1.5,0.5-1.5,1.2c0,0.4,0.2,0.8,0.7,1.2c0.3,0.1,0.6,0.3,0.9,0.5
		c1.6,1,2,1.3,2.5,1.9c0.2,0.3,0.3,0.7,0.3,1.2c0,1.3-1.1,2.3-2.6,2.3c-0.6,0-0.7-0.1-1.7-0.4c-0.2,0-0.3-0.1-0.4-0.1
		c-0.2,0-0.4,0.2-0.5,0.5h-0.2v-2.9h0.2c0.1,0.6,0.2,0.8,0.4,1.1c0.4,0.8,1.2,1.3,2,1.3c1,0,1.6-0.6,1.6-1.3c0-0.8-0.5-1.4-2.1-2.2
		c-1.3-0.8-1.7-1.2-2-1.8c-0.1-0.3-0.2-0.5-0.2-0.8c0-1.3,1.1-2.2,2.4-2.2c0.5,0,0.7,0.1,1.5,0.4c0.2,0,0.3,0.1,0.4,0.1
		c0.2,0,0.4-0.2,0.5-0.5h0.2L114.5,64L114.5,64z"/>
</g>
</svg>
