<?xml version="1.0" encoding="utf-8"?>
<!-- Generator: Adobe Illustrator 18.1.1, SVG Export Plug-In . SVG Version: 6.00 Build 0)  -->
<!DOCTYPE svg PUBLIC "-//W3C//DTD SVG 1.1//EN" "http://www.w3.org/Graphics/SVG/1.1/DTD/svg11.dtd">
<svg version="1.1" id="Layer_1" xmlns="http://www.w3.org/2000/svg" xmlns:xlink="http://www.w3.org/1999/xlink" x="0px" y="0px"
	 width="201px" height="83.4px" viewBox="142.7 225.2 201 83.4" enable-background="new 142.7 225.2 201 83.4" xml:space="preserve"
	>
<rect x="89.4" y="170.2" display="none" fill="none" width="574" height="170.4"/>
<g enable-background="new    ">
	<path fill="#D71920" d="M191.9,249.3L180.8,284h-1.8l-10.8-33.3h-0.1L157.3,284h-1.9l-10.7-34.6h1.3l10.3,33.3h0.1l10.7-33.3h2.1
		l10.7,33.3h0.1l10.5-33.3H191.9z"/>
	<path fill="#D71920" d="M196,273.4c0.5,2,1.3,3.7,2.4,5.2s2.5,2.7,4.2,3.5c1.7,0.9,3.8,1.3,6.3,1.3c3.6,0,6.7-1,9.1-2.9
		c2.4-1.9,3.9-4.8,4.5-8.6h1.3c-0.5,4-2.1,7.2-4.8,9.4c-2.7,2.2-6,3.3-10,3.3c-2.7,0-5-0.4-6.9-1.3c-1.9-0.9-3.5-2.2-4.7-3.8
		c-1.2-1.6-2.1-3.6-2.7-5.8c-0.6-2.2-0.9-4.6-0.9-7.2c0-2.9,0.4-5.4,1.3-7.7c0.9-2.2,2-4.1,3.4-5.7c1.4-1.6,3-2.7,4.9-3.5
		c1.8-0.8,3.7-1.2,5.7-1.2c2.7,0,5,0.5,7,1.5c2,1,3.5,2.4,4.8,4.1c1.2,1.7,2.1,3.7,2.7,5.9c0.6,2.2,0.8,4.5,0.7,6.9h-29
		C195.2,269.2,195.5,271.4,196,273.4z M221.9,259.5c-0.6-1.9-1.4-3.6-2.6-5c-1.1-1.4-2.6-2.6-4.3-3.4c-1.7-0.8-3.7-1.2-5.9-1.2
		c-1.9,0-3.7,0.4-5.3,1.1c-1.6,0.7-3.1,1.8-4.3,3.1c-1.2,1.4-2.2,3-3,5c-0.8,1.9-1.2,4.1-1.3,6.5h27.6
		C222.8,263.4,222.5,261.4,221.9,259.5z"/>
</g>
<g enable-background="new    ">
	<path fill="none" stroke="#D71920" stroke-width="2" d="M191.9,249.3L180.8,284h-1.8l-10.8-33.3h-0.1L157.3,284h-1.9l-10.7-34.6
		h1.3l10.3,33.3h0.1l10.7-33.3h2.1l10.7,33.3h0.1l10.5-33.3H191.9z"/>
	<path fill="none" stroke="#D71920" stroke-width="2" d="M196,273.4c0.5,2,1.3,3.7,2.4,5.2s2.5,2.7,4.2,3.5c1.7,0.9,3.8,1.3,6.3,1.3
		c3.6,0,6.7-1,9.1-2.9c2.4-1.9,3.9-4.8,4.5-8.6h1.3c-0.5,4-2.1,7.2-4.8,9.4c-2.7,2.2-6,3.3-10,3.3c-2.7,0-5-0.4-6.9-1.3
		c-1.9-0.9-3.5-2.2-4.7-3.8c-1.2-1.6-2.1-3.6-2.7-5.8c-0.6-2.2-0.9-4.6-0.9-7.2c0-2.9,0.4-5.4,1.3-7.7c0.9-2.2,2-4.1,3.4-5.7
		c1.4-1.6,3-2.7,4.9-3.5c1.8-0.8,3.7-1.2,5.7-1.2c2.7,0,5,0.5,7,1.5c2,1,3.5,2.4,4.8,4.1c1.2,1.7,2.1,3.7,2.7,5.9
		c0.6,2.2,0.8,4.5,0.7,6.9h-29C195.2,269.2,195.5,271.4,196,273.4z M221.9,259.5c-0.6-1.9-1.4-3.6-2.6-5c-1.1-1.4-2.6-2.6-4.3-3.4
		c-1.7-0.8-3.7-1.2-5.9-1.2c-1.9,0-3.7,0.4-5.3,1.1c-1.6,0.7-3.1,1.8-4.3,3.1c-1.2,1.4-2.2,3-3,5c-0.8,1.9-1.2,4.1-1.3,6.5h27.6
		C222.8,263.4,222.5,261.4,221.9,259.5z"/>
</g>
<g enable-background="new    ">
	<path fill="#565656" d="M231.6,255.5c0.6-1.4,1.4-2.6,2.5-3.7c1.1-1,2.4-1.8,4-2.4c1.6-0.6,3.5-0.9,5.6-0.9c1.5,0,3,0.2,4.3,0.5
		c1.4,0.3,2.6,0.9,3.6,1.7c1,0.8,1.9,1.8,2.5,3.1c0.6,1.3,1,2.8,1,4.7v22c0,0.7,0.1,1.2,0.4,1.5c0.3,0.3,0.6,0.5,1.1,0.6
		c0.4,0.1,0.9,0.2,1.4,0.1c0.5,0,1-0.1,1.4-0.1v1.3h-2c-1,0-1.9-0.2-2.6-0.7c-0.7-0.5-1.1-1.4-1.1-2.7v-4.5h-0.1
		c-0.4,1.1-0.9,2.2-1.7,3.2c-0.8,1-1.8,2-3,2.8c-1.2,0.8-2.6,1.4-4.1,1.9c-1.5,0.5-3.2,0.7-5,0.7c-3.5,0-6.3-0.8-8.4-2.3
		c-2.1-1.6-3.2-3.9-3.2-7c0-2.2,0.3-3.9,1-5.2c0.7-1.3,1.6-2.3,2.7-3.1c1.1-0.7,2.4-1.3,3.8-1.5c1.4-0.3,2.9-0.5,4.3-0.6
		c2.4-0.1,4.4-0.3,6.1-0.4c1.7-0.1,3.1-0.3,4.2-0.7c1.1-0.3,1.9-0.9,2.4-1.6c0.5-0.7,0.8-1.7,0.8-3c0-1-0.1-2.1-0.3-3.2
		c-0.2-1.1-0.6-2.2-1.3-3.1c-0.7-0.9-1.7-1.7-3.1-2.3s-3.2-0.9-5.5-0.9c-3.6,0-6.5,0.9-8.5,2.7c-2,1.8-3.1,4.3-3.4,7.5h-1.3
		C230.7,258.4,231,256.9,231.6,255.5z M253.8,263.6c-0.4,0.6-1.1,1.1-2.1,1.4c-0.9,0.3-2,0.6-3.2,0.8c-1.2,0.2-2.5,0.3-3.9,0.3
		c-1.4,0-2.8,0.1-4.1,0.2c-1.3,0.1-2.7,0.3-3.9,0.5c-1.3,0.2-2.4,0.7-3.4,1.3c-1,0.7-1.8,1.5-2.4,2.7c-0.6,1.1-0.9,2.6-0.9,4.5
		c0,1,0.2,2,0.5,2.9c0.3,1,0.9,1.8,1.7,2.6c0.8,0.7,1.9,1.3,3.1,1.8s2.9,0.7,4.8,0.7c2.2,0,4.2-0.4,6-1.1c1.8-0.8,3.2-1.8,4.4-3
		c1.2-1.2,2.1-2.7,2.7-4.3c0.6-1.6,0.9-3.3,0.9-5v-6.4H253.8z"/>
	<path fill="#565656" d="M288.4,249.3L275.3,284h-1.7l-14.2-34.6h1.6l13.4,33.3h0.1l12.4-33.3H288.4z"/>
	<path fill="#565656" d="M292.3,273.4c0.5,2,1.3,3.7,2.4,5.2s2.5,2.7,4.2,3.5c1.7,0.9,3.8,1.3,6.3,1.3c3.6,0,6.7-1,9.1-2.9
		c2.4-1.9,3.9-4.8,4.5-8.6h1.3c-0.5,4-2.1,7.2-4.8,9.4c-2.7,2.2-6,3.3-10,3.3c-2.7,0-5-0.4-6.9-1.3c-1.9-0.9-3.5-2.2-4.7-3.8
		c-1.2-1.6-2.1-3.6-2.7-5.8c-0.6-2.2-0.9-4.6-0.9-7.2c0-2.9,0.4-5.4,1.3-7.7c0.9-2.2,2-4.1,3.4-5.7c1.4-1.6,3-2.7,4.9-3.5
		c1.8-0.8,3.7-1.2,5.7-1.2c2.7,0,5,0.5,7,1.5c2,1,3.5,2.4,4.8,4.1c1.2,1.7,2.1,3.7,2.7,5.9c0.6,2.2,0.8,4.5,0.7,6.9h-29
		C291.5,269.2,291.8,271.4,292.3,273.4z M318.2,259.5c-0.6-1.9-1.4-3.6-2.6-5c-1.1-1.4-2.6-2.6-4.3-3.4c-1.7-0.8-3.7-1.2-5.9-1.2
		c-1.9,0-3.7,0.4-5.3,1.1c-1.6,0.7-3.1,1.8-4.3,3.1c-1.2,1.4-2.2,3-3,5c-0.8,1.9-1.2,4.1-1.3,6.5h27.6
		C319.1,263.4,318.8,261.4,318.2,259.5z"/>
	<path fill="#565656" d="M326.6,284v-34.6h1.3v8.6h0.1c0.3-1.3,0.8-2.5,1.5-3.7c0.7-1.1,1.6-2.1,2.7-3c1.1-0.9,2.5-1.5,4-2
		c1.5-0.5,3.4-0.7,5.4-0.7v1.3c-2.4-0.1-4.4,0.2-6.2,1c-1.7,0.8-3.2,1.9-4.3,3.2c-1.1,1.4-2,3-2.5,4.8c-0.5,1.8-0.8,3.6-0.8,5.5V284
		H326.6z"/>
</g>
<g enable-background="new    ">
	<path fill="none" stroke="#565656" stroke-width="2" d="M231.6,255.5c0.6-1.4,1.4-2.6,2.5-3.7c1.1-1,2.4-1.8,4-2.4
		c1.6-0.6,3.5-0.9,5.6-0.9c1.5,0,3,0.2,4.3,0.5c1.4,0.3,2.6,0.9,3.6,1.7c1,0.8,1.9,1.8,2.5,3.1c0.6,1.3,1,2.8,1,4.7v22
		c0,0.7,0.1,1.2,0.4,1.5c0.3,0.3,0.6,0.5,1.1,0.6c0.4,0.1,0.9,0.2,1.4,0.1c0.5,0,1-0.1,1.4-0.1v1.3h-2c-1,0-1.9-0.2-2.6-0.7
		c-0.7-0.5-1.1-1.4-1.1-2.7v-4.5h-0.1c-0.4,1.1-0.9,2.2-1.7,3.2c-0.8,1-1.8,2-3,2.8c-1.2,0.8-2.6,1.4-4.1,1.9
		c-1.5,0.5-3.2,0.7-5,0.7c-3.5,0-6.3-0.8-8.4-2.3c-2.1-1.6-3.2-3.9-3.2-7c0-2.2,0.3-3.9,1-5.2c0.7-1.3,1.6-2.3,2.7-3.1
		c1.1-0.7,2.4-1.3,3.8-1.5c1.4-0.3,2.9-0.5,4.3-0.6c2.4-0.1,4.4-0.3,6.1-0.4c1.7-0.1,3.1-0.3,4.2-0.7c1.1-0.3,1.9-0.9,2.4-1.6
		c0.5-0.7,0.8-1.7,0.8-3c0-1-0.1-2.1-0.3-3.2c-0.2-1.1-0.6-2.2-1.3-3.1c-0.7-0.9-1.7-1.7-3.1-2.3s-3.2-0.9-5.5-0.9
		c-3.6,0-6.5,0.9-8.5,2.7c-2,1.8-3.1,4.3-3.4,7.5h-1.3C230.7,258.4,231,256.9,231.6,255.5z M253.8,263.6c-0.4,0.6-1.1,1.1-2.1,1.4
		c-0.9,0.3-2,0.6-3.2,0.8c-1.2,0.2-2.5,0.3-3.9,0.3c-1.4,0-2.8,0.1-4.1,0.2c-1.3,0.1-2.7,0.3-3.9,0.5c-1.3,0.2-2.4,0.7-3.4,1.3
		c-1,0.7-1.8,1.5-2.4,2.7c-0.6,1.1-0.9,2.6-0.9,4.5c0,1,0.2,2,0.5,2.9c0.3,1,0.9,1.8,1.7,2.6c0.8,0.7,1.9,1.3,3.1,1.8
		s2.9,0.7,4.8,0.7c2.2,0,4.2-0.4,6-1.1c1.8-0.8,3.2-1.8,4.4-3c1.2-1.2,2.1-2.7,2.7-4.3c0.6-1.6,0.9-3.3,0.9-5v-6.4H253.8z"/>
	<path fill="none" stroke="#565656" stroke-width="2" d="M288.4,249.3L275.3,284h-1.7l-14.2-34.6h1.6l13.4,33.3h0.1l12.4-33.3H288.4
		z"/>
	<path fill="none" stroke="#565656" stroke-width="2" d="M292.3,273.4c0.5,2,1.3,3.7,2.4,5.2s2.5,2.7,4.2,3.5
		c1.7,0.9,3.8,1.3,6.3,1.3c3.6,0,6.7-1,9.1-2.9c2.4-1.9,3.9-4.8,4.5-8.6h1.3c-0.5,4-2.1,7.2-4.8,9.4c-2.7,2.2-6,3.3-10,3.3
		c-2.7,0-5-0.4-6.9-1.3c-1.9-0.9-3.5-2.2-4.7-3.8c-1.2-1.6-2.1-3.6-2.7-5.8c-0.6-2.2-0.9-4.6-0.9-7.2c0-2.9,0.4-5.4,1.3-7.7
		c0.9-2.2,2-4.1,3.4-5.7c1.4-1.6,3-2.7,4.9-3.5c1.8-0.8,3.7-1.2,5.7-1.2c2.7,0,5,0.5,7,1.5c2,1,3.5,2.4,4.8,4.1
		c1.2,1.7,2.1,3.7,2.7,5.9c0.6,2.2,0.8,4.5,0.7,6.9h-29C291.5,269.2,291.8,271.4,292.3,273.4z M318.2,259.5c-0.6-1.9-1.4-3.6-2.6-5
		c-1.1-1.4-2.6-2.6-4.3-3.4c-1.7-0.8-3.7-1.2-5.9-1.2c-1.9,0-3.7,0.4-5.3,1.1c-1.6,0.7-3.1,1.8-4.3,3.1c-1.2,1.4-2.2,3-3,5
		c-0.8,1.9-1.2,4.1-1.3,6.5h27.6C319.1,263.4,318.8,261.4,318.2,259.5z"/>
	<path fill="none" stroke="#565656" stroke-width="2" d="M326.6,284v-34.6h1.3v8.6h0.1c0.3-1.3,0.8-2.5,1.5-3.7
		c0.7-1.1,1.6-2.1,2.7-3c1.1-0.9,2.5-1.5,4-2c1.5-0.5,3.4-0.7,5.4-0.7v1.3c-2.4-0.1-4.4,0.2-6.2,1c-1.7,0.8-3.2,1.9-4.3,3.2
		c-1.1,1.4-2,3-2.5,4.8c-0.5,1.8-0.8,3.6-0.8,5.5V284H326.6z"/>
</g>
<g id="ULZYUs_1_" display="none">
</g>
</svg>
