<?xml version="1.0" encoding="utf-8"?>
<!-- Generator: Adobe Illustrator 18.0.0, SVG Export Plug-In . SVG Version: 6.00 Build 0)  -->
<!DOCTYPE svg PUBLIC "-//W3C//DTD SVG 1.1//EN" "http://www.w3.org/Graphics/SVG/1.1/DTD/svg11.dtd">
<svg version="1.1" id="Layer_1" xmlns="http://www.w3.org/2000/svg" xmlns:xlink="http://www.w3.org/1999/xlink" x="0px" y="0px"
	 width="101px" height="19.2px" viewBox="0 0 101 19.2" enable-background="new 0 0 101 19.2" xml:space="preserve">
<g>
	<path fill="#D71921" stroke="#D71921" stroke-width="0.8466" d="M24.5,0.8l-5.6,17.5H18L12.5,1.5h-0.1L7,18.4H6L0.6,0.8h0.6
		l5.2,16.9h0.1l5.4-16.9H13l5.4,16.9h0.1l5.3-16.9H24.5z"/>
	<path fill="#D71921" stroke="#D71921" stroke-width="0.8466" d="M26.6,13c0.3,1,0.7,1.9,1.2,2.6c0.5,0.8,1.3,1.3,2.1,1.8
		c0.9,0.4,1.9,0.6,3.2,0.6c1.8,0,3.4-0.5,4.6-1.5c1.2-1,2-2.4,2.3-4.4h0.7c-0.3,2-1.1,3.6-2.4,4.8c-1.4,1.1-3.1,1.7-5.1,1.7
		c-1.4,0-2.5-0.2-3.5-0.6c-1-0.5-1.8-1.1-2.4-1.9c-0.6-0.8-1.1-1.8-1.4-2.9c-0.3-1.1-0.4-2.3-0.4-3.6c0-1.5,0.2-2.8,0.6-3.9
		c0.4-1.1,1-2.1,1.7-2.9C28.6,2,29.4,1.5,30.3,1c0.9-0.4,1.9-0.6,2.9-0.6c1.4,0,2.5,0.3,3.5,0.8c1,0.5,1.8,1.2,2.4,2.1
		c0.6,0.9,1.1,1.9,1.4,3c0.3,1.1,0.4,2.3,0.4,3.5H26.2C26.2,10.9,26.4,12,26.6,13z M39.8,6c-0.3-1-0.7-1.8-1.3-2.5
		c-0.6-0.7-1.3-1.3-2.2-1.7c-0.9-0.4-1.9-0.6-3-0.6c-1,0-1.8,0.2-2.7,0.5C29.8,2,29,2.5,28.4,3.2c-0.6,0.7-1.1,1.5-1.5,2.5
		c-0.4,1-0.6,2.1-0.7,3.3h14C40.2,8,40.1,7,39.8,6z"/>
	<path fill="#555556" stroke="#555556" stroke-width="0.8466" d="M44.6,4c0.3-0.7,0.7-1.3,1.3-1.9c0.6-0.5,1.2-0.9,2-1.2
		c0.8-0.3,1.8-0.4,2.9-0.4c0.8,0,1.5,0.1,2.2,0.2c0.7,0.2,1.3,0.4,1.8,0.8c0.5,0.4,0.9,0.9,1.3,1.6c0.3,0.6,0.5,1.4,0.5,2.4v11.2
		c0,0.3,0.1,0.6,0.2,0.8c0.1,0.2,0.3,0.3,0.5,0.3c0.2,0.1,0.5,0.1,0.7,0.1c0.3,0,0.5,0,0.7-0.1v0.7h-1c-0.5,0-0.9-0.1-1.3-0.4
		c-0.4-0.2-0.6-0.7-0.6-1.3v-2.3h-0.1c-0.2,0.6-0.5,1.1-0.9,1.6c-0.4,0.5-0.9,1-1.5,1.4c-0.6,0.4-1.3,0.7-2.1,1
		c-0.8,0.2-1.6,0.4-2.5,0.4c-1.8,0-3.2-0.4-4.3-1.2c-1.1-0.8-1.6-2-1.6-3.5c0-1.1,0.2-2,0.5-2.6c0.4-0.7,0.8-1.2,1.4-1.6
		c0.6-0.4,1.2-0.6,1.9-0.8c0.7-0.1,1.5-0.2,2.2-0.3c1.2-0.1,2.2-0.1,3.1-0.2c0.9-0.1,1.6-0.2,2.1-0.3c0.6-0.2,1-0.4,1.2-0.8
		c0.3-0.4,0.4-0.9,0.4-1.5c0-0.5,0-1.1-0.1-1.6c-0.1-0.6-0.3-1.1-0.7-1.6c-0.4-0.5-0.9-0.9-1.6-1.2c-0.7-0.3-1.6-0.5-2.8-0.5
		c-1.8,0-3.3,0.4-4.3,1.3c-1,0.9-1.6,2.2-1.7,3.8h-0.7C44.1,5.4,44.3,4.7,44.6,4z M55.8,8.1c-0.2,0.3-0.6,0.6-1.1,0.7
		c-0.5,0.2-1,0.3-1.6,0.4c-0.6,0.1-1.3,0.1-2,0.2c-0.7,0-1.4,0.1-2.1,0.1c-0.7,0-1.3,0.1-2,0.3c-0.6,0.1-1.2,0.4-1.7,0.7
		c-0.5,0.3-0.9,0.8-1.2,1.4c-0.3,0.6-0.4,1.3-0.4,2.3c0,0.5,0.1,1,0.3,1.5c0.2,0.5,0.5,0.9,0.9,1.3c0.4,0.4,0.9,0.7,1.6,0.9
		c0.6,0.2,1.5,0.4,2.4,0.4c1.1,0,2.2-0.2,3-0.6c0.9-0.4,1.6-0.9,2.2-1.5c0.6-0.6,1.1-1.3,1.4-2.2c0.3-0.8,0.5-1.7,0.5-2.5L55.8,8.1
		L55.8,8.1z"/>
	<path fill="#555556" stroke="#555556" stroke-width="0.8466" d="M73.4,0.8l-6.6,17.5H66L58.8,0.8h0.8l6.8,16.9h0.1l6.3-16.9H73.4z"
		/>
	<path fill="#555556" stroke="#555556" stroke-width="0.8466" d="M75.5,13c0.3,1,0.7,1.9,1.2,2.6c0.5,0.8,1.3,1.3,2.1,1.8
		c0.9,0.4,1.9,0.6,3.2,0.6c1.8,0,3.4-0.5,4.6-1.5c1.2-1,2-2.4,2.3-4.4h0.7c-0.3,2-1.1,3.6-2.4,4.8S84,18.8,82,18.8
		c-1.4,0-2.5-0.2-3.5-0.6c-1-0.5-1.8-1.1-2.4-1.9c-0.6-0.8-1.1-1.8-1.4-2.9c-0.3-1.1-0.4-2.3-0.4-3.6c0-1.5,0.2-2.8,0.6-3.9
		c0.4-1.1,1-2.1,1.7-2.9C77.4,2,78.2,1.5,79.2,1c0.9-0.4,1.9-0.6,2.9-0.6c1.4,0,2.5,0.3,3.5,0.8c1,0.5,1.8,1.2,2.4,2.1
		c0.6,0.9,1.1,1.9,1.4,3c0.3,1.1,0.4,2.3,0.4,3.5H75C75.1,10.9,75.2,12,75.5,13z M88.6,6c-0.3-1-0.7-1.8-1.3-2.5
		c-0.6-0.7-1.3-1.3-2.2-1.7c-0.9-0.4-1.9-0.6-3-0.6c-1,0-1.8,0.2-2.7,0.5c-0.8,0.4-1.6,0.9-2.2,1.6c-0.6,0.7-1.1,1.5-1.5,2.5
		c-0.4,1-0.6,2.1-0.7,3.3h14C89,8,88.9,7,88.6,6z"/>
	<path fill="#565656" stroke="#555556" stroke-width="0.8466" d="M92.9,18.4V0.8h0.7v4.3h0.1c0.2-0.7,0.4-1.3,0.8-1.9
		c0.3-0.6,0.8-1.1,1.4-1.5c0.6-0.4,1.2-0.8,2-1c0.8-0.3,1.7-0.4,2.7-0.3v0.7c-1.2-0.1-2.2,0.1-3.1,0.5c-0.9,0.4-1.6,0.9-2.2,1.6
		c-0.6,0.7-1,1.5-1.3,2.4c-0.3,0.9-0.4,1.8-0.4,2.8v9.9H92.9z"/>
</g>
</svg>
