<?xml version="1.0" encoding="utf-8"?>
<!-- Generator: Adobe Illustrator 18.0.0, SVG Export Plug-In . SVG Version: 6.00 Build 0)  -->
<!DOCTYPE svg PUBLIC "-//W3C//DTD SVG 1.1//EN" "http://www.w3.org/Graphics/SVG/1.1/DTD/svg11.dtd">
<svg version="1.1" id="Layer_1" xmlns="http://www.w3.org/2000/svg" xmlns:xlink="http://www.w3.org/1999/xlink" x="0px" y="0px"
	 width="155px" height="40.8px" viewBox="0 0 155 40.8" enable-background="new 0 0 155 40.8" xml:space="preserve">
<polygon fill-rule="evenodd" clip-rule="evenodd" fill="#999999" points="69.8,5.9 69.8,3.6 59.7,3.6 59.7,5.9 63.5,5.9 63.5,16.7 
	66,16.7 66,5.9 69.8,5.9 "/>
<path fill-rule="evenodd" clip-rule="evenodd" fill="#999999" d="M76.1,9.1v-2C75.8,7,75.6,7,75.3,7c-1,0-1.8,0.4-2.5,1.3v-1h-2.1
	v9.5H73V10C73.8,9.3,74.6,9,75.4,9C75.7,9,75.9,9,76.1,9.1L76.1,9.1L76.1,9.1z"/>
<path fill-rule="evenodd" clip-rule="evenodd" fill="#999999" d="M85.1,16.7v-6.1c0-1.3-0.3-2-0.8-2.6c-0.7-0.7-1.7-1-2.9-1
	c-1,0-2,0.2-3.1,0.6l-0.5,2.3c1-0.6,2-0.9,3.1-0.9c1.3,0,1.9,0.4,2,1.5c-3.6,0.2-5.7,1.6-5.7,3.8c0,1.7,1.2,2.8,3,2.8
	c1.1,0,2-0.4,2.8-1v0.8H85.1L85.1,16.7z M82.8,14.3c-1,0.5-1.5,0.7-2.1,0.7c-0.8,0-1.3-0.5-1.3-1.2c0-1,1.1-1.6,3.4-1.9V14.3
	L82.8,14.3z"/>
<path fill-rule="evenodd" clip-rule="evenodd" fill="#999999" d="M96.2,16.7v-5.8C96.2,8.5,95,7,92.3,7c-0.8,0-1.9,0.3-2.6,1V7.2
	h-2.1v9.5h2.3V9.9c0.7-0.5,1.3-0.8,2.1-0.8c1.3,0,2,0.8,2,2.3v5.4H96.2L96.2,16.7z"/>
<path fill-rule="evenodd" clip-rule="evenodd" fill="#999999" d="M105.8,14.1c0-2.1-1.5-2.7-3.5-3.2c-1.4-0.4-1.8-0.6-1.8-1.1
	c0-0.4,0.3-0.8,1.4-0.8c0.8,0,2,0.4,3,1V7.9c-1.1-0.6-2.1-0.9-3.2-0.9C99.6,7,98,8.1,98,9.8c0,1.9,1.5,2.5,3.6,3.1
	c1,0.3,1.8,0.6,1.8,1.3c0,0.6-0.5,0.8-1.3,0.8c-1.3,0-2.8-0.6-3.8-1.4v2.2c1,0.7,2.3,1.1,3.8,1.1C104.3,16.9,105.8,15.9,105.8,14.1
	L105.8,14.1L105.8,14.1z"/>
<path fill-rule="evenodd" clip-rule="evenodd" fill="#999999" d="M116.7,12c0-2.9-1.8-5-4.6-5c-1,0-1.8,0.4-2.4,1V7.2h-2.1v13.2h2.3
	v-4.1c0.6,0.5,1.3,0.7,2.2,0.7C115,16.9,116.7,14.8,116.7,12L116.7,12L116.7,12z M114.4,12.1c0,1.8-1,2.8-2.6,2.8
	c-0.9,0-1.4-0.2-1.9-0.5V9.7c0.5-0.3,1.1-0.5,1.8-0.5C113.4,9.1,114.4,10.2,114.4,12.1L114.4,12.1L114.4,12.1z"/>
<path fill-rule="evenodd" clip-rule="evenodd" fill="#999999" d="M128.1,12c0-2.7-2.2-5-5-5c-2.7,0-5,2.3-5,5c0,2.8,2.3,5,5,5
	C125.8,16.9,128.1,14.7,128.1,12L128.1,12L128.1,12z M125.8,12c0,1.5-1.1,2.8-2.7,2.8c-1.5,0-2.6-1.2-2.6-2.8c0-1.5,1.2-2.7,2.6-2.7
	C124.6,9.2,125.8,10.5,125.8,12L125.8,12L125.8,12z"/>
<path fill-rule="evenodd" clip-rule="evenodd" fill="#999999" d="M135.5,9.1v-2C135.2,7,135,7,134.7,7c-1,0-1.8,0.4-2.4,1.3v-1h-2.1
	v9.5h2.3V10c0.8-0.7,1.5-0.9,2.4-0.9C135,9,135.3,9,135.5,9.1L135.5,9.1L135.5,9.1z"/>
<path fill-rule="evenodd" clip-rule="evenodd" fill="#999999" d="M143.3,16.6v-2.1c-0.8,0.3-1.4,0.5-1.9,0.5c-1.6,0-1.6-1-1.6-1.5
	V9.1h3.4V7.2h-3.4V4.9h-2.3v2.3H136v1.8h1.6v4.6c0,2.3,1.4,3.3,3.4,3.3C141.9,16.9,142.7,16.8,143.3,16.6L143.3,16.6L143.3,16.6z"/>
<path fill-rule="evenodd" clip-rule="evenodd" fill="#999999" d="M66.7,26.1v-1.9c-0.7-0.2-1.5-0.3-2.3-0.3c-2.3,0-3.4,1.3-3.4,4
	h-1.5v1.8H61v7.7h2.3v-7.7h3.2v-1.8h-3.2c0-1.3,0.3-2.2,1.7-2.2C65.8,25.7,66.3,25.9,66.7,26.1L66.7,26.1L66.7,26.1z"/>
<path fill-rule="evenodd" clip-rule="evenodd" fill="#999999" d="M77.1,32.6c0-2.8-2.2-5-5-5c-2.8,0-5,2.2-5,5c0,2.8,2.2,5,5,5
	C74.9,37.6,77.1,35.4,77.1,32.6L77.1,32.6L77.1,32.6z M74.8,32.6c0,1.5-1.1,2.8-2.6,2.8c-1.5,0-2.7-1.2-2.7-2.8
	c0-1.5,1.2-2.8,2.7-2.8C73.7,29.9,74.8,31.1,74.8,32.6L74.8,32.6L74.8,32.6z"/>
<path fill-rule="evenodd" clip-rule="evenodd" fill="#999999" d="M84.6,29.8v-2c-0.4-0.1-0.5-0.1-0.8-0.1c-1,0-1.8,0.4-2.5,1.3v-1
	h-2.1v9.5h2.3v-6.8c0.9-0.7,1.5-0.9,2.5-0.9C84.1,29.7,84.3,29.7,84.6,29.8L84.6,29.8L84.6,29.8z"/>
<polygon fill-rule="evenodd" clip-rule="evenodd" fill="#999999" points="99.7,37.4 99.7,35 94.2,35 94.2,24.3 91.6,24.3 91.6,37.4 
	99.7,37.4 "/>
<path fill-rule="evenodd" clip-rule="evenodd" fill="#999999" d="M110.7,32.6c0-2.8-2.2-5-5-5c-2.8,0-5,2.2-5,5c0,2.8,2.2,5,5,5
	C108.5,37.6,110.7,35.4,110.7,32.6L110.7,32.6L110.7,32.6z M108.4,32.6c0,1.5-1.2,2.8-2.7,2.8c-1.5,0-2.6-1.2-2.6-2.8
	c0-1.5,1.1-2.8,2.6-2.8C107.2,29.9,108.4,31.1,108.4,32.6L108.4,32.6L108.4,32.6z"/>
<path fill-rule="evenodd" clip-rule="evenodd" fill="#999999" d="M121.3,37.4v-5.9c0-2.4-1.3-3.9-3.8-3.9c-0.8,0-1.9,0.3-2.6,1v-0.8
	h-2.1v9.5h2.3v-6.9c0.7-0.5,1.3-0.8,2.1-0.8c1.3,0,2,0.8,2,2.3v5.4H121.3L121.3,37.4z"/>
<path fill-rule="evenodd" clip-rule="evenodd" fill="#999999" d="M132.4,37.4V24.3h-2.3v4.2c-0.5-0.5-1.4-0.8-2.2-0.8
	c-3,0-4.6,2.2-4.6,5c0,2.9,1.8,5,4.6,5c1,0,1.8-0.4,2.3-1v0.8H132.4L132.4,37.4z M130.1,35c-0.5,0.3-1,0.5-1.8,0.5
	c-1.8,0-2.8-1.2-2.8-3c0-1.7,1-2.8,2.6-2.8c0.9,0,1.4,0.2,1.9,0.5V35L130.1,35z"/>
<path fill-rule="evenodd" clip-rule="evenodd" fill="#999999" d="M144.4,32.6c0-2.8-2.2-5-5-5c-2.8,0-5,2.2-5,5c0,2.8,2.2,5,5,5
	C142.2,37.6,144.4,35.4,144.4,32.6L144.4,32.6L144.4,32.6z M142.1,32.6c0,1.5-1.2,2.8-2.7,2.8c-1.5,0-2.6-1.2-2.6-2.8
	c0-1.5,1.2-2.8,2.6-2.8C140.9,29.9,142.1,31.1,142.1,32.6L142.1,32.6L142.1,32.6z"/>
<path fill-rule="evenodd" clip-rule="evenodd" fill="#999999" d="M155,37.4v-5.9c0-2.4-1.3-3.9-3.8-3.9c-0.8,0-1.9,0.3-2.6,1v-0.8
	h-2.1v9.5h2.3v-6.9c0.7-0.5,1.3-0.8,2.1-0.8c1.3,0,1.9,0.8,1.9,2.3v5.4H155L155,37.4z"/>
<path fill-rule="evenodd" clip-rule="evenodd" fill="#999999" d="M38.2,20.4c0,7.3-5.9,13.2-13.1,13.2c-7.3,0-13.1-5.9-13.1-13.2
	c0-7.2,5.9-13.1,13.1-13.1C32.4,7.2,38.2,13.1,38.2,20.4L38.2,20.4z M25.1,0C13.8,0,4.7,9.1,4.7,20.4c0,11.3,9.1,20.4,20.4,20.4
	c11.3,0,20.4-9.1,20.4-20.4C45.5,9.1,36.4,0,25.1,0L25.1,0z"/>
<polygon fill-rule="evenodd" clip-rule="evenodd" fill="#999999" points="0,16.3 50.2,16.3 50.2,24.5 0,24.5 0,16.3 "/>
</svg>
