<?xml version="1.0" encoding="utf-8"?>
<!-- Generator: Adobe Illustrator 18.1.1, SVG Export Plug-In . SVG Version: 6.00 Build 0)  -->
<!DOCTYPE svg PUBLIC "-//W3C//DTD SVG 1.1//EN" "http://www.w3.org/Graphics/SVG/1.1/DTD/svg11.dtd">
<svg version="1.1" id="Layer_1" xmlns="http://www.w3.org/2000/svg" xmlns:xlink="http://www.w3.org/1999/xlink" x="0px" y="0px"
	 width="180px" height="85.2px" viewBox="230 197.4 180 85.2" enable-background="new 230 197.4 180 85.2" xml:space="preserve">
<g>
	<g>
		<g>
			<polygon fill="#CBCBCB" points="410,197.4 410,282.6 230,282.6 230,197.4 			"/>
			<path fill="#FFFFFF" d="M237.6,206.4L237.6,206.4c1.6,0,3.1-0.1,4.7-0.1c5.7-0.1,11.4-0.3,17.1,0.3c3.2,0.3,3.2,3,3.3,6v0.4
				c0,0.4,0,0.8,0,1.2c0.1,4.2,0.1,7.4-3,8.3c-1.5,0.4-2.9,1-3.9,1.8c-0.9,0.7-1.4,1.6-1.4,2.8c-0.4,7-0.2,14,0,20.9
				c0.1,6.7,0.3,13.4,0,20.1c0,0.3,0,0.6-0.1,0.9c-0.2,2.4-0.9,4-2,5.1c-1.2,1.2-2.6,1.7-4.2,1.6l0,0l0,0l0,0l0,0l0,0l0,0
				c-0.1,0-0.2,0-0.3,0c-2.1-0.2-3.7-1-4.8-2.7c-1-1.5-1.4-3.6-1.4-6.6c0-5.3,0-9.1-0.1-12.9c-0.1-8.6-0.1-17.2,0.1-25.8
				c0-0.8-0.1-1.4-0.6-2c-0.7-0.8-2.1-1.6-4.7-2.5c-1.8-0.6-2.6-2.2-2.9-4.2c-0.2-1.6-0.1-3.5,0-5.5v-0.2
				C233.6,209.7,233.9,206.4,237.6,206.4L237.6,206.4z M237.7,209.7L237.7,209.7c-0.6,0-0.9,1.9-1,3.8v0.2c-0.1,1.7-0.2,3.5-0.1,4.7
				c0.1,0.9,0.4,1.4,0.7,1.6c3.2,1.2,5,2.3,6,3.5c1.2,1.4,1.4,2.8,1.4,4.3c-0.1,8.6-0.1,17.1-0.1,25.7c0,4.8,0.1,9.6,0.1,12.9
				c0,2.2,0.3,3.7,0.9,4.7c0.5,0.7,1.3,1.1,2.3,1.2c0.1,0,0.1,0,0.1,0l0,0c0.6,0,1.2-0.1,1.7-0.6c0.5-0.6,0.9-1.6,1.1-3.1
				c0-0.2,0-0.4,0.1-0.6c0.3-6.6,0.1-13.2,0-19.9c-0.1-7.1-0.4-14.1,0-21.2c0.1-2.3,1.1-4,2.7-5.3c1.4-1.2,3.2-1.9,5.1-2.4
				c0.6-0.2,0.6-2.2,0.6-5c0-0.4,0-0.7,0-1.2l0,0l0,0v-0.4c0-1.4,0-2.7-0.3-2.7c-5.5-0.6-11.2-0.5-16.8-0.4
				C240.7,209.6,239.2,209.7,237.7,209.7L237.7,209.7z"/>
			<path fill="#FFFFFF" d="M260.9,224.4L260.9,224.4L260.9,224.4c1.7,0,3.2,0.7,4.4,1.9c1.2,1.2,1.8,2.7,1.8,4.4l0,0l0,0v38.2l0,0
				l0,0c0,1.7-0.7,3.3-1.8,4.4c-1.2,1.2-2.7,1.8-4.4,1.8l0,0l0,0l0,0l0,0c-1.7,0-3.2-0.7-4.4-1.9c-1.2-1.2-1.8-2.7-1.8-4.4l0,0l0,0
				v-38.2l0,0l0,0c0-1.7,0.7-3.3,1.8-4.4C257.6,225.2,259.2,224.5,260.9,224.4L260.9,224.4L260.9,224.4L260.9,224.4z M260.9,227.8
				L260.9,227.8L260.9,227.8L260.9,227.8L260.9,227.8c-0.8,0-1.5,0.4-2,0.9c-0.5,0.5-0.9,1.2-0.9,2l0,0l0,0v38.2l0,0l0,0
				c0,0.8,0.4,1.5,0.9,2s1.2,0.9,2,0.9l0,0l0,0l0,0l0,0c0.8,0,1.5-0.4,2-0.9s0.9-1.2,0.9-2l0,0l0,0v-38.2l0,0l0,0
				c0-0.8-0.4-1.5-0.9-2C262.4,228.2,261.7,227.8,260.9,227.8L260.9,227.8z"/>
			<path fill="#FFFFFF" d="M267.7,269.8l0.2-39c0-1.5,0.3-2.8,0.7-3.7c0.6-1.2,1.4-1.9,2.5-2.2c1-0.3,2.1-0.2,3.2,0.1
				c1.2,0.4,2.4,1.2,3.7,2.2c2.1-2,4.2-3,6.4-2.9c2.1,0.1,4.1,1.3,6,3.6c1.1-0.9,2.2-1.7,3.3-2.3c1.7-0.9,3.4-1.2,5.2-0.7l0,0
				c0.5,0.1,1,0.3,1.5,0.5s0.9,0.5,1.4,0.8c2.3,1.7,4.2,4.5,4.2,8.8v33.5c0,3.8-1.7,6.3-3.7,7.4c-0.9,0.4-1.7,0.7-2.7,0.7
				c-0.9,0-1.8-0.2-2.7-0.6c-1.9-1-3.5-3.2-3.5-6.7l0,0v-25.6c-0.4-0.9-0.7-0.9-1,0.3l0.4,25.5c0.1,3.4-1.7,5.6-3.8,6.6
				c-0.9,0.4-1.7,0.6-2.7,0.6c-0.9,0-1.8-0.1-2.7-0.6c-2.1-0.9-3.7-3-3.7-6.3l0,0v-26c-0.2-0.6-0.4-0.6-0.6,0.1l-0.2,26.3
				c0,2.9-1.6,4.8-3.5,5.6c-0.7,0.4-1.6,0.5-2.4,0.5c-0.9,0-1.7-0.2-2.4-0.5C269.2,274.8,267.7,272.9,267.7,269.8L267.7,269.8z
				 M271.3,230.7l-0.2,39.1c0,1.6,0.6,2.5,1.6,3c0.4,0.1,0.7,0.2,1.1,0.2c0.4,0,0.7-0.1,1.1-0.2c0.9-0.4,1.5-1.2,1.5-2.6l0.2-26.4
				c0-0.1,0-0.3,0.1-0.4c1.9-8.3,4.3-8.4,7.1-0.4l0,0c0.1,0.1,0.1,0.4,0.1,0.6v26.3l0,0c0,1.7,0.7,2.8,1.7,3.2
				c0.4,0.1,0.9,0.3,1.3,0.3c0.4,0,0.9-0.1,1.3-0.3c1.1-0.5,1.9-1.7,1.9-3.5l-0.4-25.6c0-0.1,0-0.4,0.1-0.5c2-8.9,4.5-9.1,7.5-0.7
				c0.1,0.2,0.1,0.4,0.1,0.7v26l0,0c0,2,0.7,3.2,1.7,3.7c0.4,0.1,0.7,0.3,1.1,0.3c0.4,0,0.7-0.1,1.1-0.3c1.1-0.6,1.9-2.1,1.9-4.5
				v-33.6c0-3-1.2-5-2.8-6c-0.3-0.2-0.6-0.4-0.9-0.5c-0.3-0.1-0.6-0.2-0.9-0.3l0,0c-1-0.2-2-0.1-3,0.4c-1.2,0.6-2.4,1.6-3.8,3l0,0
				c-0.1,0.1-0.1,0.1-0.3,0.2c-0.8,0.5-1.8,0.3-2.3-0.5c-1.6-2.4-3.1-3.6-4.5-3.7c-1.4-0.1-3.1,0.9-4.9,3l0,0l0,0
				c-0.6,0.6-1.7,0.7-2.4,0.1c-1.4-1.4-2.7-2.2-3.8-2.6c-0.5-0.1-0.9-0.2-1.2-0.1c-0.2,0.1-0.4,0.2-0.5,0.5
				C271.4,229.1,271.3,229.8,271.3,230.7L271.3,230.7z"/>
			<path fill="#FFFFFF" d="M313.8,255L313.8,255c0-0.1,0.1-0.1,0.1-0.2c0.1-0.1,0.1-0.4,0.2-0.5c0.1-0.2,0.2-0.4,0.4-0.6
				c0.6-1,1.8-1.7,3.2-1.7l7.3-0.2l0,0l0,0l0,0l0,0c0.1,0,0.1-0.1,0.1-0.1c0.6-0.6,0.9-1.8,1-2.7c0.1-1.7,0.1-4.2-0.1-7
				c-0.4-3.3-1.2-7-2.5-9.8c-1.2-2.5-2.8-4.3-5-4.5c-0.3,0-0.6,0-1,0l0,0l0,0c-1.2,0.1-2.2,0.5-3,1.1c-0.9,0.6-1.8,1.4-2.5,2.3
				c-4.2,5.3-5.5,15.1-5.5,22l0,0l0,0l0,0c0,1.2,0.1,2.4,0.2,3.7c0.1,1.3,0.4,2.5,0.7,3.7c1.5,6.1,4.9,11.6,10.2,12
				c0.5,0,1,0,1.4-0.1c1.4-0.3,2.7-1.2,3.7-2.4c1-1.3,1.7-2.9,1.9-4.8c0.1-0.9,0-1.8-0.2-2.8c-0.3-1.3-0.5-1.7-0.7-1.6
				c-0.6,0.2-1.5,1.2-1.9,1.7c-1.1,1.3-2.2,2-3.2,2.2c-1,0.2-1.9,0-2.7-0.6c-0.6-0.5-1.2-1.2-1.5-2.1
				C313.4,260.4,313.2,257.8,313.8,255L313.8,255L313.8,255L313.8,255z M317,255.8L317,255.8L317,255.8c-0.5,2.1-0.4,3.8,0.1,5
				c0.1,0.3,0.3,0.5,0.4,0.6h0.1c0.3-0.1,0.7-0.4,1.3-1.1c0.7-0.9,2-2.3,3.5-2.8c2-0.6,4,0.1,4.9,4c0.3,1.3,0.4,2.6,0.3,3.7
				c-0.1,2.6-1.2,4.9-2.6,6.7c-1.4,1.8-3.5,3.1-5.5,3.5c-0.8,0.2-1.7,0.3-2.4,0.2c-7-0.5-11.3-7.1-13.2-14.5
				c-0.4-1.4-0.6-2.8-0.8-4.2c-0.1-1.4-0.3-2.7-0.3-4.1l0,0l0,0l0,0c0-7.5,1.5-18.2,6.3-24.1c1-1.2,2.1-2.3,3.4-3.1s2.8-1.4,4.4-1.5
				l0,0l0,0l0,0c0.6-0.1,1.2-0.1,1.7,0c3.5,0.4,5.9,2.9,7.6,6.4c1.5,3.2,2.4,7.2,2.8,10.9c0.4,3,0.4,5.7,0.1,7.7
				c-0.1,1.5-0.8,3.6-1.9,4.8c-0.3,0.3-0.6,0.6-1,0.7c-0.4,0.2-0.9,0.3-1.3,0.4l0,0l0,0H325l0,0l0,0l-7.3,0.2
				c-0.2,0-0.4,0.1-0.5,0.3C317.2,255.8,317.1,255.8,317,255.8C317.1,255.7,317.1,255.8,317,255.8L317,255.8L317,255.8z"/>
			<path fill="#FFFFFF" d="M316.5,242.2c0,0.1,0.1-0.1,0.2-0.1c0.1,0.1,0.4,0.1,0.6,0.1c0.1,0,0.1,0,0.1,0c0.1-0.6,0-1.4-0.1-2.2
				c-0.1-0.5-0.2-0.9-0.4-1.2c-0.1,0.2-0.3,0.5-0.4,0.9c-0.2,0.6-0.2,1.4-0.1,2C316.4,241.9,316.5,242,316.5,242.2L316.5,242.2z
				 M316,245.4c-1.1-0.2-2-0.9-2.4-1.8c-0.2-0.4-0.4-0.9-0.4-1.4c-0.2-1.2-0.1-2.5,0.2-3.7c0.4-1.3,1.2-2.5,2.4-3l0,0l0,0
				c0.3-0.1,0.6-0.2,0.9-0.3c0.4-0.1,0.8-0.1,1.2,0c0.9,0.2,1.6,0.9,2.1,1.7c0.4,0.6,0.6,1.4,0.8,2.3c0.3,1.4,0.3,3,0.1,4
				c-0.2,0.9-0.8,1.5-1.5,1.9c-0.4,0.2-1,0.4-1.5,0.4C317,245.5,316.5,245.5,316,245.4L316,245.4z"/>
			<path fill="#FFFFFF" d="M346.9,211.5c-0.1,0-0.1,0-0.3,0c-3.5,0.2-6.3,3.2-8.4,8.1c-2.2,5.4-3.4,13.1-3.3,22.1
				c0,1.4,0.1,2.9,0.1,4.4c0.3,5.4,0.9,12.5,3,17.9c1.8,5,4.7,8.6,9.4,8c0.1,0,0.1,0,0.1,0l0,0l0,0c1.2-0.1,2.3-0.6,3.3-1.2l0,0l0,0
				c1-0.6,1.9-1.5,2.7-2.6c4.5-5.8,5.9-16.3,6-23.8c0-0.7,0-1.4,0-2.2c-0.1-6.6-0.7-14.5-2.7-20.8c-1.9-5.8-5-10-9.9-10.1h-0.1
				V211.5z M346.4,208.2c0.1,0,0.3,0,0.4,0c0.1,0,0.1,0,0.2,0c6.7,0.1,10.7,5.3,13,12.4c2.2,6.6,2.8,14.9,2.9,21.8
				c0,0.7,0,1.5,0,2.2c-0.1,8-1.7,19.4-6.7,25.8c-1.1,1.4-2.2,2.5-3.6,3.4l0,0c-1.4,0.9-3,1.5-4.7,1.7l0,0l0,0h-0.1
				c-0.1,0-0.1,0-0.1,0c-6.7,0.8-10.7-3.8-13-10.2c-2.1-5.9-2.8-13.2-3.2-18.9c-0.1-1.5-0.1-3-0.1-4.5c-0.1-9.5,1.2-17.6,3.5-23.4
				C337.7,212.1,341.6,208.4,346.4,208.2L346.4,208.2z"/>
			<path fill="#FFFFFF" d="M346.9,221.5c0.1,0,0.1,0,0.1,0c0.1,0,0.3,0,0.4,0l0,0c2.2,0.2,3.4,3,4,6.7c0.5,3.1,0.7,7.1,0.9,10.8
				c0,1.4,0.1,2.7,0,4c0,4.5-0.4,10.8-1.6,14.5c-0.3,0.9-0.6,1.6-0.9,2.2c-0.4,0.7-1,1.3-1.7,1.6c-0.1,0.1-0.3,0.1-0.4,0.1l0,0l0,0
				c-2.7,0.8-4.2-2.2-4.8-6.6c-0.5-3.3-0.7-7.6-0.8-10.7c-0.2-8.9,0.4-15.9,1.7-19.4c0.3-0.8,0.6-1.4,1-1.9l0,0
				C345.4,222,346.1,221.6,346.9,221.5L346.9,221.5z M347.3,225.1c-0.1,0.2-0.2,0.4-0.3,0.7c-1.1,3.1-1.7,9.8-1.5,18.2
				c0.1,3.1,0.2,7.1,0.7,10.3c0.3,2,0.6,3.6,0.6,3.8c0.1-0.1,0.1-0.1,0.1-0.2c0.2-0.4,0.4-0.8,0.6-1.4c1.1-3.4,1.4-9.3,1.4-13.5
				c0-1.2,0-2.5,0-4c-0.1-3.5-0.3-7.3-0.8-10.3C347.9,227,347.6,225.6,347.3,225.1L347.3,225.1z"/>
			<path fill="#FFFFFF" d="M363.6,229.9l0.8,33c0.1,3.2,0.6,5.3,1.6,6.8c0.6,1.1,1.5,1.7,2.4,1.9c0.9,0.3,1.9,0.2,3-0.1
				c1.4-0.4,2.6-1.2,3.4-2.2c0.6-0.7,1.7-0.8,2.4-0.2c0.2,0.1,0.4,0.4,0.4,0.6c0.5,0.8,1.4,1.5,2.4,1.9c0.5,0.1,1,0.2,1.5,0.1
				c0.4-0.1,0.7-0.2,0.9-0.5c0.4-0.5,0.7-1.4,0.7-2.8l-0.2-38.7c0-1.1-0.6-1.8-1.4-2.2c-0.4-0.1-0.7-0.2-1.2-0.2l0,0
				c-0.4,0-0.8,0.1-1.2,0.2c-0.9,0.4-1.7,1.4-1.7,2.9v25.1c0,2.5-0.8,4.3-1.8,5.2c-0.5,0.5-1.2,0.7-1.8,0.8h-0.1
				c-0.6,0-1.3-0.2-1.9-0.6c-0.9-0.8-1.6-2.3-1.6-4.7l-0.2-26.3c0-1.4-0.9-2.2-1.9-2.6c-0.5-0.1-1-0.3-1.5-0.2c-0.5,0-1,0.1-1.4,0.3
				l0,0C364.3,227.9,363.6,228.7,363.6,229.9L363.6,229.9z M361,263l-0.8-33c-0.1-2.9,1.6-4.7,3.8-5.5l0,0l0,0
				c0.8-0.3,1.7-0.5,2.6-0.5c0.9,0,1.8,0.1,2.7,0.4c2.3,0.8,4.1,2.7,4.1,5.8l0.2,26.3c0,0.6,0.1,1.2,0.1,1.5
				c0.1-0.4,0.3-1.2,0.3-2.1v-25.1c0-3.1,1.7-5,3.7-6c0.8-0.3,1.6-0.5,2.4-0.5l0,0c0.9,0,1.7,0.1,2.4,0.4c1.9,0.8,3.5,2.5,3.5,5.3
				l0.2,38.7c0,2.2-0.6,3.9-1.5,5c-0.8,0.9-1.8,1.4-3,1.7c-1,0.1-2.1,0.1-3.1-0.3c-1.1-0.4-2.2-1-3-1.9c-1,0.8-2.2,1.4-3.5,1.8
				c-1.6,0.4-3.2,0.6-4.8,0.1c-1.7-0.5-3.2-1.6-4.3-3.4C361.9,269.7,361.1,266.9,361,263L361,263z"/>
			<path fill="#FFFFFF" d="M388.8,214.5c0.1-2.4,1.7-4,3.7-4.6c0.1,0,0.1,0,0.1-0.1c0.7-0.2,1.4-0.3,2.2-0.3c0.8,0,1.6,0.1,2.4,0.4
				c2,0.6,3.7,2.2,3.7,4.7l0.2,10.8l0.1-0.2v-0.1c1.8,0.5,4.5,1.3,4.7,5.9c0.2,5.8-1.7,6.6-3.5,7.3c-0.4,0.2-0.8,0.4-0.9,1.3
				l-0.2,18.9c0,2.1,1.6,2.9,2.7,3.5c0.8,0.4,1.4,0.7,1.8,1.4c0.6,0.9,1,1.9,1.2,2.9c0.2,1.4,0,2.9-0.6,4.2
				c-0.6,1.3-1.5,2.4-2.7,3.3c-0.9,0.6-2.1,1.2-3.3,1.4c-0.4,0.1-0.8,0.1-1.2,0.1c-2.5,0-4.9-1.2-6.8-3.1c-1.8-1.8-3.1-4.3-3.5-7
				c-0.1-0.6-0.1-1.2-0.1-1.8l0,0v-23.5l0,0c0-0.4-0.6-0.6-1.3-0.9c-1.1-0.5-2.2-0.9-2.7-2.2l0,0l0,0v-0.1c0,0,0-0.1-0.1-0.1
				c-0.1-0.4-0.3-0.6-0.4-1s-0.1-0.7-0.2-1.1c-0.3-1.9-0.1-3.9,0.6-5.6l0,0l0,0v-0.1c0,0,0-0.1,0.1-0.1l0,0c0.5-1.1,1.6-1.7,2.7-2.4
				c0.6-0.4,1.3-0.6,1.3-0.6L388.8,214.5L388.8,214.5L388.8,214.5z M393.4,213.1c-0.8,0.3-1.4,0.8-1.4,1.5l0,0l-0.2,11.2
				c0,1.8-1.5,2.7-3,3.5c-0.6,0.4-1.2,0.7-1.3,0.9l0,0l0,0c-0.5,1.2-0.6,2.6-0.4,3.9c0,0.2,0.1,0.4,0.1,0.7c0.1,0.2,0.1,0.4,0.2,0.6
				v0.1v0.1l0,0c0.1,0.1,0.5,0.2,1,0.4c1.6,0.7,3.3,1.4,3.3,4l0,0v23.5l0,0c0,0.4,0,0.9,0.1,1.3c0.3,1.9,1.3,3.8,2.6,5.2
				c1.3,1.3,2.8,2.1,4.4,2.1c0.2,0,0.5,0,0.6-0.1c0.7-0.1,1.4-0.4,1.9-0.8c0.7-0.5,1.3-1.2,1.6-1.9c0.4-0.7,0.4-1.5,0.4-2.3
				c-0.1-0.5-0.3-1-0.6-1.5c0-0.1-0.3-0.1-0.6-0.3c-1.8-0.9-4.5-2.4-4.5-6.5l0.2-18.9c0-3.2,1.4-3.7,2.9-4.3
				c0.8-0.4,1.7-0.7,1.5-4.2c-0.1-2.2-1.4-2.5-2.3-2.8c-1.4-0.4-2.4-0.7-2.4-2.4l-0.2-11.2c0-0.8-0.6-1.3-1.4-1.5
				c-0.4-0.1-0.9-0.2-1.3-0.2S393.9,213,393.4,213.1C393.5,213.1,393.4,213.1,393.4,213.1L393.4,213.1z M400.9,225.4v0.5
				c0,0.7,0-0.5,0.1-0.7L400.9,225.4L400.9,225.4z M387.6,230.2C387.5,230.2,387.6,230.2,387.6,230.2L387.6,230.2L387.6,230.2z"/>
		</g>
	</g>
</g>
</svg>
