<?xml version="1.0" encoding="utf-8"?>
<!-- Generator: Adobe Illustrator 18.1.1, SVG Export Plug-In . SVG Version: 6.00 Build 0)  -->
<!DOCTYPE svg PUBLIC "-//W3C//DTD SVG 1.1//EN" "http://www.w3.org/Graphics/SVG/1.1/DTD/svg11.dtd">
<svg version="1.1" id="Layer_1" xmlns="http://www.w3.org/2000/svg" xmlns:xlink="http://www.w3.org/1999/xlink" x="0px" y="0px"
	 width="130px" height="61.6px" viewBox="255 209.2 130 61.6" enable-background="new 255 209.2 130 61.6" xml:space="preserve">
<g>
	<g>
		<g>
			<polygon fill="#BBBBBB" points="385,209.2 385,270.8 255,270.8 255,209.2 			"/>
			<path fill="#FFFFFF" d="M260.5,215.7L260.5,215.7c1.1,0,2.2-0.1,3.4-0.1c4.1-0.1,8.2-0.2,12.3,0.2c2.3,0.2,2.3,2.1,2.4,4.4v0.3
				c0,0.3,0,0.6,0,0.8c0.1,3,0.1,5.4-2.2,6c-1.1,0.3-2.1,0.7-2.8,1.3c-0.6,0.5-1,1.1-1,2c-0.3,5-0.2,10.1,0,15.1
				c0.1,4.8,0.2,9.7,0,14.5c0,0.2,0,0.4-0.1,0.6c-0.2,1.7-0.7,2.9-1.5,3.7c-0.8,0.9-1.9,1.2-3,1.1l0,0l0,0l0,0l0,0l0,0l0,0
				c-0.1,0-0.2,0-0.2,0c-1.5-0.2-2.7-0.7-3.4-1.9c-0.7-1.1-1-2.6-1-4.7c0-3.8,0-6.6-0.1-9.3c-0.1-6.2-0.1-12.4,0.1-18.6
				c0-0.6-0.1-1-0.4-1.5c-0.5-0.6-1.5-1.1-3.4-1.8c-1.3-0.5-1.9-1.6-2.1-3c-0.2-1.1-0.1-2.5,0-4v-0.2
				C257.6,218.1,257.8,215.7,260.5,215.7L260.5,215.7z M260.6,218.1L260.6,218.1c-0.5,0-0.6,1.4-0.7,2.8v0.2
				c-0.1,1.2-0.2,2.5-0.1,3.4c0.1,0.6,0.3,1,0.5,1.1c2.3,0.8,3.6,1.7,4.4,2.5c0.9,1,1,2,1,3.1c-0.1,6.2-0.1,12.4-0.1,18.6
				c0,3.4,0.1,6.9,0.1,9.3c0,1.6,0.2,2.7,0.7,3.4c0.4,0.5,0.9,0.8,1.7,0.9c0.1,0,0.1,0,0.1,0l0,0c0.5,0,0.9-0.1,1.2-0.4
				c0.4-0.4,0.7-1.1,0.8-2.2c0-0.2,0-0.3,0.1-0.5c0.2-4.8,0.1-9.6,0-14.4c-0.1-5.1-0.3-10.2,0-15.3c0.1-1.7,0.8-2.9,1.9-3.8
				c1-0.8,2.3-1.4,3.7-1.8c0.5-0.2,0.5-1.6,0.4-3.6c0-0.3,0-0.5,0-0.8l0,0l0,0v-0.3c0-1,0-2-0.2-2c-4-0.5-8.1-0.4-12.1-0.3
				C262.7,218.1,261.7,218.1,260.6,218.1L260.6,218.1z"/>
			<path fill="#FFFFFF" d="M277.3,228.8L277.3,228.8L277.3,228.8c1.2,0,2.3,0.5,3.2,1.4c0.8,0.8,1.3,1.9,1.3,3.2l0,0l0,0v27.6l0,0
				l0,0c0,1.2-0.5,2.4-1.3,3.2c-0.8,0.8-1.9,1.3-3.2,1.3l0,0l0,0l0,0l0,0c-1.2,0-2.3-0.5-3.2-1.4c-0.8-0.8-1.3-1.9-1.3-3.2l0,0l0,0
				v-27.6l0,0l0,0c0-1.2,0.5-2.4,1.3-3.2C275,229.3,276.1,228.8,277.3,228.8L277.3,228.8L277.3,228.8L277.3,228.8z M277.3,231.2
				L277.3,231.2L277.3,231.2L277.3,231.2L277.3,231.2c-0.6,0-1.1,0.3-1.5,0.6c-0.4,0.4-0.6,0.9-0.6,1.5l0,0l0,0v27.6l0,0l0,0
				c0,0.6,0.3,1.1,0.6,1.5c0.4,0.4,0.9,0.6,1.5,0.6l0,0l0,0l0,0l0,0c0.6,0,1.1-0.3,1.5-0.6c0.4-0.4,0.6-0.9,0.6-1.5l0,0l0,0v-27.6
				l0,0l0,0c0-0.6-0.3-1.1-0.6-1.5C278.4,231.5,277.9,231.2,277.3,231.2L277.3,231.2z"/>
			<path fill="#FFFFFF" d="M282.2,261.5l0.2-28.2c0-1.1,0.2-2,0.5-2.7c0.4-0.8,1-1.4,1.8-1.6c0.7-0.2,1.5-0.2,2.3,0.1
				c0.8,0.3,1.8,0.8,2.7,1.6c1.5-1.5,3.1-2.2,4.6-2.1c1.5,0.1,3,0.9,4.3,2.6c0.8-0.7,1.6-1.2,2.4-1.7c1.2-0.6,2.4-0.8,3.7-0.5l0,0
				c0.4,0.1,0.7,0.2,1.1,0.4c0.4,0.2,0.7,0.4,1,0.6c1.7,1.2,3.1,3.3,3.1,6.3v24.2c0,2.8-1.2,4.5-2.7,5.4c-0.6,0.3-1.2,0.5-1.9,0.5
				s-1.3-0.2-1.9-0.5c-1.4-0.7-2.5-2.3-2.5-4.8l0,0v-18.5c-0.3-0.7-0.5-0.6-0.7,0.2l0.3,18.4c0.1,2.4-1.2,4.1-2.8,4.8
				c-0.6,0.3-1.2,0.4-1.9,0.5c-0.7,0-1.3-0.1-1.9-0.4c-1.5-0.7-2.7-2.2-2.7-4.5l0,0v-18.8c-0.2-0.4-0.3-0.4-0.5,0.1l-0.2,19
				c0,2.1-1.1,3.5-2.5,4.1c-0.5,0.3-1.1,0.4-1.7,0.4c-0.6,0-1.2-0.2-1.8-0.4C283.3,265.2,282.2,263.8,282.2,261.5L282.2,261.5z
				 M284.8,233.3l-0.2,28.2c0,1.1,0.5,1.8,1.1,2.1c0.3,0.1,0.5,0.2,0.8,0.2s0.5-0.1,0.8-0.2c0.6-0.3,1.1-0.9,1.1-1.9l0.2-19.1
				c0-0.1,0-0.2,0.1-0.3c1.4-6,3.1-6.1,5.1-0.3l0,0c0.1,0.1,0.1,0.3,0.1,0.4v19l0,0c0,1.2,0.5,2,1.2,2.3c0.3,0.1,0.6,0.2,0.9,0.2
				c0.3,0,0.6-0.1,0.9-0.2c0.8-0.4,1.4-1.2,1.4-2.5l-0.3-18.5c0-0.1,0-0.3,0.1-0.4c1.5-6.4,3.3-6.6,5.4-0.5c0.1,0.2,0.1,0.3,0.1,0.5
				v18.8l0,0c0,1.5,0.5,2.3,1.2,2.7c0.3,0.1,0.5,0.2,0.8,0.2s0.5-0.1,0.8-0.2c0.8-0.4,1.4-1.5,1.4-3.2v-24.2c0-2.1-0.9-3.6-2-4.4
				c-0.2-0.2-0.4-0.3-0.6-0.4c-0.2-0.1-0.4-0.2-0.6-0.2l0,0c-0.7-0.2-1.5-0.1-2.2,0.3c-0.8,0.4-1.8,1.1-2.8,2.2l0,0
				c-0.1,0.1-0.1,0.1-0.2,0.2c-0.6,0.4-1.3,0.2-1.7-0.4c-1.1-1.8-2.2-2.6-3.3-2.7c-1-0.1-2.2,0.7-3.5,2.1l0,0l0,0
				c-0.5,0.5-1.2,0.5-1.7,0.1c-1-1-2-1.6-2.8-1.9c-0.4-0.1-0.7-0.2-0.9-0.1c-0.2,0.1-0.3,0.2-0.4,0.4
				C284.9,232.1,284.8,232.6,284.8,233.3L284.8,233.3z"/>
			<path fill="#FFFFFF" d="M315.5,250.9L315.5,250.9c0-0.1,0.1-0.1,0.1-0.2c0.1-0.1,0.1-0.3,0.2-0.4c0.1-0.2,0.2-0.3,0.3-0.5
				c0.5-0.7,1.3-1.2,2.3-1.2l5.3-0.2l0,0l0,0l0,0l0,0c0.1,0,0.1-0.1,0.1-0.1c0.4-0.4,0.7-1.3,0.7-2c0.1-1.2,0.1-3.1-0.1-5
				c-0.3-2.4-0.8-5-1.8-7.1c-0.9-1.8-2-3.1-3.6-3.3c-0.2,0-0.5,0-0.7,0l0,0l0,0c-0.8,0.1-1.6,0.4-2.2,0.8c-0.7,0.4-1.3,1-1.8,1.7
				c-3,3.8-4,10.9-4,15.9l0,0l0,0l0,0c0,0.8,0.1,1.8,0.2,2.7s0.3,1.8,0.5,2.7c1.1,4.4,3.5,8.4,7.3,8.6c0.4,0,0.7,0,1-0.1
				c1-0.2,1.9-0.8,2.7-1.7c0.7-0.9,1.2-2.1,1.4-3.4c0.1-0.6,0-1.3-0.2-2c-0.2-0.9-0.4-1.2-0.5-1.1c-0.5,0.2-1.1,0.8-1.4,1.2
				c-0.8,0.9-1.6,1.5-2.3,1.6c-0.7,0.2-1.4,0-1.9-0.4c-0.5-0.4-0.8-0.8-1.1-1.5C315.2,254.7,315.1,252.8,315.5,250.9L315.5,250.9
				L315.5,250.9L315.5,250.9z M317.9,251.4L317.9,251.4L317.9,251.4c-0.4,1.5-0.3,2.8,0.1,3.6c0.1,0.2,0.2,0.4,0.3,0.5h0.1
				c0.2-0.1,0.5-0.3,0.9-0.8c0.5-0.6,1.5-1.7,2.5-2c1.5-0.5,2.9,0.1,3.5,2.9c0.2,0.9,0.3,1.9,0.2,2.7c-0.1,1.9-0.8,3.5-1.9,4.8
				c-1,1.3-2.5,2.2-4,2.5c-0.6,0.2-1.2,0.2-1.8,0.2c-5-0.4-8.2-5.1-9.5-10.5c-0.3-1-0.4-2-0.6-3c-0.1-1-0.2-2-0.2-3l0,0l0,0l0,0
				c0-5.4,1.1-13.2,4.6-17.4c0.7-0.9,1.5-1.7,2.4-2.2c0.9-0.6,2-1,3.2-1.1l0,0l0,0l0,0c0.4-0.1,0.8-0.1,1.2,0
				c2.5,0.3,4.3,2.1,5.5,4.6c1.1,2.3,1.8,5.2,2,7.9c0.3,2.1,0.3,4.1,0.1,5.6c-0.1,1.1-0.6,2.6-1.4,3.5c-0.2,0.2-0.5,0.4-0.7,0.5
				c-0.3,0.2-0.6,0.2-0.9,0.3l0,0l0,0h-0.1l0,0l0,0l-5.3,0.2c-0.2,0-0.3,0.1-0.4,0.2C318,251.4,317.9,251.4,317.9,251.4
				C317.9,251.3,317.9,251.4,317.9,251.4L317.9,251.4L317.9,251.4z"/>
			<path fill="#FFFFFF" d="M317.5,241.6c0,0.1,0.1-0.1,0.2-0.1c0.1,0.1,0.3,0.1,0.4,0.1c0.1,0,0.1,0,0.1,0c0.1-0.4,0-1-0.1-1.6
				c-0.1-0.4-0.2-0.7-0.3-0.9c-0.1,0.2-0.2,0.4-0.3,0.6c-0.2,0.5-0.2,1-0.1,1.5C317.4,241.4,317.5,241.5,317.5,241.6L317.5,241.6z
				 M317.1,243.9c-0.8-0.2-1.5-0.6-1.8-1.3c-0.2-0.3-0.3-0.6-0.3-1c-0.2-0.8-0.1-1.8,0.2-2.7c0.3-0.9,0.8-1.8,1.7-2.2l0,0l0,0
				c0.2-0.1,0.4-0.2,0.6-0.2c0.3-0.1,0.6-0.1,0.8,0c0.7,0.2,1.1,0.6,1.5,1.2c0.3,0.5,0.5,1,0.6,1.7c0.2,1,0.2,2.1,0.1,2.9
				c-0.2,0.6-0.6,1.1-1.1,1.4c-0.3,0.2-0.7,0.3-1.1,0.3C317.9,244,317.5,244,317.1,243.9L317.1,243.9z"/>
			<path fill="#FFFFFF" d="M339.4,219.4c-0.1,0-0.1,0-0.2,0c-2.5,0.2-4.6,2.3-6,5.9c-1.6,3.9-2.4,9.5-2.4,16c0,1,0.1,2.1,0.1,3.2
				c0.2,3.9,0.7,9,2.1,12.9c1.3,3.6,3.4,6.2,6.8,5.8c0.1,0,0.1,0,0.1,0l0,0l0,0c0.9-0.1,1.7-0.4,2.4-0.9l0,0l0,0
				c0.7-0.5,1.4-1.1,2-1.9c3.2-4.2,4.3-11.8,4.3-17.2c0-0.5,0-1,0-1.6c-0.1-4.8-0.5-10.5-2-15c-1.4-4.2-3.6-7.2-7.1-7.3h-0.1V219.4
				L339.4,219.4z M339.1,217c0.1,0,0.2,0,0.3,0c0.1,0,0.1,0,0.2,0c4.8,0.1,7.7,3.8,9.4,8.9c1.6,4.8,2,10.8,2.1,15.8
				c0,0.5,0,1.1,0,1.6c-0.1,5.8-1.2,14-4.8,18.7c-0.8,1-1.6,1.8-2.6,2.4l0,0c-1,0.6-2.1,1.1-3.4,1.2l0,0l0,0h-0.1
				c-0.1,0-0.1,0-0.1,0c-4.8,0.6-7.7-2.8-9.4-7.4c-1.5-4.3-2-9.6-2.3-13.6c-0.1-1.1-0.1-2.2-0.1-3.3c-0.1-6.9,0.8-12.7,2.5-16.9
				C332.8,219.9,335.6,217.2,339.1,217L339.1,217z"/>
			<path fill="#FFFFFF" d="M339.4,226.6c0.1,0,0.1,0,0.1,0c0.1,0,0.2,0,0.3,0l0,0c1.6,0.2,2.4,2.1,2.9,4.8c0.4,2.2,0.5,5.1,0.6,7.8
				c0,1,0.1,2,0,2.9c0,3.2-0.3,7.8-1.1,10.5c-0.2,0.6-0.4,1.1-0.7,1.6c-0.3,0.5-0.7,0.9-1.2,1.1c-0.1,0.1-0.2,0.1-0.3,0.1l0,0l0,0
				c-2,0.6-3-1.6-3.5-4.7c-0.4-2.4-0.5-5.5-0.6-7.7c-0.2-6.4,0.3-11.5,1.2-14c0.2-0.6,0.5-1,0.7-1.4l0,0
				C338.4,227,338.9,226.7,339.4,226.6L339.4,226.6z M339.7,229.2c-0.1,0.2-0.2,0.3-0.2,0.5c-0.8,2.2-1.2,7.1-1.1,13.2
				c0.1,2.2,0.2,5.1,0.5,7.4c0.2,1.5,0.4,2.6,0.5,2.8c0.1-0.1,0.1-0.1,0.1-0.2c0.2-0.3,0.3-0.6,0.4-1c0.8-2.4,1-6.7,1-9.7
				c0-0.9,0-1.8,0-2.9c-0.1-2.5-0.2-5.3-0.6-7.4C340.1,230.6,339.9,229.6,339.7,229.2L339.7,229.2z"/>
			<path fill="#FFFFFF" d="M351.5,232.7l0.6,23.9c0.1,2.3,0.5,3.8,1.1,4.9c0.5,0.8,1.1,1.2,1.8,1.4c0.7,0.2,1.4,0.2,2.1-0.1
				c1-0.3,1.9-0.9,2.4-1.6c0.4-0.5,1.2-0.6,1.7-0.2c0.2,0.1,0.3,0.3,0.3,0.4c0.4,0.6,1,1.1,1.8,1.4c0.4,0.1,0.7,0.2,1.1,0.1
				c0.3-0.1,0.5-0.2,0.7-0.4c0.3-0.4,0.5-1,0.5-2l-0.2-27.9c0-0.8-0.4-1.3-1-1.6c-0.3-0.1-0.5-0.2-0.8-0.2l0,0
				c-0.3,0-0.6,0.1-0.8,0.2c-0.7,0.3-1.2,1-1.2,2.1v18.1c0,1.8-0.6,3.1-1.3,3.7c-0.4,0.4-0.8,0.5-1.3,0.6h-0.1
				c-0.5,0-0.9-0.2-1.4-0.5c-0.7-0.6-1.1-1.7-1.1-3.4l-0.2-19c0-1-0.6-1.6-1.4-1.9c-0.4-0.1-0.7-0.2-1.1-0.2c-0.4,0-0.7,0.1-1,0.2
				l0,0C352,231.3,351.5,231.8,351.5,232.7L351.5,232.7z M349.6,256.6l-0.6-23.9c-0.1-2.1,1.1-3.4,2.8-4l0,0l0,0
				c0.6-0.2,1.2-0.4,1.9-0.4c0.7,0,1.3,0.1,1.9,0.3c1.7,0.6,3,2,3,4.2l0.2,19c0,0.5,0.1,0.8,0.1,1.1c0.1-0.3,0.2-0.8,0.2-1.5v-18.1
				c0-2.2,1.2-3.6,2.7-4.3c0.6-0.2,1.1-0.4,1.7-0.4l0,0c0.6,0,1.2,0.1,1.7,0.3c1.4,0.6,2.5,1.8,2.5,3.8l0.2,27.9
				c0,1.6-0.4,2.8-1.1,3.6c-0.6,0.7-1.3,1-2.1,1.2c-0.7,0.1-1.5,0.1-2.2-0.2c-0.8-0.3-1.6-0.7-2.2-1.4c-0.7,0.6-1.6,1-2.5,1.3
				c-1.1,0.3-2.3,0.4-3.5,0.1c-1.2-0.4-2.3-1.1-3.1-2.4C350.3,261.4,349.7,259.4,349.6,256.6L349.6,256.6z"/>
			<path fill="#FFFFFF" d="M369.7,221.6c0.1-1.7,1.2-2.9,2.7-3.3c0.1,0,0.1,0,0.1-0.1c0.5-0.2,1-0.2,1.6-0.2c0.6,0,1.1,0.1,1.7,0.3
				c1.5,0.5,2.7,1.6,2.7,3.4l0.2,7.8l0.1-0.2v-0.1c1.3,0.4,3.3,0.9,3.4,4.3c0.2,4.2-1.2,4.8-2.5,5.3c-0.3,0.2-0.6,0.3-0.6,0.9
				l-0.2,13.7c0,1.5,1.1,2.1,1.9,2.5c0.6,0.3,1,0.5,1.3,1c0.5,0.7,0.7,1.4,0.8,2.1c0.2,1,0,2.1-0.4,3.1c-0.4,0.9-1.1,1.8-2,2.4
				c-0.7,0.5-1.5,0.8-2.4,1c-0.3,0.1-0.6,0.1-0.9,0.1c-1.8,0-3.5-0.9-4.9-2.2c-1.3-1.3-2.2-3.1-2.5-5c-0.1-0.5-0.1-0.9-0.1-1.3l0,0
				v-17l0,0c0-0.3-0.5-0.5-0.9-0.7c-0.8-0.4-1.6-0.7-1.9-1.6l0,0l0,0v-0.1c0,0,0-0.1-0.1-0.1c-0.1-0.3-0.2-0.5-0.3-0.7
				c-0.1-0.3-0.1-0.5-0.2-0.8c-0.2-1.4-0.1-2.8,0.5-4.1l0,0l0,0V232c0,0,0-0.1,0.1-0.1l0,0c0.4-0.8,1.1-1.2,1.9-1.7
				c0.5-0.3,0.9-0.4,0.9-0.5L369.7,221.6L369.7,221.6L369.7,221.6z M373,220.6c-0.6,0.2-1,0.6-1,1.1l0,0l-0.2,8.1
				c0,1.3-1.1,1.9-2.1,2.5c-0.4,0.3-0.9,0.5-0.9,0.6l0,0l0,0c-0.4,0.8-0.5,1.9-0.3,2.8c0,0.2,0.1,0.3,0.1,0.5
				c0.1,0.2,0.1,0.3,0.2,0.4v0.1v0.1l0,0c0.1,0.1,0.4,0.2,0.7,0.3c1.1,0.5,2.4,1,2.4,2.9l0,0v17l0,0c0,0.3,0,0.6,0.1,0.9
				c0.2,1.4,0.9,2.8,1.9,3.7c0.9,0.9,2,1.5,3.2,1.5c0.2,0,0.4,0,0.5-0.1c0.5-0.1,1-0.3,1.4-0.6c0.5-0.4,0.9-0.8,1.1-1.4
				c0.3-0.5,0.3-1.1,0.3-1.7c-0.1-0.4-0.2-0.7-0.5-1.1c0-0.1-0.2-0.1-0.4-0.2c-1.3-0.7-3.2-1.7-3.2-4.7l0.2-13.7
				c0-2.3,1-2.7,2.1-3.1c0.6-0.3,1.2-0.5,1.1-3c-0.1-1.6-1-1.8-1.7-2c-1-0.3-1.8-0.5-1.8-1.8l-0.2-8.1c0-0.6-0.5-0.9-1-1.1
				c-0.3-0.1-0.6-0.2-0.9-0.2S373.4,220.5,373,220.6C373.1,220.6,373,220.6,373,220.6L373,220.6z M378.4,229.4v0.4
				c0,0.5,0-0.4,0.1-0.5L378.4,229.4L378.4,229.4z M368.8,232.9C368.8,232.9,368.8,232.9,368.8,232.9L368.8,232.9L368.8,232.9z"/>
		</g>
	</g>
</g>
</svg>
