<?xml version="1.0" encoding="utf-8"?>
<!-- Generator: Adobe Illustrator 18.1.1, SVG Export Plug-In . SVG Version: 6.00 Build 0)  -->
<!DOCTYPE svg PUBLIC "-//W3C//DTD SVG 1.1//EN" "http://www.w3.org/Graphics/SVG/1.1/DTD/svg11.dtd">
<svg version="1.1" id="Layer_1" xmlns="http://www.w3.org/2000/svg" xmlns:xlink="http://www.w3.org/1999/xlink" x="0px" y="0px"
	 width="180px" height="74.9px" viewBox="230 202.6 180 74.9" enable-background="new 230 202.6 180 74.9" xml:space="preserve">
<g>
	<path fill="#ABABAB" d="M394.1,270.6c-0.4,0.4-1,0.7-1.6,0.9c-1,0.5-2.1,1-3.1,1c-0.7,0-1.2-0.2-1.5-0.5c-0.2-0.1-0.3-0.3-0.4-0.4
		c-0.1-0.1-0.2-0.2-0.2-0.3c-0.3-0.4-0.5-0.8-0.8-1.4c-1.6,1.5-4.4,2.9-8.5,2.9c-3.5,0-6.2-0.9-8.2-2.7c-1.9-1.8-3-4.4-3-8v-20.6
		c0-0.9,0.2-1.5,0.8-1.9c0.7-0.5,1.9-0.7,3.4-0.7c1.5,0,2.8,0.2,3.4,0.7s0.8,1.1,0.8,1.9V261c0,2.9,1.2,4.4,4.6,4.4s5.5-2.1,5.5-4.9
		v-19.1c0-0.9,0.2-1.5,0.8-1.9c0.7-0.5,1.8-0.7,3.4-0.7c1.5,0,2.8,0.2,3.4,0.7c0.6,0.5,0.8,1.1,0.8,1.9v22.8c0,0.7,0.1,1.4,0.3,2
		c0.1,0.5,0.3,0.9,0.4,1.1c0.3,0.6,0.5,1.1,0.5,1.9C394.9,269.8,394.4,270.3,394.1,270.6L394.1,270.6z"/>
	<path fill="#ABABAB" d="M356.5,246.8v22.7c0,0.9-0.2,1.5-0.8,1.9c-0.7,0.5-1.9,0.7-3.4,0.7c-1.6,0-2.8-0.2-3.4-0.7
		c-0.6-0.5-0.8-1.1-0.8-1.9v-22.2l-3.9,0.3c-3.5,0.3-3.6-2.7-3.6-4.4c0-3.3,1.2-4.4,3.3-4.4h16.7c1.6,0,2.9,0.5,3.3,2.9
		c0.5,2.6,0.3,4.4-2.6,4.6L356.5,246.8L356.5,246.8z"/>
	<path fill="#ABABAB" d="M409.2,271.6c-0.7,0.5-1.9,0.7-3.4,0.7c-1.6,0-2.8-0.2-3.4-0.7c-0.6-0.5-0.8-1.1-0.8-1.9v-28.2
		c0-0.9,0.2-1.5,0.8-1.9c0.7-0.5,1.9-0.7,3.4-0.7c1.5,0,2.8,0.2,3.4,0.7c0.6,0.5,0.8,1.1,0.8,1.9v28.2
		C410,270.5,409.8,271.1,409.2,271.6L409.2,271.6z"/>
	<path fill="#ABABAB" d="M234.5,223.5h22.3c2.2,0,3.8,0.7,4.5,3.8c0.7,3.4,0.4,5.9-3.4,6.1l-7,0.5c5.2,32.5,35.2,43.1,51.6,8.1
		c2.7-5.8,3.6-6.8,6.6-6.1c4,1,4.6,3.1,2.6,8.9c-14.1,43.2-61.7,47.5-71.1-10.1l-5.7,0.4c-4.6,0.4-4.8-3.6-4.8-5.7
		C230,225,231.6,223.5,234.5,223.5L234.5,223.5z"/>
	<path fill="#ABABAB" d="M315.4,202.6c4.6,0,8.3,3.7,8.3,8.3c0,4.6-3.7,8.3-8.3,8.3s-8.3-3.7-8.3-8.3
		C307.2,206.3,310.8,202.6,315.4,202.6L315.4,202.6z"/>
</g>
</svg>
