<?xml version="1.0" encoding="utf-8"?>
<!-- Generator: Adobe Illustrator 18.1.1, SVG Export Plug-In . SVG Version: 6.00 Build 0)  -->
<!DOCTYPE svg PUBLIC "-//W3C//DTD SVG 1.1//EN" "http://www.w3.org/Graphics/SVG/1.1/DTD/svg11.dtd">
<svg version="1.1" id="Layer_1" xmlns="http://www.w3.org/2000/svg" xmlns:xlink="http://www.w3.org/1999/xlink" x="0px" y="0px"
	 width="123px" height="51.3px" viewBox="29.5 417.6 123 51.3" enable-background="new 29.5 417.6 123 51.3" xml:space="preserve">
<g>
	<path fill="#ABABAB" d="M141.7,464.1c-0.3,0.3-0.7,0.5-1.1,0.6c-0.7,0.3-1.4,0.7-2.1,0.7c-0.5,0-0.8-0.1-1-0.3
		c-0.1-0.1-0.2-0.2-0.3-0.3s-0.1-0.1-0.1-0.2c-0.2-0.3-0.3-0.5-0.5-1c-1.1,1-3,2-5.8,2c-2.4,0-4.2-0.6-5.6-1.8
		c-1.3-1.2-2.1-3-2.1-5.5v-14.1c0-0.6,0.1-1,0.5-1.3c0.5-0.3,1.3-0.5,2.3-0.5c1,0,1.9,0.1,2.3,0.5s0.5,0.8,0.5,1.3v13.3
		c0,2,0.8,3,3.1,3c2.3,0,3.8-1.4,3.8-3.4v-13.1c0-0.6,0.1-1,0.5-1.3c0.5-0.3,1.2-0.5,2.3-0.5c1,0,1.9,0.1,2.3,0.5s0.5,0.8,0.5,1.3
		v15.6c0,0.5,0.1,1,0.2,1.4c0.1,0.3,0.2,0.6,0.3,0.8c0.2,0.4,0.3,0.8,0.3,1.3C142.2,463.5,141.9,463.8,141.7,464.1L141.7,464.1z"/>
	<path fill="#ABABAB" d="M116,447.8v15.5c0,0.6-0.1,1-0.5,1.3c-0.5,0.3-1.3,0.5-2.3,0.5c-1.1,0-1.9-0.1-2.3-0.5s-0.5-0.8-0.5-1.3
		v-15.2l-2.7,0.2c-2.4,0.2-2.5-1.8-2.5-3c0-2.3,0.8-3,2.3-3h11.4c1.1,0,2,0.3,2.3,2c0.3,1.8,0.2,3-1.8,3.1L116,447.8L116,447.8z"/>
	<path fill="#ABABAB" d="M152,464.7c-0.5,0.3-1.3,0.5-2.3,0.5c-1.1,0-1.9-0.1-2.3-0.5s-0.5-0.8-0.5-1.3v-19.3c0-0.6,0.1-1,0.5-1.3
		c0.5-0.3,1.3-0.5,2.3-0.5s1.9,0.1,2.3,0.5s0.5,0.8,0.5,1.3v19.3C152.5,464,152.4,464.4,152,464.7L152,464.7z"/>
	<path fill="#ABABAB" d="M32.6,431.8h15.2c1.5,0,2.6,0.5,3.1,2.6c0.5,2.3,0.3,4-2.3,4.2l-4.8,0.3c3.6,22.2,24.1,29.5,35.3,5.5
		c1.8-4,2.5-4.6,4.5-4.2c2.7,0.7,3.1,2.1,1.8,6.1c-9.6,29.5-42.2,32.5-48.6-6.9l-3.9,0.3c-3.1,0.3-3.3-2.5-3.3-3.9
		C29.5,432.9,30.6,431.8,32.6,431.8L32.6,431.8z"/>
	<path fill="#ABABAB" d="M87.9,417.6c3.1,0,5.7,2.5,5.7,5.7c0,3.1-2.5,5.7-5.7,5.7s-5.7-2.5-5.7-5.7
		C82.3,420.1,84.7,417.6,87.9,417.6L87.9,417.6z"/>
</g>
</svg>
