<?xml version="1.0" encoding="utf-8"?>
<!-- Generator: Adobe Illustrator 18.1.1, SVG Export Plug-In . SVG Version: 6.00 Build 0)  -->
<!DOCTYPE svg PUBLIC "-//W3C//DTD SVG 1.1//EN" "http://www.w3.org/Graphics/SVG/1.1/DTD/svg11.dtd">
<svg version="1.1" id="レイヤー_1" xmlns="http://www.w3.org/2000/svg" xmlns:xlink="http://www.w3.org/1999/xlink" x="0px"
	 y="0px" width="162.4px" height="22.6px" viewBox="236.8 225.4 162.4 22.6" enable-background="new 236.8 225.4 162.4 22.6"
	 xml:space="preserve">
<g>
	<path fill="#999999" d="M384.9,247.9c-1.7,0-3.3-0.2-5-0.5c-3.1-0.7-5.5-3.4-5.3-6.5c0-0.8,0.2-1.7,0.4-2.5
		c0.7-3.4,2.8-5.4,6.1-6.2c4.4-1,8.8-1,13.2-0.2c0.1,0,0.2,0,0.2,0c4.3,1.1,5.3,3.8,4.3,7.8c-0.2,0.7-0.6,1.1-1.3,1.2
		c-0.7,0.1-2,0.1-2.6,0.1c-1.7,0-9.2,0-11.3,0c-0.6,0-1.3-0.1-1.6,0.7c-0.3,0.8,0,1.8,0.7,2.4c0.6,0.5,1.7,0.9,3,0.9
		c3,0,6.3-0.2,9.3-0.4c0.5,0,1.2,0.1,1.3,0.8c0,1.3-0.3,1.7-1.2,1.8C391.7,247.7,389.1,247.9,384.9,247.9z M387.1,238.5
		c1.1,0,2.1,0,3.2,0c0.4,0,0.8-0.2,1-0.4c1-1.4,0.2-3.6-1.5-4c-1-0.2-2.1-0.3-3.1-0.2c-1.8,0.1-3.3,1.4-3.7,3.2
		c-0.3,1.1-0.2,1.4,0.7,1.4C384.8,238.6,386,238.5,387.1,238.5z"/>
	<g>
		<path fill="#999999" d="M245,247.5c-1.4,0-2.1-0.9-2.5-2.1c-0.8-2.4-1.6-4.9-2.3-7.3c-1-3.1-2-6.3-3-9.4c-0.7-2.3-0.4-3.2,2-3.2
			c1.5,0,3.9,0,4.4,0c1.4,0,2,0.8,2.3,2c0.8,2.9,1.7,5.9,2.5,8.8c0.7,2.2,1.3,4.5,1.9,6.8c0.2,0.7,0.3,1.3,1.2,1.4
			c1,0,2,0.2,2.6-0.9c0.7-1.2,1.4-2.4,2.1-3.6c2.4-4.2,4.8-8.3,7.2-12.5c1.1-1.9,1.4-1.9,5-1.9c0.6,0,0.7,0.5,0.5,1
			c-0.1,0.3-0.3,0.6-0.4,0.8c-3.6,6-7.2,11.9-10.8,17.9c-1,1.7-2.3,2.3-4.2,2.3C252.3,247.4,246.6,247.5,245,247.5z"/>
		<path fill="#999999" d="M277,231.9c0.8,0.1,1.4,0.8,1.4,1.6c-0.2,1.6-0.4,3.2-0.7,4.9c-0.4,2.3-0.7,4.7-1.1,7
			c-0.3,1.6-0.7,2.1-2.2,2.1c-1.3,0-2.6,0-3.9,0c-0.8,0-1.4-0.8-1.4-1.6c0.2-1.6,0.5-3.2,0.7-4.9c0.4-2.3,0.7-4.7,1.1-7
			c0.2-1.1,1.1-2,2.3-2.1C273.8,231.9,276.3,231.9,277,231.9z M277,231.9c0.8,0.1,1.4,0.8,1.4,1.6c-0.2,1.6-0.4,3.2-0.7,4.9
			c-0.4,2.3-0.7,4.7-1.1,7c-0.3,1.6-0.7,2.1-2.2,2.1c-1.3,0-2.6,0-3.9,0c-0.8,0-1.4-0.8-1.4-1.6c0.2-1.6,0.5-3.2,0.7-4.9
			c0.4-2.3,0.7-4.7,1.1-7c0.2-1.1,1.1-2,2.3-2.1C273.8,231.9,276.3,231.9,277,231.9z"/>
	</g>
	<path fill="#999999" d="M278.5,225.4c0.8,0,1.5,0.8,1.4,1.6c-0.1,0.6,0,0.4-0.1,0.6c-0.3,1.6-0.7,2.1-2.2,2.1c-1.3,0-3.4,0-4.7,0
		c-0.8,0-1.5-0.8-1.4-1.6c0.1-0.5,0.1-0.7,0.1-1c0.2-1.1,1.1-1.7,2.3-1.7C274.6,225.4,277.9,225.4,278.5,225.4z"/>
	<path fill="#999999" d="M291.4,234.4c1.1,0,2.1,0,3.2,0c1.1,0,2.1,0,3.1,0c1,0,1.3-0.5,1.3-1.8c0-0.7-0.7-0.7-1.2-0.7c-2,0-4,0-6,0
		c-0.6,0-1.1-0.5-1-1.1c0.1-0.8,0.2-1.6,0.3-2.5c0.1-0.8-0.5-1.5-1.4-1.6c-0.6,0-3.1-0.1-3.8,0c-1.1,0.1-2.1,1-2.3,2.1
		c-0.4,2.3-0.7,4.7-1.1,7c0,0-0.2,1.1-0.4,2.5c-0.3,2-0.5,3.3-0.7,5.3c-0.2,1.7,0.7,3,2.4,3.6c1,0.4,2.1,0.6,3.2,0.7
		c3.2,0.4,6.4,0.1,9.6-0.3c1.4-0.2,1.7-0.4,1.8-1.8c0-0.9-0.1-1-1-1c-1.1,0.1-2.2,0.2-3.3,0.3c-1.2,0-2.4,0-3.6-0.1
		c-0.9-0.1-1.6-0.8-1.6-1.7c0-0.7,0.8-5.4,1-6.5C290.1,235.4,290.1,234.4,291.4,234.4z"/>
	<path fill="#999999" d="M310.5,247.9c-1.7,0-3.3-0.2-5-0.5c-3.1-0.7-5.5-3.4-5.3-6.5c0-0.8,0.2-1.7,0.4-2.5
		c0.7-3.4,2.8-5.4,6.1-6.2c4.4-1,8.8-1,13.2-0.2c0.1,0,0.2,0,0.2,0c4.3,1.1,5.3,3.8,4.3,7.8c-0.2,0.7-0.6,1.1-1.3,1.2
		c-0.7,0.1-2,0.1-2.6,0.1c-1.7,0-9.2,0-11.3,0c-0.6,0-1.3-0.1-1.6,0.7c-0.3,0.8,0,1.8,0.7,2.4c0.6,0.5,1.7,0.9,3,0.9
		c3,0,6.3-0.2,9.3-0.4c0.5,0,1.2,0.1,1.3,0.8c0,1.3-0.3,1.7-1.2,1.8C317.3,247.7,314.8,247.9,310.5,247.9z M312.7,238.5
		c1.1,0,2.1,0,3.2,0c0.4,0,0.8-0.2,1-0.4c1-1.4,0.2-3.6-1.5-4c-1-0.2-2.1-0.3-3.1-0.2c-1.8,0.1-3.3,1.4-3.7,3.2
		c-0.3,1.1-0.2,1.4,0.7,1.4C310.4,238.6,311.6,238.5,312.7,238.5z"/>
	<path fill="#999999" d="M335,247.9c-3.2-0.1-5.8-0.3-8.5-0.7c-1-0.1-1-0.7-0.7-2c0.1-0.7,0.9-0.8,1.4-0.7c2.2,0.1,3,0.4,6.1,0.5
		c1.5,0,4.4,0.2,5.9,0c0.9-0.1,1.6-0.3,1.8-0.8c0-0.1,0.1-0.2,0.1-0.3c0.3-0.7-0.1-1.2-1-1.3c-0.9-0.1-4.9-0.4-8.2-0.9
		c-4.7-0.5-5.5-2.4-4.7-6c0.7-3.1,2.9-3.9,5.4-4.2c2.1-0.3,4.5-0.2,6.3-0.2c3.2,0,5.8,0.3,8.5,0.7c1,0.1,1,0.7,0.7,2
		c-0.1,0.7-0.9,0.8-1.4,0.7c-2.2-0.1-3-0.4-6.1-0.5c-1.5,0-3-0.1-4.5,0c-0.9,0.1-1.6,0.3-1.8,0.8c0,0.1-0.1,0.2-0.1,0.3
		c-0.3,0.7,0.1,1.2,1,1.3c0.9,0.1,6.4,0.5,9.7,1s3.6,2.9,3.2,4.9C347.5,246.8,344.6,248.3,335,247.9z"/>
	<path fill="#999999" d="M359,247.9c-3.2-0.1-5.8-0.3-8.5-0.7c-1-0.1-1-0.7-0.7-2c0.1-0.7,0.9-0.8,1.4-0.7c2.2,0.1,3,0.4,6.1,0.5
		c1.5,0,4.4,0.2,5.9,0c0.9-0.1,1.6-0.3,1.8-0.8c0-0.1,0.1-0.2,0.1-0.3c0.3-0.7-0.1-1.2-1-1.3c-0.9-0.1-4.9-0.4-8.2-0.9
		c-4.7-0.5-5.5-2.4-4.7-6c0.7-3.1,2.9-3.9,5.4-4.2c2.1-0.3,4.5-0.2,6.3-0.2c3.2,0,5.8,0.3,8.5,0.7c1,0.1,1,0.7,0.7,2
		c-0.1,0.7-0.9,0.8-1.4,0.7c-2.2-0.1-3-0.4-6.1-0.5c-1.5,0-3-0.1-4.5,0c-0.9,0.1-1.6,0.3-1.8,0.8c0,0.1-0.1,0.2-0.1,0.3
		c-0.3,0.7,0.1,1.2,1,1.3c0.9,0.1,6.4,0.5,9.7,1c3.3,0.5,3.6,2.9,3.2,4.9C371.4,246.8,368.5,248.3,359,247.9z"/>
</g>
</svg>
