<?xml version="1.0" encoding="utf-8"?>
<!-- Generator: Adobe Illustrator 18.1.1, SVG Export Plug-In . SVG Version: 6.00 Build 0)  -->
<!DOCTYPE svg PUBLIC "-//W3C//DTD SVG 1.1//EN" "http://www.w3.org/Graphics/SVG/1.1/DTD/svg11.dtd">
<svg version="1.1" id="レイヤー_1" xmlns="http://www.w3.org/2000/svg" xmlns:xlink="http://www.w3.org/1999/xlink" x="0px"
	 y="0px" width="130px" height="18.2px" viewBox="15 457.1 130 18.2" enable-background="new 15 457.1 130 18.2"
	 xml:space="preserve">
<g>
	<path fill="#999999" d="M133.6,475.1c-1.4,0-2.6-0.2-4-0.4c-2.5-0.6-4.4-2.7-4.2-5.2c0-0.6,0.2-1.4,0.3-2c0.6-2.7,2.2-4.3,4.9-5
		c3.5-0.8,7-0.8,10.6-0.2c0.1,0,0.2,0,0.2,0c3.4,0.9,4.2,3,3.4,6.2c-0.2,0.6-0.5,0.9-1,1c-0.6,0.1-1.6,0.1-2.1,0.1
		c-1.4,0-7.4,0-9.1,0c-0.5,0-1-0.1-1.3,0.6c-0.2,0.6,0,1.4,0.6,1.9c0.5,0.4,1.4,0.7,2.4,0.7c2.4,0,5-0.2,7.4-0.3c0.4,0,1,0.1,1,0.6
		c0,1-0.2,1.4-1,1.4C139,474.9,137,475.1,133.6,475.1z M135.4,467.6c0.9,0,1.7,0,2.6,0c0.3,0,0.6-0.2,0.8-0.3
		c0.8-1.1,0.2-2.9-1.2-3.2c-0.8-0.2-1.7-0.2-2.5-0.2c-1.4,0.1-2.6,1.1-3,2.6c-0.2,0.9-0.2,1.1,0.6,1.1
		C133.5,467.6,134.5,467.6,135.4,467.6z"/>
	<g>
		<path fill="#999999" d="M21.5,474.8c-1.1,0-1.7-0.7-2-1.7c-0.6-1.9-1.3-3.9-1.8-5.8c-0.8-2.5-1.6-5-2.4-7.5
			c-0.6-1.8-0.3-2.6,1.6-2.6c1.2,0,3.1,0,3.5,0c1.1,0,1.6,0.6,1.8,1.6c0.6,2.3,1.4,4.7,2,7c0.6,1.8,1,3.6,1.5,5.4
			c0.2,0.6,0.2,1,1,1.1c0.8,0,1.6,0.2,2.1-0.7c0.6-1,1.1-1.9,1.7-2.9c1.9-3.4,3.8-6.6,5.8-10c0.9-1.5,1.1-1.5,4-1.5
			c0.5,0,0.6,0.4,0.4,0.8c-0.1,0.2-0.2,0.5-0.3,0.6c-2.9,4.8-5.8,9.5-8.7,14.3c-0.8,1.4-1.8,1.8-3.4,1.8
			C27.4,474.7,22.8,474.8,21.5,474.8z"/>
		<path fill="#999999" d="M47.2,462.3c0.6,0.1,1.1,0.6,1.1,1.3c-0.2,1.3-0.3,2.6-0.6,3.9c-0.3,1.8-0.6,3.8-0.9,5.6
			c-0.2,1.3-0.6,1.7-1.8,1.7c-1,0-2.1,0-3.1,0c-0.6,0-1.1-0.6-1.1-1.3c0.2-1.3,0.4-2.6,0.6-3.9c0.3-1.8,0.6-3.8,0.9-5.6
			c0.2-0.9,0.9-1.6,1.8-1.7C44.6,462.3,46.6,462.3,47.2,462.3z M47.2,462.3c0.6,0.1,1.1,0.6,1.1,1.3c-0.2,1.3-0.3,2.6-0.6,3.9
			c-0.3,1.8-0.6,3.8-0.9,5.6c-0.2,1.3-0.6,1.7-1.8,1.7c-1,0-2.1,0-3.1,0c-0.6,0-1.1-0.6-1.1-1.3c0.2-1.3,0.4-2.6,0.6-3.9
			c0.3-1.8,0.6-3.8,0.9-5.6c0.2-0.9,0.9-1.6,1.8-1.7C44.6,462.3,46.6,462.3,47.2,462.3z"/>
	</g>
	<path fill="#999999" d="M48.4,457.1c0.6,0,1.2,0.6,1.1,1.3c-0.1,0.5,0,0.3-0.1,0.5c-0.2,1.3-0.6,1.7-1.8,1.7c-1,0-2.7,0-3.8,0
		c-0.6,0-1.2-0.6-1.1-1.3c0.1-0.4,0.1-0.6,0.1-0.8c0.2-0.9,0.9-1.4,1.8-1.4C45.2,457.1,47.9,457.1,48.4,457.1z"/>
	<path fill="#999999" d="M58.7,464.3c0.9,0,1.7,0,2.6,0c0.9,0,1.7,0,2.5,0c0.8,0,1-0.4,1-1.4c0-0.6-0.6-0.6-1-0.6
		c-1.6,0-3.2,0-4.8,0c-0.5,0-0.9-0.4-0.8-0.9c0.1-0.6,0.2-1.3,0.2-2c0.1-0.6-0.4-1.2-1.1-1.3c-0.5,0-2.5-0.1-3,0
		c-0.9,0.1-1.7,0.8-1.8,1.7c-0.3,1.8-0.6,3.8-0.9,5.6c0,0-0.2,0.9-0.3,2c-0.2,1.6-0.4,2.6-0.6,4.2c-0.2,1.4,0.6,2.4,1.9,2.9
		c0.8,0.3,1.7,0.5,2.6,0.6c2.6,0.3,5.1,0.1,7.7-0.2c1.1-0.2,1.4-0.3,1.4-1.4c0-0.7-0.1-0.8-0.8-0.8c-0.9,0.1-1.8,0.2-2.6,0.2
		c-1,0-1.9,0-2.9-0.1c-0.7-0.1-1.3-0.6-1.3-1.4c0-0.6,0.6-4.3,0.8-5.2C57.7,465.1,57.7,464.3,58.7,464.3z"/>
	<path fill="#999999" d="M74,475.1c-1.4,0-2.6-0.2-4-0.4c-2.5-0.6-4.4-2.7-4.2-5.2c0-0.6,0.2-1.4,0.3-2c0.6-2.7,2.2-4.3,4.9-5
		c3.5-0.8,7-0.8,10.6-0.2c0.1,0,0.2,0,0.2,0c3.4,0.9,4.2,3,3.4,6.2c-0.2,0.6-0.5,0.9-1,1c-0.6,0.1-1.6,0.1-2.1,0.1
		c-1.4,0-7.4,0-9.1,0c-0.5,0-1-0.1-1.3,0.6c-0.2,0.6,0,1.4,0.6,1.9c0.5,0.4,1.4,0.7,2.4,0.7c2.4,0,5-0.2,7.4-0.3c0.4,0,1,0.1,1,0.6
		c0,1-0.2,1.4-1,1.4C79.4,474.9,77.4,475.1,74,475.1z M75.8,467.6c0.9,0,1.7,0,2.6,0c0.3,0,0.6-0.2,0.8-0.3c0.8-1.1,0.2-2.9-1.2-3.2
		c-0.8-0.2-1.7-0.2-2.5-0.2c-1.4,0.1-2.6,1.1-3,2.6c-0.2,0.9-0.2,1.1,0.6,1.1C73.9,467.6,74.9,467.6,75.8,467.6z"/>
	<path fill="#999999" d="M93.6,475.1c-2.6-0.1-4.6-0.2-6.8-0.6c-0.8-0.1-0.8-0.6-0.6-1.6c0.1-0.6,0.7-0.6,1.1-0.6
		c1.8,0.1,2.4,0.3,4.9,0.4c1.2,0,3.5,0.2,4.7,0c0.7-0.1,1.3-0.2,1.4-0.6c0-0.1,0.1-0.2,0.1-0.2c0.2-0.6-0.1-1-0.8-1
		s-3.9-0.3-6.6-0.7c-3.8-0.4-4.4-1.9-3.8-4.8c0.6-2.5,2.3-3.1,4.3-3.4c1.7-0.2,3.6-0.2,5-0.2c2.6,0,4.6,0.2,6.8,0.6
		c0.8,0.1,0.8,0.6,0.6,1.6c-0.1,0.6-0.7,0.6-1.1,0.6c-1.8-0.1-2.4-0.3-4.9-0.4c-1.2,0-2.4-0.1-3.6,0c-0.7,0.1-1.3,0.2-1.4,0.6
		c0,0.1-0.1,0.2-0.1,0.2c-0.2,0.6,0.1,1,0.8,1c0.7,0.1,5.1,0.4,7.8,0.8c2.6,0.4,2.9,2.3,2.6,3.9C103.6,474.2,101.3,475.4,93.6,475.1
		z"/>
	<path fill="#999999" d="M112.8,475.1c-2.6-0.1-4.6-0.2-6.8-0.6c-0.8-0.1-0.8-0.6-0.6-1.6c0.1-0.6,0.7-0.6,1.1-0.6
		c1.8,0.1,2.4,0.3,4.9,0.4c1.2,0,3.5,0.2,4.7,0c0.7-0.1,1.3-0.2,1.4-0.6c0-0.1,0.1-0.2,0.1-0.2c0.2-0.6-0.1-1-0.8-1
		s-3.9-0.3-6.6-0.7c-3.8-0.4-4.4-1.9-3.8-4.8c0.6-2.5,2.3-3.1,4.3-3.4c1.7-0.2,3.6-0.2,5-0.2c2.6,0,4.6,0.2,6.8,0.6
		c0.8,0.1,0.8,0.6,0.6,1.6c-0.1,0.6-0.7,0.6-1.1,0.6c-1.8-0.1-2.4-0.3-4.9-0.4c-1.2,0-2.4-0.1-3.6,0c-0.7,0.1-1.3,0.2-1.4,0.6
		c0,0.1-0.1,0.2-0.1,0.2c-0.2,0.6,0.1,1,0.8,1c0.7,0.1,5.1,0.4,7.8,0.8c2.6,0.4,2.9,2.3,2.6,3.9
		C122.8,474.2,120.5,475.4,112.8,475.1z"/>
</g>
</svg>
