<?xml version="1.0" encoding="utf-8"?>
<!-- Generator: Adobe Illustrator 18.1.1, SVG Export Plug-In . SVG Version: 6.00 Build 0)  -->
<!DOCTYPE svg PUBLIC "-//W3C//DTD SVG 1.1//EN" "http://www.w3.org/Graphics/SVG/1.1/DTD/svg11.dtd">
<svg version="1.1"
	 id="svg2" xmlns:rdf="http://www.w3.org/1999/02/22-rdf-syntax-ns#" xmlns:dc="http://purl.org/dc/elements/1.1/" xmlns:svg="http://www.w3.org/2000/svg" xmlns:cc="http://creativecommons.org/ns#"
	 xmlns="http://www.w3.org/2000/svg" xmlns:xlink="http://www.w3.org/1999/xlink" x="0px" y="0px" width="134.8px" height="91.1px"
	 viewBox="252.6 194.2 134.8 91.1" enable-background="new 252.6 194.2 134.8 91.1" xml:space="preserve">
<polygon id="polygon675" fill="#AAAAAA" points="257.8,268.8 257.8,268.8 261.8,279.3 265.7,268.8 270.6,268.8 264.1,284.9 
	259.4,284.9 252.6,268.8 "/>
<path id="path677" fill="#AAAAAA" d="M279.1,285.3c-5.2,0-8.4-3.6-8.4-8.4s3.2-8.4,8.4-8.4c5.2,0,8.4,3.6,8.4,8.4
	S284.3,285.3,279.1,285.3z M279.1,272.1c-2.5,0-3.7,2.2-3.7,4.8c0,2.6,1.2,4.7,3.7,4.7s3.7-2.1,3.7-4.7
	C282.8,274.2,281.6,272.1,279.1,272.1z"/>
<path id="path679" fill="#AAAAAA" d="M305.5,262.2v22.3c-1.9,0.4-4.1,0.7-6.9,0.7c-5.5,0-9.1-2.9-9.1-8.5c0-4.7,3.2-8.3,8.1-8.3
	c1.4,0,2.8,0.3,3.5,0.6v-6.8L305.5,262.2L305.5,262.2z M301,272.8c-0.7-0.4-1.8-0.7-3.2-0.7c-2.4,0-3.8,2.1-3.8,4.7
	c0,3.2,2.1,4.8,4.5,4.8c0.9,0,1.8,0,2.4-0.2L301,272.8L301,272.8L301,272.8z"/>
<path id="path681" fill="#AAAAAA" d="M307.5,277.2c0-5.1,3.8-8.8,9.1-8.8c2.7,0,5.4,0.6,6.9,1.3v15.2h-3.9l-0.3-1.4
	c-0.9,1-2.2,1.8-4.3,1.8C310.7,285.3,307.5,282.2,307.5,277.2z M319.1,272.5c-0.5-0.1-1.4-0.3-2.5-0.3c-2.1,0-4.4,1.7-4.4,4.8
	c0,3.1,1.8,4.6,3.7,4.6c1.5,0,2.7-0.8,3.2-1.7L319.1,272.5L319.1,272.5L319.1,272.5z"/>
<path id="path683" fill="#AAAAAA" d="M332.1,261.8c1.2,0,2.6,0.2,3.4,0.4v3.8c-0.7-0.1-1.9-0.2-2.5-0.2c-1,0-1.4,0.2-1.8,0.5
	c-0.3,0.3-0.4,0.7-0.4,1.4v1h4.1v3.9h-4.1v12.2h-4.4v-17.4c0-1.9,0.6-3.3,1.6-4.2C329,262.3,330.5,261.8,332.1,261.8L332.1,261.8z"
	/>
<path id="path685" fill="#AAAAAA" d="M343.7,285.3c-5.2,0-8.4-3.6-8.4-8.4s3.2-8.4,8.4-8.4s8.4,3.6,8.4,8.4
	C352.1,281.6,348.9,285.3,343.7,285.3L343.7,285.3z M343.7,272.1c-2.5,0-3.7,2.2-3.7,4.8c0,2.6,1.2,4.7,3.7,4.7
	c2.5,0,3.7-2.1,3.7-4.7C347.4,274.2,346.2,272.1,343.7,272.1L343.7,272.1z"/>
<path id="path687" fill="#AAAAAA" d="M365.5,276c0-2.4-1.2-3.6-3.7-3.6c-1.2,0-2.6,0.2-3.3,0.4v12.1h-4.4v-15.2
	c2-0.7,4.9-1.3,7.7-1.3c5.1,0,8.1,2.5,8.1,6.8v9.7h-4.5L365.5,276L365.5,276L365.5,276z"/>
<path id="path689" fill="#AAAAAA" d="M372,276.7c0-5.1,3.2-8.4,7.9-8.4c4.7,0,7.5,3.7,7.5,8.2c0,0.6,0,1.4-0.1,1.8h-10.8
	c0.2,2.3,1.7,3.5,4.6,3.5c2.5,0,4.5-0.5,5.6-0.9v2.9c-1.4,0.7-3.3,1.4-5.8,1.4C375.3,285.2,372,282.2,372,276.7L372,276.7z
	 M383.3,275.1c-0.1-1.7-1.3-3-3.4-3s-3.1,1.1-3.3,3H383.3z"/>
<path id="path261" fill="#AAAAAA" d="M313.4,204.2c-4.2,3.5-7.3,8.4-8.6,13.7c-0.4,1.4-0.6,2.9-0.7,4.4c0,0,0,0.3,0,0.3
	c0,0.1,0,0.8,0,0.9c0,0.8,0,1.5,0.1,2.3c0.1,1,0.3,2,0.6,3c0,0,0.1,0.4,0.1,0.4c0.5,1.8,1.2,3.4,2.2,4.9c0.6,1,1.4,1.9,2.2,2.8
	c2.1,2.1,4.7,3.6,7.5,4.5c0.9,0.2,1.7,0.4,2.6,0.5c0.6,0.1,1.1,0.1,1.7,0.1c1.5,0,3.1-0.2,4.5-0.6c2.1-0.6,4-1.6,5.8-2.9
	c0.5-0.4,0.9-0.8,1.4-1.2c1.2-1.2,2.2-2.5,2.9-4c1.2-2.2,1.8-4.8,1.8-7.3c0,0,0-0.6,0-0.6c-0.1-1.5-0.3-3-0.7-4.4
	c-0.4-1.4-1-2.7-1.8-3.9c0,0-0.2-0.3-0.2-0.4c-1.1-1.5-2.5-2.8-4.2-3.8c-1.8-1.1-4-2-6.4-2.5c0,0-0.1-0.3-0.1-0.4s-0.3-0.3-0.3-0.4
	c0,0,0-0.3,0-0.3c0.2-4.9,2.9-9.4,7.2-11.6c0.1,0,0.1-0.1,0.2-0.1c0.3-0.1,0.5-0.2,0.7-0.3c-0.1,0-0.1,0-0.1,0c-0.2,0-0.5,0-0.7,0
	c-0.2,0-0.5,0-0.7,0.1c-0.4,0-0.9,0.1-1.3,0.1c-0.9,0.1-1.9,0.3-2.9,0.6c-0.1,0-1.5,0.4-1.6,0.4c-0.8,0.2-1.7,0.5-2.5,0.9
	C318.7,200.5,315.8,202.1,313.4,204.2L313.4,204.2z"/>
<path id="path108" fill="none" stroke="#CAC9C8" stroke-width="1.125" d="M320.6,194.7c16.5,0,29.9,13.4,29.9,29.9
	s-13.4,29.9-29.9,29.9c-16.5,0-29.9-13.4-29.9-29.9C290.7,208.2,304.1,194.7,320.6,194.7z"/>
</svg>
