<?xml version="1.0" encoding="utf-8"?>
<!-- Generator: Adobe Illustrator 18.1.1, SVG Export Plug-In . SVG Version: 6.00 Build 0)  -->
<!DOCTYPE svg PUBLIC "-//W3C//DTD SVG 1.1//EN" "http://www.w3.org/Graphics/SVG/1.1/DTD/svg11.dtd">
<svg version="1.1"
	 id="svg2" xmlns:svg="http://www.w3.org/2000/svg" xmlns:rdf="http://www.w3.org/1999/02/22-rdf-syntax-ns#" xmlns:dc="http://purl.org/dc/elements/1.1/" xmlns:cc="http://creativecommons.org/ns#"
	 xmlns="http://www.w3.org/2000/svg" xmlns:xlink="http://www.w3.org/1999/xlink" x="0px" y="0px" width="110.5px" height="74.7px"
	 viewBox="12.8 398.3 110.5 74.7" enable-background="new 12.8 398.3 110.5 74.7" xml:space="preserve">
<polygon id="polygon675" fill="#AAAAAA" points="17,459.5 17,459.5 20.3,468.1 23.5,459.5 27.5,459.5 22.2,472.7 18.3,472.7 
	12.8,459.5 "/>
<path id="path677" fill="#AAAAAA" d="M34.5,473c-4.3,0-6.9-3-6.9-6.9c0-3.9,2.6-6.9,6.9-6.9c4.3,0,6.9,3,6.9,6.9
	C41.4,470.1,38.7,473,34.5,473z M34.5,462.2c-2,0-3,1.8-3,3.9c0,2.1,1,3.9,3,3.9s3-1.7,3-3.9C37.5,463.9,36.5,462.2,34.5,462.2z"/>
<path id="path679" fill="#AAAAAA" d="M56.1,454.1v18.3c-1.6,0.3-3.4,0.6-5.7,0.6c-4.5,0-7.5-2.4-7.5-7c0-3.9,2.6-6.8,6.6-6.8
	c1.1,0,2.3,0.2,2.9,0.5v-5.6L56.1,454.1L56.1,454.1z M52.4,462.8c-0.6-0.3-1.5-0.6-2.6-0.6c-2,0-3.1,1.7-3.1,3.9
	c0,2.6,1.7,3.9,3.7,3.9c0.7,0,1.5,0,2-0.2L52.4,462.8L52.4,462.8L52.4,462.8z"/>
<path id="path681" fill="#AAAAAA" d="M57.8,466.4c0-4.2,3.1-7.2,7.5-7.2c2.2,0,4.4,0.5,5.7,1.1v12.5h-3.2l-0.2-1.1
	c-0.7,0.8-1.8,1.5-3.5,1.5C60.4,473,57.8,470.5,57.8,466.4z M67.3,462.5c-0.4-0.1-1.1-0.2-2-0.2c-1.7,0-3.6,1.4-3.6,3.9
	c0,2.5,1.5,3.8,3,3.8c1.2,0,2.2-0.7,2.6-1.4L67.3,462.5L67.3,462.5L67.3,462.5z"/>
<path id="path683" fill="#AAAAAA" d="M77.9,453.8c1,0,2.1,0.2,2.8,0.3v3.1c-0.6-0.1-1.6-0.2-2-0.2c-0.8,0-1.1,0.2-1.5,0.4
	c-0.2,0.2-0.3,0.6-0.3,1.1v0.8h3.4v3.2h-3.4v10h-3.6v-14.3c0-1.6,0.5-2.7,1.3-3.4C75.4,454.2,76.6,453.8,77.9,453.8L77.9,453.8z"/>
<path id="path685" fill="#AAAAAA" d="M87.4,473c-4.3,0-6.9-3-6.9-6.9c0-3.9,2.6-6.9,6.9-6.9s6.9,3,6.9,6.9
	C94.3,470,91.7,473,87.4,473L87.4,473z M87.4,462.2c-2,0-3,1.8-3,3.9c0,2.1,1,3.9,3,3.9s3-1.7,3-3.9
	C90.5,463.9,89.5,462.2,87.4,462.2L87.4,462.2z"/>
<path id="path687" fill="#AAAAAA" d="M105.3,465.4c0-2-1-3-3-3c-1,0-2.1,0.2-2.7,0.3v9.9H96v-12.5c1.6-0.6,4-1.1,6.3-1.1
	c4.2,0,6.6,2,6.6,5.6v8h-3.7L105.3,465.4L105.3,465.4L105.3,465.4z"/>
<path id="path689" fill="#AAAAAA" d="M110.6,466c0-4.2,2.6-6.9,6.5-6.9c3.9,0,6.1,3,6.1,6.7c0,0.5,0,1.1-0.1,1.5h-8.9
	c0.2,1.9,1.4,2.9,3.8,2.9c2,0,3.7-0.4,4.6-0.7v2.4c-1.1,0.6-2.7,1.1-4.8,1.1C113.3,473,110.6,470.5,110.6,466L110.6,466z
	 M119.9,464.7c-0.1-1.4-1.1-2.5-2.8-2.5s-2.5,0.9-2.7,2.5H119.9z"/>
<path id="path261" fill="#AAAAAA" d="M62.6,406.6c-3.4,2.9-6,6.9-7,11.2c-0.3,1.1-0.5,2.4-0.6,3.6v0.2c0,0.1,0,0.7,0,0.7
	c0,0.7,0,1.2,0.1,1.9c0.1,0.8,0.2,1.6,0.5,2.5l0.1,0.3c0.4,1.5,1,2.8,1.8,4c0.5,0.8,1.1,1.6,1.8,2.3c1.7,1.7,3.9,3,6.1,3.7
	c0.7,0.2,1.4,0.3,2.1,0.4c0.5,0.1,0.9,0.1,1.4,0.1c1.2,0,2.5-0.2,3.7-0.5c1.7-0.5,3.3-1.3,4.8-2.4c0.4-0.3,0.7-0.7,1.1-1
	c1-1,1.8-2,2.4-3.3c1-1.8,1.5-3.9,1.5-6v-0.5c-0.1-1.2-0.2-2.5-0.6-3.6c-0.3-1.1-0.8-2.2-1.5-3.2c0,0-0.2-0.2-0.2-0.3
	c-0.9-1.2-2-2.3-3.4-3.1c-1.5-0.9-3.3-1.6-5.2-2c0,0-0.1-0.2-0.1-0.3s-0.2-0.2-0.2-0.3v-0.2c0.2-4,2.4-7.7,5.9-9.5
	c0.1,0,0.1-0.1,0.2-0.1c0.2-0.1,0.4-0.2,0.6-0.2c-0.1,0-0.1,0-0.1,0c-0.2,0-0.4,0-0.6,0c-0.2,0-0.4,0-0.6,0.1
	c-0.3,0-0.7,0.1-1.1,0.1c-0.7,0.1-1.6,0.2-2.4,0.5c-0.1,0-1.2,0.3-1.3,0.3c-0.7,0.2-1.4,0.4-2,0.7C66.9,403.5,64.6,404.8,62.6,406.6
	L62.6,406.6z"/>
<path id="path108" fill="none" stroke="#CAC9C8" stroke-width="0.9222" d="M68.5,398.8c13.5,0,24.5,11,24.5,24.5
	c0,13.5-11,24.5-24.5,24.5S44,436.8,44,423.3C44,409.8,55,398.8,68.5,398.8z"/>
</svg>
