<svg id="Layer_1" xmlns="http://www.w3.org/2000/svg" xmlns:xlink="http://www.w3.org/1999/xlink" width="145.6" height="55.7" viewBox="0 0 145.6 55.7"><style>.st0{fill:#41AC60;} .st1{fill:none;stroke:#41AC60;stroke-width:6.2652;stroke-miterlimit:10;} .st2{clip-path:url(#SVGID_2_);} .st3{clip-path:url(#SVGID_5_);} .st4{clip-path:url(#SVGID_6_);fill:none;stroke:#FFFFFF;stroke-width:6.2652;stroke-miterlimit:10;}</style><path class="st0" d="M59.8 53.8v-8.2c1.3.5 2.4.8 3.3.8 3 0 5-1.7 5.9-5.1-1.6 1-3.2 1.5-4.8 1.5-2.3 0-4.2-.9-5.7-2.6-1.5-1.7-2.3-3.9-2.3-6.6V17.8h9.4v13.4c0 1.5.6 2.2 1.9 2.2 1.2 0 1.8-.8 1.8-2.5V17.8h9.4v22.3c0 4.2-1.2 7.5-3.5 10.1-2.8 3-6.2 4.6-10.1 4.6-1.8 0-3.6-.3-5.3-1zM95.4 33.4v9.7c-.8.1-1.5.2-2.1.2-3.8 0-6.9-1.2-9.4-3.7s-3.8-5.6-3.8-9.3c0-3.6 1.3-6.7 3.8-9.2s5.6-3.8 9.2-3.8c4 0 7.2 1.2 9.6 3.6 2.3 2.4 3.5 5.6 3.5 9.7v12.3h-9.4V31.2c0-1.3-.3-2.4-1-3.2-.6-.8-1.5-1.2-2.6-1.2-1 0-1.8.4-2.6 1.1-.7.7-1.1 1.6-1.1 2.6s.3 1.9 1 2.6c.7.7 1.5 1 2.5 1s1.7-.2 2.4-.7zM122.9 17.6v10c-.7-.4-1.2-.6-1.8-.6-1.7 0-2.6 1.3-2.6 3.9v11.9h-9.4V29.2c0-3.6 1-6.5 3-8.6 2-2.1 4.6-3.2 7.9-3.2.8-.1 1.7 0 2.9.2zM145.4 42.8H136V28.7c0-1.4-.6-2.2-1.8-2.2-1.2 0-1.8.7-1.8 2.2v14.1H123v-14c0-3.3 1.1-6 3.2-8.2 2.2-2.2 4.8-3.3 7.9-3.3 3.6 0 6.4 1.3 8.6 3.9 1.7 2 2.5 4.8 2.5 8.5v13.1z"/><path class="st1" d="M29.9 33.9c4.4-1 8.4-2.2 15.3-6.4"/><defs><ellipse id="SVGID_1_" cx="18.4" cy="31.1" rx="18.4" ry="16.8"/></defs><clipPath id="SVGID_2_"><use xlink:href="#SVGID_1_" overflow="visible"/></clipPath><ellipse class="st2 st0" cx="18.4" cy="30.9" rx="18.4" ry="16.8"/><defs><ellipse id="SVGID_3_" cx="18.4" cy="31.1" rx="18.4" ry="16.8"/></defs><defs><ellipse id="SVGID_4_" cx="18.4" cy="31.1" rx="18.4" ry="16.8"/></defs><clipPath id="SVGID_5_"><use xlink:href="#SVGID_3_" overflow="visible"/></clipPath><clipPath id="SVGID_6_" class="st3"><use xlink:href="#SVGID_4_" overflow="visible"/></clipPath><path class="st4" d="M-2.3 35s6.5-3.9 11.9-3.9c5.3 0 8.9 3.2 14.6 3.5 6 .4 14.2-3.5 14.2-3.5"/></svg>