<?xml version="1.0" encoding="utf-8"?>
<!-- Generator: Adobe Illustrator 19.1.0, SVG Export Plug-In . SVG Version: 6.00 Build 0)  -->
<!DOCTYPE svg PUBLIC "-//W3C//DTD SVG 1.1//EN" "http://www.w3.org/Graphics/SVG/1.1/DTD/svg11.dtd">
<svg version="1.1" id="Layer_1" xmlns="http://www.w3.org/2000/svg" xmlns:xlink="http://www.w3.org/1999/xlink" x="0px" y="0px"
	 width="145.6px" height="55.7px" viewBox="0 0 145.6 55.7" style="enable-background:new 0 0 145.6 55.7;" xml:space="preserve">
<style type="text/css">
	.st0{fill:#41AC60;}
	.st1{fill:none;stroke:#41AC60;stroke-width:6.2652;stroke-miterlimit:10;}
	.st2{clip-path:url(#SVGID_2_);}
	.st3{clip-path:url(#SVGID_5_);}
	.st4{clip-path:url(#SVGID_6_);fill:none;stroke:#FFFFFF;stroke-width:6.2652;stroke-miterlimit:10;}
</style>
<g>
	<g>
		<path class="st0" d="M59.8,53.8v-8.2c1.3,0.5,2.4,0.8,3.3,0.8c3,0,5-1.7,5.9-5.1c-1.6,1-3.2,1.5-4.8,1.5c-2.3,0-4.2-0.9-5.7-2.6
			c-1.5-1.7-2.3-3.9-2.3-6.6V17.8h9.4v13.4c0,1.5,0.6,2.2,1.9,2.2c1.2,0,1.8-0.8,1.8-2.5V17.8h9.4v22.3c0,4.2-1.2,7.5-3.5,10.1
			c-2.8,3-6.2,4.6-10.1,4.6C63.3,54.8,61.5,54.5,59.8,53.8z"/>
		<path class="st0" d="M95.4,33.4v9.7c-0.8,0.1-1.5,0.2-2.1,0.2c-3.8,0-6.9-1.2-9.4-3.7c-2.5-2.5-3.8-5.6-3.8-9.3
			c0-3.6,1.3-6.7,3.8-9.2s5.6-3.8,9.2-3.8c4,0,7.2,1.2,9.6,3.6c2.3,2.4,3.5,5.6,3.5,9.7v12.3h-9.4V31.2c0-1.3-0.3-2.4-1-3.2
			c-0.6-0.8-1.5-1.2-2.6-1.2c-1,0-1.8,0.4-2.6,1.1c-0.7,0.7-1.1,1.6-1.1,2.6c0,1,0.3,1.9,1,2.6c0.7,0.7,1.5,1,2.5,1
			C94,34.1,94.7,33.9,95.4,33.4z"/>
		<path class="st0" d="M122.9,17.6v10c-0.7-0.4-1.2-0.6-1.8-0.6c-1.7,0-2.6,1.3-2.6,3.9v11.9h-9.4V29.2c0-3.6,1-6.5,3-8.6
			c2-2.1,4.6-3.2,7.9-3.2C120.8,17.3,121.7,17.4,122.9,17.6z"/>
		<path class="st0" d="M145.4,42.8H136V28.7c0-1.4-0.6-2.2-1.8-2.2c-1.2,0-1.8,0.7-1.8,2.2v14.1h-9.4v-14c0-3.3,1.1-6,3.2-8.2
			c2.2-2.2,4.8-3.3,7.9-3.3c3.6,0,6.4,1.3,8.6,3.9c1.7,2,2.5,4.8,2.5,8.5V42.8z"/>
	</g>
	<g>
		<g>
			<path class="st1" d="M29.9,33.9c4.4-1,8.4-2.2,15.3-6.4"/>
			<g>
				<g>
					<defs>
						<ellipse id="SVGID_1_" cx="18.4" cy="31.1" rx="18.4" ry="16.8"/>
					</defs>
					<clipPath id="SVGID_2_">
						<use xlink:href="#SVGID_1_"  style="overflow:visible;"/>
					</clipPath>
					<g class="st2">
						<g>
							<ellipse class="st0" cx="18.4" cy="30.9" rx="18.4" ry="16.8"/>
						</g>
					</g>
				</g>
			</g>
			<g>
				<defs>
					<ellipse id="SVGID_3_" cx="18.4" cy="31.1" rx="18.4" ry="16.8"/>
				</defs>
				<defs>
					<ellipse id="SVGID_4_" cx="18.4" cy="31.1" rx="18.4" ry="16.8"/>
				</defs>
				<clipPath id="SVGID_5_">
					<use xlink:href="#SVGID_3_"  style="overflow:visible;"/>
				</clipPath>
				<clipPath id="SVGID_6_" class="st3">
					<use xlink:href="#SVGID_4_"  style="overflow:visible;"/>
				</clipPath>
				<path class="st4" d="M-2.3,35c0,0,6.5-3.9,11.9-3.9c5.3,0,8.9,3.2,14.6,3.5c6,0.4,14.2-3.5,14.2-3.5"/>
			</g>
		</g>
	</g>
</g>
<g>
</g>
<g>
</g>
<g>
</g>
<g>
</g>
<g>
</g>
<g>
</g>
<g>
</g>
<g>
</g>
<g>
</g>
<g>
</g>
<g>
</g>
<g>
</g>
<g>
</g>
<g>
</g>
<g>
</g>
</svg>
