<?xml version="1.0" encoding="utf-8"?>
<!-- Generator: Adobe Illustrator 18.0.0, SVG Export Plug-In . SVG Version: 6.00 Build 0)  -->
<!DOCTYPE svg PUBLIC "-//W3C//DTD SVG 1.1//EN" "http://www.w3.org/Graphics/SVG/1.1/DTD/svg11.dtd">
<svg version="1.1" id="Layer_1" xmlns="http://www.w3.org/2000/svg" xmlns:xlink="http://www.w3.org/1999/xlink" x="0px" y="0px"
	 width="145.9px" height="17.7px" viewBox="0 0 145.9 17.7" enable-background="new 0 0 145.9 17.7" xml:space="preserve">
<path fill="#999999" d="M44.2,17.7c-9.3,0-13.5-3.6-13.5-8.9c0-5.2,4.2-8.8,13.5-8.8c9.3,0,13.5,3.6,13.5,8.8
	C57.6,14.1,53.5,17.7,44.2,17.7L44.2,17.7z M105.2,17.1l-16.5,0l0-2.2c0,0,1.7-0.2,2.4-0.3c0.7-0.1,0.9-0.7,0.9-1.3c0-0.6,0-8,0-8.8
	c0-0.8-0.3-1.2-1.1-1.3C90.2,3.1,88.6,3,88.6,3V0.6h16.6c7.5,0,10.8,3.7,10.8,8C116,13.5,112.7,17.1,105.2,17.1L105.2,17.1z
	 M58.4,17.1v-2.3c0,0,2-0.2,2.3-0.3c0.7-0.1,1-0.6,1-1.4c0-0.8,0-8.4,0-8.6c0-0.8-0.4-1.3-1.2-1.4c-0.3,0-2.1-0.2-2.1-0.2V0.6
	c0,0,11.5,0,11.7,0c0.6,0,1.1,0.3,1.4,0.7c0.1,0.1,8.7,11.5,8.7,11.5s0-7.4,0-8.2c0-0.8-0.3-1.4-1.1-1.5c-0.2,0-2.2-0.3-2.2-0.3V0.6
	h10.6V3c0,0-1.9,0.2-2.2,0.3c-0.9,0.1-1.1,0.8-1.1,1.4c0,0.7,0,12.5,0,12.5s-8,0-8.3,0c-0.5,0-1.1-0.2-1.4-0.6
	c-0.2-0.3-8.8-11.6-8.8-11.6s0,7.6,0,8.4c0,0.8,0.4,1.2,1,1.3c0.7,0.1,2.3,0.3,2.3,0.3v2.3L58.4,17.1L58.4,17.1z M0,17.1l0-2.2
	c0,0,1.4-0.2,2.2-0.3C3,14.6,3.3,14,3.3,13.1c0-0.2,0-5.4,0-8.4c0-0.8-0.2-1.4-1.1-1.6C1.9,3.1,0,2.9,0,2.9l0-2.3h13.2l0,2.3
	c0,0-2,0.2-2.2,0.3c-0.7,0.1-1.1,0.5-1.1,1.5c0,0.2,0,2.6,0,2.6h10.2c0,0,0-2.1,0-2.6c0-0.8-0.2-1.4-1-1.5c-0.8-0.1-2.3-0.3-2.3-0.3
	l0-2.2H30l0,2.3c0,0-1.6,0.2-2.3,0.3c-0.7,0.1-1,0.6-1,1.5c0,0.2,0,7.6,0,8.6c0,0.9,0.5,1.3,1,1.4c0.4,0.1,2.3,0.3,2.3,0.3l0,2.3
	H16.8l0-2.3c0,0,2-0.2,2.3-0.3c0.9-0.2,1-0.8,1-1.5c0-0.8,0-2.5,0-2.5H9.9c0,0,0,1.5,0,2.6c0,1.1,0.5,1.4,1,1.5
	c0.6,0.1,2.3,0.3,2.3,0.3l0,2.2H0.3L0,17.1L0,17.1z M108.4,8.9c0-4.2-1.7-5.1-5.7-5.1h-4.2v10.1h4.2
	C106.7,13.9,108.4,13.1,108.4,8.9L108.4,8.9z M50,8.9c0-4.3-2.1-5.7-5.9-5.7s-5.9,1.4-5.9,5.7c0,4.3,2.1,5.7,5.9,5.7S50,13.2,50,8.9
	L50,8.9z M125.2,17.1h-10.6v-2.3c0,0,1.5-0.2,2.2-0.3s1.1-0.7,1.2-0.9c0.1-0.1,5.2-8.3,5.6-9.1c0.4-0.7,0-1.3-0.6-1.4
	c-0.4-0.1-2.9-0.3-2.9-0.3l0-2.3c0,0,12.6,0,12.9,0c0.8,0,1.3,0.9,1.3,0.9s6.8,10.4,7.4,11.3c0.6,0.9,1.1,1.6,1.8,1.7
	c0.7,0.1,2.3,0.3,2.3,0.3l0,2.3h-14.3l0-2.2c0,0,0.9-0.1,1.8-0.2c0.9-0.1,1.6-0.5,0.9-1.5c-0.7-1-0.7-1-0.7-1l-10.1,0
	c0,0-0.3,0.5-0.8,1.2c-0.5,0.8,0,1.2,0.8,1.3c0.7,0.1,1.8,0.2,1.8,0.2L125.2,17.1L125.2,17.1z M125.3,9.1l6.4,0l-3.2-5.1L125.3,9.1
	L125.3,9.1z"/>
</svg>
