<?xml version="1.0" encoding="utf-8"?>
<!-- Generator: Adobe Illustrator 18.0.0, SVG Export Plug-In . SVG Version: 6.00 Build 0)  -->
<!DOCTYPE svg PUBLIC "-//W3C//DTD SVG 1.1//EN" "http://www.w3.org/Graphics/SVG/1.1/DTD/svg11.dtd">
<svg version="1.1" id="Layer_1" xmlns="http://www.w3.org/2000/svg" xmlns:xlink="http://www.w3.org/1999/xlink" x="0px" y="0px"
	 width="201px" height="37.5px" viewBox="0 0 201 37.5" enable-background="new 0 0 201 37.5" xml:space="preserve">
<g>
	<path fill="#D71921" stroke="#D71921" stroke-width="0.8466" d="M48.4,1.2L37.2,36.3h-1.8L24.5,2.6h-0.1l-11,33.7h-1.9L0.6,1.2h1.3
		L12.3,35h0.1L23.3,1.2h2.1L36.2,35h0.1L47,1.2H48.4z"/>
	<path fill="#D71921" stroke="#D71921" stroke-width="0.8466" d="M52.7,25.7c0.5,2,1.3,3.8,2.4,5.3c1.1,1.5,2.5,2.7,4.2,3.6
		c1.7,0.9,3.8,1.3,6.4,1.3c3.7,0,6.7-1,9.2-2.9c2.4-1.9,3.9-4.8,4.5-8.7h1.4c-0.5,4.1-2.1,7.3-4.8,9.5s-6.1,3.4-10.1,3.4
		c-2.7,0-5.1-0.4-7-1.3c-1.9-0.9-3.5-2.2-4.7-3.9c-1.2-1.7-2.1-3.6-2.7-5.9c-0.6-2.3-0.9-4.7-0.9-7.3c0-2.9,0.4-5.5,1.3-7.8
		c0.9-2.3,2-4.2,3.4-5.8c1.4-1.6,3-2.8,4.9-3.6c1.9-0.8,3.8-1.2,5.7-1.2c2.7,0,5.1,0.5,7.1,1.6c2,1,3.6,2.4,4.8,4.2
		c1.3,1.7,2.2,3.7,2.7,5.9c0.6,2.2,0.8,4.6,0.7,7H51.9C51.9,21.4,52.2,23.6,52.7,25.7z M79,11.6c-0.6-1.9-1.5-3.6-2.6-5.1
		C75.2,5,73.7,3.9,72,3.1c-1.7-0.8-3.7-1.3-6-1.3c-1.9,0-3.7,0.4-5.4,1.1c-1.7,0.7-3.1,1.8-4.4,3.2c-1.3,1.4-2.3,3.1-3,5
		c-0.8,2-1.2,4.2-1.4,6.6h28C79.9,15.6,79.6,13.5,79,11.6z"/>
	<path fill="#555556" stroke="#555556" stroke-width="0.8466" d="M88.6,7.5c0.6-1.4,1.4-2.7,2.6-3.7c1.1-1,2.5-1.9,4.1-2.5
		c1.6-0.6,3.5-0.9,5.7-0.9c1.5,0,3,0.2,4.4,0.5c1.4,0.3,2.6,0.9,3.7,1.7c1,0.8,1.9,1.8,2.5,3.1c0.6,1.3,1,2.9,1,4.8v22.3
		c0,0.7,0.1,1.2,0.4,1.5c0.3,0.3,0.6,0.5,1.1,0.6c0.5,0.1,0.9,0.2,1.5,0.1c0.5,0,1-0.1,1.5-0.1v1.4h-2c-1,0-1.9-0.2-2.6-0.7
		c-0.8-0.5-1.1-1.4-1.1-2.7v-4.6h-0.1c-0.4,1.1-0.9,2.2-1.7,3.3c-0.8,1-1.8,2-3,2.8c-1.2,0.8-2.6,1.5-4.1,1.9
		c-1.5,0.5-3.2,0.7-5.1,0.7c-3.6,0-6.4-0.8-8.5-2.4c-2.1-1.6-3.2-3.9-3.2-7.1c0-2.2,0.4-3.9,1.1-5.3c0.7-1.3,1.6-2.4,2.8-3.1
		c1.1-0.8,2.4-1.3,3.9-1.6c1.5-0.3,2.9-0.5,4.4-0.6c2.4-0.1,4.5-0.3,6.2-0.4c1.7-0.1,3.2-0.3,4.3-0.7c1.1-0.3,1.9-0.9,2.5-1.6
		c0.5-0.7,0.8-1.7,0.8-3c0-1-0.1-2.1-0.3-3.3c-0.2-1.1-0.6-2.2-1.3-3.1c-0.7-1-1.7-1.7-3.1-2.4c-1.4-0.6-3.2-0.9-5.5-0.9
		c-3.7,0-6.6,0.9-8.6,2.7c-2,1.8-3.2,4.3-3.4,7.6h-1.4C87.7,10.5,88,8.9,88.6,7.5z M111.1,15.7c-0.5,0.6-1.2,1.1-2.1,1.5
		c-1,0.3-2,0.6-3.3,0.8c-1.2,0.2-2.6,0.3-4,0.3c-1.4,0-2.8,0.1-4.2,0.2c-1.4,0.1-2.7,0.3-4,0.5c-1.3,0.3-2.4,0.7-3.4,1.4
		c-1,0.7-1.8,1.6-2.4,2.7c-0.6,1.2-0.9,2.7-0.9,4.5c0,1,0.2,2,0.5,3c0.3,1,0.9,1.8,1.7,2.6s1.9,1.4,3.2,1.8c1.3,0.5,2.9,0.7,4.8,0.7
		c2.3,0,4.3-0.4,6.1-1.2c1.8-0.8,3.3-1.8,4.5-3c1.2-1.3,2.1-2.7,2.7-4.3c0.6-1.6,0.9-3.3,0.9-5.1v-6.5H111.1z"/>
	<path fill="#555556" stroke="#555556" stroke-width="0.8466" d="M146.3,1.2L133,36.3h-1.7L116.9,1.2h1.6L132.1,35h0.1l12.6-33.7
		H146.3z"/>
	<path fill="#555556" stroke="#555556" stroke-width="0.8466" d="M150.4,25.7c0.5,2,1.3,3.8,2.4,5.3c1.1,1.5,2.5,2.7,4.2,3.6
		c1.7,0.9,3.8,1.3,6.4,1.3c3.7,0,6.7-1,9.2-2.9c2.4-1.9,3.9-4.8,4.5-8.7h1.4c-0.5,4.1-2.1,7.3-4.8,9.5s-6.1,3.4-10.1,3.4
		c-2.7,0-5.1-0.4-7-1.3c-1.9-0.9-3.5-2.2-4.7-3.9c-1.2-1.7-2.1-3.6-2.7-5.9c-0.6-2.3-0.9-4.7-0.9-7.3c0-2.9,0.4-5.5,1.3-7.8
		c0.9-2.3,2-4.2,3.4-5.8c1.4-1.6,3-2.8,4.9-3.6c1.9-0.8,3.8-1.2,5.7-1.2c2.7,0,5.1,0.5,7.1,1.6c2,1,3.6,2.4,4.8,4.2
		c1.3,1.7,2.2,3.7,2.7,5.9c0.6,2.2,0.8,4.6,0.7,7h-29.4C149.5,21.4,149.8,23.6,150.4,25.7z M176.6,11.6C176,9.7,175.1,8,174,6.5
		c-1.2-1.5-2.6-2.6-4.3-3.4c-1.7-0.8-3.7-1.3-6-1.3c-1.9,0-3.7,0.4-5.4,1.1c-1.7,0.7-3.1,1.8-4.4,3.2c-1.3,1.4-2.3,3.1-3,5
		c-0.8,2-1.2,4.2-1.4,6.6h28C177.5,15.6,177.2,13.5,176.6,11.6z"/>
	<path fill="#565656" stroke="#555556" stroke-width="0.8466" d="M185.3,36.3V1.2h1.4v8.7h0.1c0.3-1.3,0.8-2.6,1.5-3.7
		c0.7-1.2,1.6-2.2,2.7-3c1.1-0.9,2.5-1.5,4.1-2c1.6-0.5,3.4-0.7,5.5-0.7v1.4c-2.4-0.1-4.5,0.2-6.2,1c-1.8,0.8-3.2,1.9-4.3,3.3
		c-1.1,1.4-2,3-2.5,4.8c-0.5,1.8-0.8,3.7-0.8,5.6v19.9H185.3z"/>
</g>
</svg>
