<?xml version="1.0" encoding="utf-8"?>
<!-- Generator: Adobe Illustrator 18.0.0, SVG Export Plug-In . SVG Version: 6.00 Build 0)  -->
<!DOCTYPE svg PUBLIC "-//W3C//DTD SVG 1.1//EN" "http://www.w3.org/Graphics/SVG/1.1/DTD/svg11.dtd">
<svg version="1.1" id="Layer_1" xmlns="http://www.w3.org/2000/svg" xmlns:xlink="http://www.w3.org/1999/xlink" x="0px" y="0px"
	 width="179px" height="39.8px" viewBox="0 0 179 39.8" enable-background="new 0 0 179 39.8" xml:space="preserve">
<g opacity="0.8">
	<path fill="#6D6D6D" d="M58.1,16.9h-2.5v7.2c0,0.1-0.1,0.2-0.3,0.2h-1.2c-0.1,0-0.2-0.1-0.2-0.2v-7.2h-2.5c-0.1,0-0.2-0.1-0.2-0.2
		v-1c0-0.1,0.1-0.2,0.2-0.2h6.7c0.1,0,0.2,0.1,0.2,0.2v1C58.4,16.8,58.3,16.9,58.1,16.9 M67.1,24.3h-1.2c-0.1,0-0.3-0.1-0.3-0.2
		v-3.6h-3.9v3.6c0,0.1-0.1,0.2-0.2,0.2h-1.2c-0.1,0-0.3-0.1-0.3-0.2v-8.4c0-0.1,0.1-0.2,0.3-0.2h1.2c0.1,0,0.2,0.1,0.2,0.2v3.2h3.9
		v-3.2c0-0.1,0.1-0.2,0.3-0.2h1.2c0.1,0,0.2,0.1,0.2,0.2v8.4C67.4,24.2,67.3,24.3,67.1,24.3z M73.3,24.4c-2.1,0-4-1.1-4-3.9v-1.3
		c0-2.7,1.9-3.9,4-3.9c2.1,0,4,1.1,4,3.9v1.3C77.2,23.3,75.3,24.4,73.3,24.4z M75.5,19.3c0-1.6-1-2.4-2.2-2.4
		c-1.2,0-2.2,0.7-2.2,2.4v1.3c0,1.6,1,2.4,2.2,2.4c1.2,0,2.2-0.7,2.2-2.4V19.3z M88,24.3h-1.3c-0.1,0-0.2-0.1-0.2-0.2v-5.4
		c0-0.1,0-0.1,0-0.1c0,0,0,0-0.1,0.1l-2,4.5c-0.1,0.1-0.2,0.2-0.4,0.2h-0.6c-0.2,0-0.3-0.1-0.4-0.2l-2-4.5c0,0-0.1-0.1-0.1-0.1
		c0,0,0,0,0,0.1v5.4c0,0.1-0.1,0.2-0.2,0.2h-1.3c-0.1,0-0.2-0.1-0.2-0.2V16c0-0.3,0.2-0.5,0.5-0.5h1c0.2,0,0.4,0.1,0.5,0.3l2.4,4.9
		c0.1,0.1,0.1,0.2,0.1,0.2c0,0,0.1-0.1,0.1-0.2l2.4-4.9c0.1-0.2,0.3-0.3,0.5-0.3h1c0.3,0,0.5,0.2,0.5,0.5v8.2
		C88.2,24.3,88.1,24.3,88,24.3z M115.3,24.3h-1.3c-0.3,0-0.6,0-0.8-0.4l-3.4-5.7c0-0.1-0.1-0.1-0.1-0.1c0,0-0.1,0-0.1,0.1v5.9
		c0,0.1-0.1,0.2-0.2,0.2h-1.1c-0.1,0-0.2-0.1-0.2-0.2V16c0-0.3,0.2-0.5,0.5-0.5h1.3c0.3,0,0.4,0.1,0.5,0.4l3.5,6
		c0,0.1,0.1,0.1,0.1,0.1c0,0,0.1,0,0.1-0.1v-6.1c0-0.1,0.1-0.2,0.2-0.2h1.1c0.1,0,0.2,0.1,0.2,0.2v8.1
		C115.8,24.1,115.6,24.3,115.3,24.3z M93.5,24.4c-1.1,0-2.2-0.2-2.8-0.3c-0.1,0-0.2-0.1-0.2-0.2v-0.9c0-0.1,0.1-0.2,0.2-0.2
		c0,0,0,0,0,0c0.5,0.1,1.7,0.2,2.8,0.2c1.1,0,1.4-0.4,1.4-1.1c0-0.9-2.2-1.4-3.3-1.9c-1.1-0.4-1.5-1.3-1.5-2.2
		c0-1.4,1.1-2.4,3.4-2.4c1.2,0,2.3,0.2,2.7,0.3c0.1,0,0.2,0.1,0.2,0.2v0.9c0,0.1-0.1,0.2-0.2,0.2c0,0,0,0,0,0
		c-0.8-0.1-1.7-0.2-2.8-0.2c-0.9,0-1.6,0.3-1.6,0.9c0,0.4,0.5,0.8,1,1c0.6,0.2,1.3,0.5,2.1,0.8c1.1,0.4,1.7,1,1.7,2.2
		C96.8,23.1,96,24.4,93.5,24.4z M102.3,24.4c-2.1,0-4-1.1-4-3.9v-1.3c0-2.7,1.9-3.9,4-3.9c2.1,0,4,1.1,4,3.9v1.3
		C106.3,23.3,104.4,24.4,102.3,24.4z M104.5,19.3c0-1.6-1-2.4-2.2-2.4c-1.2,0-2.2,0.7-2.2,2.4v1.3c0,1.6,1,2.4,2.2,2.4
		c1.2,0,2.2-0.7,2.2-2.4V19.3z M128.7,24.3h-1.5c-0.1,0-0.2-0.1-0.2-0.2l-1.8-3h-0.3c-0.3,0-1.3,0-1.6,0v3.1c0,0.1-0.1,0.2-0.2,0.2
		h-1.2c-0.1,0-0.2-0.1-0.2-0.2v-8.2c0-0.2,0.1-0.3,0.4-0.4c0.6-0.1,2-0.2,2.9-0.2c1.9,0,3.7,0.7,3.7,2.8v0.1c0,1.3-0.7,2-1.7,2.4
		l2,3.3c0,0,0,0.1,0,0.1C128.9,24.3,128.8,24.3,128.7,24.3z M126.9,18.2c0-0.9-0.7-1.3-2-1.3c-0.3,0-1.4,0-1.6,0v2.7
		c0.2,0,1.4,0,1.6,0c1.3,0,2-0.2,2-1.3V18.2z M132.2,21.9c0,1,0,1.1,1,1.1h3.2c0.1,0,0.2,0.1,0.2,0.2V24c0,0.2-0.1,0.2-0.2,0.3
		c-0.4,0.1-1.2,0.2-2.7,0.2c-2.1,0-3.2,0-3.2-2.6v-3.9c0-2.6,1.1-2.6,3.2-2.6c1.5,0,2.3,0.1,2.7,0.2c0.2,0,0.2,0.1,0.2,0.3v0.8
		c0,0.1-0.1,0.3-0.2,0.3h-3.2c-0.9,0-1,0-1,1.1v1.1h4c0.1,0,0.2,0.1,0.2,0.2v0.9c0,0.1-0.1,0.2-0.2,0.2h-4V21.9z M142.2,24.4
		c-2,0-3.7-0.9-3.7-3.5v-5.2c0-0.1,0.1-0.2,0.2-0.2h1.2c0.1,0,0.2,0.1,0.2,0.2v5.2c0,1.4,0.7,2.1,2,2.1c1.3,0,2-0.7,2-2.1v-5.2
		c0-0.1,0.1-0.2,0.2-0.2h1.2c0.1,0,0.3,0.1,0.3,0.2v5.2C145.9,23.5,144.2,24.4,142.2,24.4z M154.1,16.9h-2.5v7.2
		c0,0.1-0.1,0.2-0.3,0.2h-1.2c-0.1,0-0.3-0.1-0.3-0.2v-7.2h-2.5c-0.1,0-0.2-0.1-0.2-0.2v-1c0-0.1,0.1-0.2,0.2-0.2h6.7
		c0.1,0,0.2,0.1,0.2,0.2v1C154.3,16.8,154.2,16.9,154.1,16.9z M171,24.3h-1.5c-0.1,0-0.2-0.1-0.2-0.2l-1.8-3h-0.3
		c-0.3,0-1.3,0-1.6,0v3.1c0,0.1-0.1,0.2-0.2,0.2H164c-0.1,0-0.2-0.1-0.2-0.2v-8.2c0-0.2,0.1-0.3,0.4-0.4c0.6-0.1,2-0.2,2.9-0.2
		c1.9,0,3.7,0.7,3.7,2.8v0.1c0,1.3-0.7,2-1.7,2.4l2,3.3c0,0,0,0.1,0,0.1C171.1,24.3,171.1,24.3,171,24.3z M169.1,18.2
		c0-0.9-0.7-1.3-2-1.3c-0.3,0-1.4,0-1.6,0v2.7c0.2,0,1.4,0,1.6,0c1.3,0,2-0.2,2-1.3V18.2z M175.7,24.4c-1.1,0-2.2-0.2-2.8-0.3
		c-0.1,0-0.2-0.1-0.2-0.2v-0.9c0-0.1,0.1-0.2,0.2-0.2c0,0,0,0,0,0c0.5,0.1,1.7,0.2,2.8,0.2c1.1,0,1.4-0.4,1.4-1.1
		c0-0.9-2.2-1.4-3.3-1.9c-1.1-0.4-1.5-1.3-1.5-2.2c0-1.4,1.1-2.4,3.4-2.4c1.2,0,2.3,0.2,2.7,0.3c0.1,0,0.2,0.1,0.2,0.2v0.9
		c0,0.1-0.1,0.2-0.2,0.2c0,0,0,0,0,0c-0.8-0.1-1.7-0.2-2.8-0.2c-0.9,0-1.6,0.3-1.6,0.9c0,0.4,0.5,0.8,1,1c0.6,0.2,1.3,0.5,2.1,0.8
		c1.1,0.4,1.7,1,1.7,2.2C179,23.1,178.2,24.4,175.7,24.4z M157.3,21.9c0,1,0,1.1,1,1.1h3.2c0.1,0,0.2,0.1,0.2,0.2V24
		c0,0.2-0.1,0.2-0.2,0.3c-0.4,0.1-1.2,0.2-2.7,0.2c-2.1,0-3.2,0-3.2-2.6v-3.9c0-2.6,1.1-2.6,3.2-2.6c1.5,0,2.3,0.1,2.7,0.2
		c0.2,0,0.2,0.1,0.2,0.3v0.8c0,0.1-0.1,0.3-0.2,0.3h-3.2c-0.9,0-1,0-1,1.1v1.1h4c0.1,0,0.2,0.1,0.2,0.2v0.9c0,0.1-0.1,0.2-0.2,0.2
		h-4V21.9z"/>
	<path fill="#A7A7A7" d="M29.9,12.6c-0.5,0.5-1.4,0.6-1.9,0.1c-0.6-0.5-0.6-1.4-0.1-1.9c0.5-0.6,1.4-0.6,1.9-0.1
		C30.4,11.2,30.4,12.1,29.9,12.6 M16.2,9.5c-0.3-0.3-0.7-0.2-1,0c-0.3,0.3-0.2,0.7,0,1c0.3,0.3,0.7,0.2,1,0
		C16.5,10.2,16.5,9.8,16.2,9.5z M19.7,8.2c-0.3-0.3-0.9-0.3-1.2,0c-0.3,0.3-0.3,0.9,0,1.2c0.3,0.3,0.9,0.3,1.2,0
		C20,9.1,20,8.5,19.7,8.2z M23.3,7.9c-0.4-0.4-1.1-0.4-1.5,0c-0.4,0.4-0.4,1.1,0,1.5c0.4,0.4,1.1,0.4,1.5,0
		C23.8,9,23.8,8.3,23.3,7.9z M26.8,8.8c-0.5-0.5-1.2-0.4-1.7,0c-0.5,0.5-0.4,1.2,0,1.7c0.5,0.5,1.2,0.4,1.7,0
		C27.3,10,27.3,9.3,26.8,8.8z M13.3,11.8c-0.2-0.2-0.5-0.2-0.7,0c-0.2,0.2-0.2,0.5,0,0.7c0.2,0.2,0.5,0.2,0.7,0
		C13.5,12.3,13.5,12,13.3,11.8z M30.9,24.3c-0.3,0.3-0.2,0.7,0,1c0.3,0.3,0.7,0.2,1,0c0.3-0.3,0.2-0.7,0-1
		C31.6,24,31.1,24,30.9,24.3z M31.8,20.8c-0.3,0.3-0.3,0.9,0,1.2c0.3,0.3,0.9,0.3,1.2,0c0.3-0.3,0.3-0.9,0-1.2
		C32.6,20.4,32.1,20.4,31.8,20.8z M31.5,17.1c-0.4,0.4-0.4,1.1,0,1.5c0.4,0.4,1.1,0.4,1.5,0c0.4-0.4,0.4-1.1,0-1.5
		C32.6,16.6,31.9,16.6,31.5,17.1z M30.2,13.7c-0.5,0.5-0.4,1.2,0.1,1.7c0.5,0.5,1.2,0.4,1.7-0.1c0.5-0.5,0.4-1.2-0.1-1.7
		C31.4,13.2,30.7,13.2,30.2,13.7z M29,27.3c-0.2,0.2-0.2,0.5,0,0.7c0.2,0.2,0.5,0.2,0.7,0c0.2-0.2,0.2-0.5,0-0.7
		C29.5,27.1,29.2,27.1,29,27.3z M14.4,29.1c0.5-0.6,0.5-1.4-0.1-1.9c-0.6-0.5-1.4-0.5-1.9,0.1c-0.5,0.6-0.5,1.4,0.1,1.9
		C13.1,29.6,13.9,29.6,14.4,29.1z M11.5,15.5c0.3-0.3,0.2-0.7,0-1c-0.3-0.3-0.7-0.2-1,0c-0.3,0.3-0.2,0.7,0,1
		C10.8,15.8,11.2,15.8,11.5,15.5z M10.6,19c0.3-0.3,0.3-0.9,0-1.2c-0.3-0.3-0.9-0.3-1.2,0c-0.3,0.3-0.3,0.9,0,1.2
		C9.7,19.4,10.3,19.4,10.6,19z M10.9,22.7c0.4-0.4,0.4-1.1,0-1.5c-0.4-0.4-1.1-0.4-1.5,0c-0.4,0.4-0.4,1.1,0,1.5
		C9.8,23.2,10.5,23.1,10.9,22.7z M12.1,26.1c0.5-0.5,0.4-1.2,0-1.7c-0.5-0.5-1.2-0.4-1.7,0.1c-0.5,0.5-0.4,1.2,0,1.7
		C10.9,26.6,11.7,26.6,12.1,26.1z M26.1,30.3c0.3,0.3,0.7,0.2,1,0c0.3-0.3,0.2-0.7,0-1c-0.3-0.3-0.7-0.2-1,0
		C25.8,29.6,25.9,30,26.1,30.3z M22.7,31.6c0.3,0.3,0.9,0.3,1.2,0c0.3-0.3,0.3-0.9,0-1.2c-0.3-0.3-0.9-0.3-1.2,0
		C22.4,30.7,22.4,31.3,22.7,31.6z M19,31.9c0.4,0.4,1.1,0.4,1.5,0c0.4-0.4,0.4-1.1,0-1.5c-0.4-0.4-1.1-0.4-1.5,0
		C18.6,30.8,18.6,31.5,19,31.9z M15.5,31c0.5,0.5,1.2,0.4,1.7,0c0.5-0.5,0.4-1.2-0.1-1.7c-0.5-0.5-1.2-0.4-1.7,0.1
		C15,29.8,15.1,30.5,15.5,31z M24.6,12.1c-0.2,0.6-0.8,0.9-1.3,0.7c-0.6-0.2-0.9-0.8-0.7-1.3c0.2-0.6,0.8-0.9,1.3-0.7
		C24.4,10.9,24.8,11.5,24.6,12.1z M14.3,14.6c-0.3-0.1-0.6,0.1-0.7,0.4c-0.1,0.3,0.1,0.6,0.4,0.7c0.3,0.1,0.6-0.1,0.7-0.4
		C14.8,15,14.6,14.7,14.3,14.6z M16.2,12.6c-0.3-0.1-0.7,0.1-0.8,0.4c-0.1,0.3,0.1,0.7,0.4,0.8c0.3,0.1,0.7-0.1,0.8-0.4
		C16.7,13,16.5,12.7,16.2,12.6z M18.6,11.1c-0.4-0.1-0.9,0.1-1,0.6c-0.1,0.4,0.1,0.9,0.6,1c0.4,0.1,0.9-0.1,1-0.6
		C19.3,11.7,19,11.3,18.6,11.1z M21.2,10.5c-0.5-0.1-1,0.1-1.2,0.6c-0.1,0.5,0.1,1,0.6,1.2c0.5,0.1,1-0.1,1.2-0.6
		C22,11.2,21.7,10.7,21.2,10.5z M13.2,17.1c-0.2-0.1-0.4,0.1-0.5,0.3c-0.1,0.2,0.1,0.4,0.3,0.5c0.2,0.1,0.4-0.1,0.5-0.3
		C13.5,17.4,13.4,17.2,13.2,17.1z M29.1,19.5c-0.1,0.3,0.1,0.6,0.4,0.7c0.3,0.1,0.6-0.1,0.7-0.4c0.1-0.3-0.1-0.6-0.4-0.7
		C29.5,19.1,29.2,19.2,29.1,19.5z M28.5,16.9c-0.1,0.4,0.1,0.7,0.4,0.8c0.3,0.1,0.7-0.1,0.8-0.4c0.1-0.3-0.1-0.7-0.4-0.8
		C29,16.3,28.6,16.5,28.5,16.9z M27.1,14.5c-0.1,0.4,0.1,0.9,0.6,1c0.4,0.1,0.9-0.1,1-0.6c0.1-0.4-0.1-0.9-0.6-1
		C27.7,13.8,27.2,14.1,27.1,14.5z M25.1,12.7c-0.1,0.5,0.1,1,0.6,1.2c0.5,0.1,1-0.1,1.2-0.6c0.1-0.5-0.1-1-0.6-1.2
		C25.7,11.9,25.2,12.2,25.1,12.7z M28.9,22.2c-0.1,0.2,0.1,0.4,0.3,0.5c0.2,0.1,0.4-0.1,0.5-0.3c0.1-0.2-0.1-0.4-0.3-0.5
		C29.2,21.8,29,22,28.9,22.2z M19.8,28.3c0.2-0.6-0.2-1.2-0.7-1.3c-0.6-0.2-1.2,0.2-1.3,0.7c-0.2,0.6,0.2,1.2,0.7,1.3
		C19.1,29.2,19.7,28.9,19.8,28.3z M13.2,20.3c0.1-0.3-0.1-0.6-0.4-0.7c-0.3-0.1-0.6,0.1-0.7,0.4c-0.1,0.3,0.1,0.6,0.4,0.7
		C12.8,20.7,13.1,20.6,13.2,20.3z M13.8,22.9c0.1-0.3-0.1-0.7-0.4-0.8c-0.4-0.1-0.7,0.1-0.8,0.4c-0.1,0.3,0.1,0.7,0.4,0.8
		C13.4,23.5,13.7,23.3,13.8,22.9z M15.3,25.3c0.1-0.4-0.1-0.9-0.6-1c-0.4-0.1-0.9,0.1-1,0.6c-0.1,0.4,0.1,0.9,0.6,1
		C14.7,26,15.1,25.7,15.3,25.3z M17.3,27.1c0.1-0.5-0.1-1-0.6-1.2c-0.5-0.1-1,0.1-1.2,0.6c-0.1,0.5,0.1,1,0.6,1.2
		C16.6,27.9,17.1,27.6,17.3,27.1z M28,25.2c0.3,0.1,0.6-0.1,0.7-0.4c0.1-0.3-0.1-0.6-0.4-0.7c-0.3-0.1-0.6,0.1-0.7,0.4
		C27.6,24.8,27.7,25.1,28,25.2z M26.2,27.2c0.3,0.1,0.7-0.1,0.8-0.4c0.1-0.4-0.1-0.7-0.4-0.8c-0.3-0.1-0.7,0.1-0.8,0.4
		C25.6,26.8,25.8,27.1,26.2,27.2z M23.8,28.7c0.4,0.1,0.9-0.1,1-0.6c0.1-0.4-0.1-0.9-0.6-1c-0.4-0.1-0.9,0.1-1,0.6
		C23.1,28.1,23.4,28.5,23.8,28.7z M21.2,29.3c0.5,0.1,1-0.1,1.2-0.6c0.1-0.5-0.1-1-0.6-1.2c-0.5-0.1-1,0.1-1.2,0.6
		C20.4,28.6,20.7,29.1,21.2,29.3z M19,14.1c0.2,0.4,0.1,0.9-0.3,1.1c-0.4,0.2-0.9,0.1-1.1-0.3c-0.2-0.4-0.1-0.9,0.3-1.1
		C18.3,13.5,18.8,13.7,19,14.1z M14.9,20.6c-0.2,0.1-0.3,0.4-0.2,0.7c0.1,0.2,0.4,0.3,0.7,0.2c0.2-0.1,0.3-0.4,0.2-0.7
		C15.4,20.5,15.1,20.4,14.9,20.6z M14.8,18.6c-0.3,0.1-0.4,0.5-0.2,0.8c0.2,0.3,0.5,0.4,0.8,0.2c0.3-0.2,0.4-0.5,0.2-0.8
		C15.4,18.5,15.1,18.4,14.8,18.6z M15.3,16.7c-0.3,0.2-0.4,0.6-0.3,0.9c0.2,0.3,0.6,0.4,0.9,0.3c0.3-0.2,0.4-0.6,0.3-0.9
		C16,16.6,15.6,16.5,15.3,16.7z M16.4,15c-0.4,0.2-0.5,0.6-0.3,1c0.2,0.4,0.6,0.5,1,0.3c0.4-0.2,0.5-0.6,0.3-1
		C17.2,14.9,16.7,14.8,16.4,15z M15.6,22.5c-0.2,0.1-0.3,0.4-0.2,0.6c0.1,0.2,0.4,0.3,0.6,0.2c0.2-0.1,0.3-0.4,0.2-0.6
		C16,22.4,15.8,22.4,15.6,22.5z M25,15.7c0.1,0.2,0.4,0.3,0.7,0.2c0.2-0.1,0.3-0.4,0.2-0.7c-0.1-0.2-0.4-0.3-0.7-0.2
		C25,15.1,24.9,15.4,25,15.7z M23.3,14.6c0.1,0.3,0.5,0.4,0.8,0.2c0.3-0.2,0.4-0.5,0.2-0.8c-0.1-0.3-0.5-0.4-0.8-0.2
		C23.3,14,23.2,14.3,23.3,14.6z M21.4,14.1c0.2,0.3,0.6,0.4,0.9,0.3c0.3-0.2,0.4-0.6,0.3-0.9c-0.2-0.3-0.6-0.4-0.9-0.3
		C21.4,13.4,21.3,13.8,21.4,14.1z M19.4,14.2c0.2,0.4,0.6,0.5,1,0.3c0.4-0.2,0.5-0.6,0.3-1c-0.2-0.4-0.6-0.5-1-0.3
		C19.4,13.4,19.2,13.8,19.4,14.2z M26.3,17.2c0.1,0.2,0.4,0.3,0.5,0.2c0.2-0.1,0.3-0.3,0.2-0.5c-0.1-0.2-0.3-0.3-0.6-0.2
		C26.2,16.7,26.1,17,26.3,17.2z M24.8,24.9c-0.2-0.4-0.7-0.6-1.1-0.3c-0.4,0.2-0.6,0.7-0.3,1.1c0.2,0.4,0.7,0.5,1.1,0.3
		C24.9,25.8,25.1,25.3,24.8,24.9z M17.3,24.1c-0.1-0.2-0.4-0.3-0.7-0.2c-0.2,0.1-0.3,0.4-0.2,0.7c0.1,0.2,0.4,0.3,0.7,0.2
		C17.4,24.7,17.5,24.4,17.3,24.1z M19,25.2c-0.2-0.3-0.5-0.4-0.8-0.2c-0.3,0.2-0.4,0.5-0.2,0.8c0.1,0.3,0.5,0.4,0.8,0.2
		C19.1,25.8,19.2,25.5,19,25.2z M20.9,25.7c-0.2-0.3-0.6-0.4-0.9-0.3c-0.3,0.2-0.4,0.6-0.3,0.9c0.2,0.3,0.6,0.4,0.9,0.3
		C21,26.4,21.1,26,20.9,25.7z M22.9,25.6c-0.2-0.4-0.6-0.5-1-0.3c-0.4,0.2-0.5,0.6-0.3,1c0.2,0.4,0.6,0.5,1,0.3
		C23,26.4,23.1,26,22.9,25.6z M27.5,19.2c0.2-0.1,0.3-0.4,0.2-0.7c-0.1-0.2-0.4-0.3-0.7-0.2c-0.2,0.1-0.3,0.4-0.2,0.7
		C26.9,19.3,27.2,19.3,27.5,19.2z M27.6,21.2c0.3-0.2,0.4-0.5,0.2-0.8c-0.1-0.3-0.5-0.4-0.8-0.2c-0.3,0.2-0.4,0.5-0.2,0.8
		C26.9,21.3,27.3,21.4,27.6,21.2z M27,23.1c0.3-0.2,0.4-0.6,0.3-0.9c-0.2-0.3-0.6-0.4-0.9-0.3c-0.3,0.2-0.4,0.6-0.3,0.9
		C26.3,23.2,26.7,23.3,27,23.1z M26,24.8c0.4-0.2,0.5-0.6,0.3-1c-0.2-0.4-0.6-0.5-1-0.3c-0.4,0.2-0.5,0.6-0.3,1
		C25.2,24.9,25.6,25,26,24.8z M40.2,22c-1.2,0-2.1-1-2.1-2.1c0-1.2,1-2.1,2.1-2.1c1.2,0,2.1,0.9,2.1,2.1C42.3,21.1,41.4,22,40.2,22z
		 M31.8,3.6C32,3,31.6,2.4,30.9,2.3c-0.6-0.1-1.3,0.3-1.4,0.9c-0.1,0.6,0.3,1.3,0.9,1.4C31.1,4.7,31.7,4.3,31.8,3.6z M36,6.7
		c0.1-0.8-0.4-1.5-1.2-1.6c-0.8-0.1-1.5,0.4-1.6,1.2c-0.1,0.8,0.4,1.5,1.2,1.6C35.2,8,35.9,7.4,36,6.7z M39.4,10.6
		c0.1-1-0.6-1.8-1.6-2c-1-0.1-1.9,0.6-2,1.6c-0.1,1,0.6,1.8,1.6,2C38.5,12.2,39.3,11.5,39.4,10.6z M41.5,15.1c0.1-1.1-0.8-2-1.9-2.1
		c-1.1-0.1-2,0.8-2.1,1.9c-0.1,1.1,0.8,2,1.9,2.1C40.6,17,41.5,16.1,41.5,15.1z M22,0.9C22,0.4,21.6,0,21.2,0
		c-0.5,0-0.9,0.4-0.9,0.9c0,0.5,0.4,0.9,0.9,0.9C21.6,1.7,22,1.3,22,0.9z M30.5,35.2c-0.6,0.1-1,0.8-0.9,1.4c0.1,0.6,0.8,1,1.4,0.9
		c0.6-0.1,1-0.8,0.9-1.4C31.7,35.5,31.1,35.1,30.5,35.2z M34.4,32c-0.8,0.1-1.3,0.9-1.2,1.6c0.1,0.8,0.9,1.3,1.6,1.2
		c0.8-0.1,1.3-0.8,1.2-1.6C35.9,32.4,35.2,31.8,34.4,32z M37.5,27.7c-1,0.1-1.7,1-1.6,2c0.1,1,1,1.7,2,1.6c1-0.1,1.7-1,1.6-2
		C39.3,28.3,38.5,27.5,37.5,27.7z M39.5,22.9c-1.1,0.1-1.9,1-1.9,2.1c0.1,1.1,1,1.9,2.1,1.9c1.1-0.1,1.9-1,1.9-2.1
		C41.5,23.6,40.6,22.8,39.5,22.9z M21.2,38.1c-0.5,0-0.9,0.4-0.9,0.9c0,0.5,0.4,0.9,0.9,0.9c0.5,0,0.9-0.4,0.9-0.9
		C22,38.5,21.6,38.1,21.2,38.1z M2.1,22c1.2,0,2.1-1,2.1-2.1c0-1.2-1-2.1-2.1-2.1C1,17.8,0,18.7,0,19.9C0,21.1,1,22,2.1,22z
		 M11.9,4.6c0.6-0.1,1-0.8,0.9-1.4c-0.1-0.6-0.8-1-1.4-0.9c-0.6,0.1-1,0.8-0.9,1.4C10.6,4.3,11.3,4.7,11.9,4.6z M7.9,7.8
		C8.7,7.7,9.2,7,9.1,6.2C9,5.4,8.3,4.9,7.5,5C6.7,5.1,6.2,5.9,6.3,6.7C6.4,7.4,7.2,8,7.9,7.8z M4.9,12.1c1-0.1,1.7-1,1.6-2
		c-0.1-1-1-1.7-2-1.6c-1,0.1-1.7,1-1.6,2C3,11.5,3.9,12.2,4.9,12.1z M2.9,16.9c1.1-0.1,1.9-1,1.9-2.1c-0.1-1.1-1-1.9-2.1-1.9
		c-1.1,0.1-1.9,1-1.9,2.1C0.9,16.1,1.8,17,2.9,16.9z M10.5,36.1c-0.1,0.6,0.3,1.3,0.9,1.4c0.6,0.1,1.3-0.3,1.4-0.9
		c0.1-0.6-0.3-1.3-0.9-1.4C11.3,35.1,10.6,35.5,10.5,36.1z M6.3,33.1c-0.1,0.8,0.4,1.5,1.2,1.6c0.8,0.1,1.5-0.4,1.6-1.2
		c0.1-0.8-0.4-1.5-1.2-1.6C7.2,31.8,6.4,32.4,6.3,33.1z M2.9,29.2c-0.1,1,0.6,1.8,1.6,2c1,0.1,1.8-0.6,2-1.6c0.1-1-0.6-1.8-1.6-2
		C3.9,27.5,3,28.3,2.9,29.2z M0.8,24.7c-0.1,1.1,0.8,2,1.9,2.1c1.1,0.1,2-0.8,2.1-1.9c0.1-1.1-0.8-2-1.9-2.1
		C1.8,22.8,0.9,23.6,0.8,24.7z M25.9,37.4c-0.5,0.1-0.8,0.6-0.7,1.1c0.1,0.5,0.6,0.8,1.1,0.6c0.5-0.1,0.8-0.6,0.7-1.1
		C26.9,37.6,26.4,37.3,25.9,37.4z M16.5,37.4c-0.5-0.1-1,0.2-1.1,0.7c-0.1,0.5,0.2,1,0.7,1.1c0.5,0.1,1-0.2,1.1-0.6
		C17.3,38,17,37.5,16.5,37.4z M27,1.7c0.1-0.5-0.2-1-0.7-1.1c-0.5-0.1-1,0.2-1.1,0.6c-0.1,0.5,0.2,1,0.7,1.1
		C26.4,2.5,26.9,2.2,27,1.7z M17.1,1.3C17,0.8,16.5,0.5,16,0.6c-0.5,0.1-0.8,0.6-0.7,1.1c0.1,0.5,0.6,0.8,1.1,0.7
		C17,2.3,17.3,1.8,17.1,1.3z M35.5,15.5c-0.8,0.4-1.8,0-2.2-0.9c-0.4-0.8,0-1.8,0.9-2.2c0.8-0.4,1.8,0,2.2,0.9
		C36.7,14.2,36.3,15.2,35.5,15.5z M23.8,4.9c-0.1-0.5-0.6-0.8-1.1-0.7c-0.5,0.1-0.8,0.6-0.7,1.1c0.1,0.5,0.6,0.8,1.1,0.7
		C23.6,5.9,23.9,5.4,23.8,4.9z M27.7,5.8c-0.2-0.6-0.8-1-1.4-0.8c-0.6,0.2-1,0.8-0.8,1.4c0.2,0.6,0.8,1,1.4,0.8
		C27.5,7,27.9,6.4,27.7,5.8z M31.4,7.6c-0.2-0.7-1-1.1-1.7-0.9c-0.7,0.2-1.1,1-0.9,1.7c0.2,0.7,1,1.1,1.7,0.9
		C31.2,9.1,31.6,8.3,31.4,7.6z M34.3,10.1c-0.3-0.8-1.2-1.2-2-0.9c-0.8,0.3-1.2,1.2-0.9,2c0.3,0.8,1.2,1.2,2,0.9
		C34.2,11.8,34.6,10.9,34.3,10.1z M15.9,6c-0.1-0.3-0.5-0.5-0.9-0.3c-0.3,0.1-0.5,0.5-0.3,0.9c0.1,0.3,0.5,0.5,0.9,0.3
		C15.9,6.7,16,6.3,15.9,6z M32.6,28c-0.4,0.3-0.5,0.9-0.2,1.3c0.3,0.4,0.9,0.5,1.3,0.2c0.4-0.3,0.5-0.9,0.2-1.3
		C33.6,27.8,33,27.7,32.6,28z M34.4,24.4c-0.5,0.3-0.7,1-0.3,1.5c0.3,0.5,1,0.7,1.5,0.3c0.5-0.3,0.7-1,0.3-1.5
		C35.6,24.3,34.9,24.1,34.4,24.4z M35.3,20.4c-0.7,0.4-0.9,1.2-0.5,1.9c0.4,0.7,1.2,0.9,1.9,0.5c0.7-0.4,0.9-1.2,0.5-1.9
		C36.8,20.3,35.9,20,35.3,20.4z M35.2,16.4c-0.8,0.4-1.1,1.3-0.7,2c0.4,0.8,1.3,1.1,2.1,0.7c0.8-0.4,1.1-1.3,0.7-2
		C36.9,16.3,36,16,35.2,16.4z M26.8,32.9c-0.3,0.1-0.5,0.5-0.3,0.9c0.1,0.3,0.5,0.5,0.9,0.3c0.3-0.1,0.5-0.5,0.4-0.9
		C27.5,32.9,27.1,32.8,26.8,32.9z M8.2,27.3C9,27,9.4,26,9,25.1c-0.4-0.8-1.3-1.2-2.2-0.9C6,24.6,5.6,25.6,6,26.4
		C6.4,27.3,7.3,27.7,8.2,27.3z M9.8,11.8c0.4-0.3,0.5-0.9,0.2-1.3c-0.3-0.4-0.9-0.5-1.3-0.2c-0.4,0.3-0.5,0.9-0.2,1.3
		C8.8,12,9.4,12.1,9.8,11.8z M8,15.3c0.5-0.3,0.7-1,0.3-1.5c-0.3-0.5-1-0.7-1.5-0.3c-0.5,0.3-0.7,1-0.3,1.5
		C6.7,15.5,7.4,15.7,8,15.3z M7.1,19.4C7.8,19,8,18.2,7.6,17.5c-0.4-0.7-1.2-0.9-1.9-0.5c-0.7,0.4-0.9,1.2-0.5,1.9
		C5.6,19.5,6.4,19.8,7.1,19.4z M7.1,23.4c0.8-0.4,1.1-1.3,0.7-2c-0.4-0.8-1.3-1.1-2.1-0.7c-0.8,0.4-1.1,1.3-0.7,2
		C5.5,23.5,6.4,23.8,7.1,23.4z M18.5,34.9c0.1,0.5,0.6,0.8,1.1,0.7c0.5-0.1,0.8-0.6,0.7-1.1c-0.1-0.5-0.6-0.8-1.1-0.7
		C18.8,33.9,18.4,34.4,18.5,34.9z M14.6,34c0.2,0.6,0.8,1,1.4,0.8c0.6-0.2,1-0.8,0.8-1.4c-0.2-0.6-0.8-1-1.4-0.8
		C14.8,32.8,14.5,33.4,14.6,34z M11,32.2c0.2,0.7,1,1.1,1.7,0.9c0.7-0.2,1.1-1,0.9-1.7c-0.2-0.7-1-1.1-1.7-0.9
		C11.2,30.7,10.7,31.5,11,32.2z M8.1,29.7c0.3,0.8,1.2,1.2,2,0.9c0.8-0.3,1.2-1.2,0.9-2c-0.3-0.8-1.2-1.2-2-0.9
		C8.2,28,7.8,28.9,8.1,29.7z M30,31c-0.3,0.2-0.4,0.7-0.1,1c0.2,0.3,0.7,0.4,1,0.1c0.3-0.2,0.4-0.7,0.1-1C30.7,30.8,30.3,30.8,30,31
		z M23.2,33.9c-0.4,0.1-0.7,0.4-0.6,0.8c0.1,0.4,0.4,0.7,0.8,0.6c0.4-0.1,0.7-0.4,0.6-0.8C24,34.1,23.6,33.8,23.2,33.9z M19.7,5.1
		c-0.1-0.4-0.4-0.7-0.8-0.6c-0.4,0.1-0.7,0.4-0.6,0.8c0.1,0.4,0.4,0.7,0.8,0.6C19.5,5.8,19.8,5.5,19.7,5.1z M12.5,7.8
		c-0.2-0.3-0.7-0.4-1-0.1c-0.3,0.2-0.4,0.7-0.1,1c0.2,0.3,0.7,0.4,1,0.1C12.7,8.5,12.8,8.1,12.5,7.8z"/>
</g>
</svg>
