<?xml version="1.0" encoding="utf-8"?>
<!-- Generator: Adobe Illustrator 18.0.0, SVG Export Plug-In . SVG Version: 6.00 Build 0)  -->
<!DOCTYPE svg PUBLIC "-//W3C//DTD SVG 1.1//EN" "http://www.w3.org/Graphics/SVG/1.1/DTD/svg11.dtd">
<svg version="1.1" id="Layer_1" xmlns="http://www.w3.org/2000/svg" xmlns:xlink="http://www.w3.org/1999/xlink" x="0px" y="0px"
	 width="180px" height="34.5px" viewBox="0 0 180 34.5" enable-background="new 0 0 180 34.5" xml:space="preserve">
<g opacity="0.6">
	<path fill-rule="evenodd" clip-rule="evenodd" fill="#959595" d="M54.3,27l4.8-15.5c0.1-0.5,0.3-0.6,0.9-0.7l1.3-0.2V8.7h-6.8
		l-0.4,1.9l2.3,0.3l-4,12.8L49,9.2h-3.8l-4.1,14.5l-4-12.9l2.3-0.3V8.7h-7.2l-0.4,1.9l1.5,0.3c0.4,0.1,0.6,0.2,0.8,0.6l5,15.5h3.9
		L47,12.8L50.5,27L54.3,27L54.3,27z"/>
	<path fill-rule="evenodd" clip-rule="evenodd" fill="#959595" d="M70.1,27.4c6.1,0,8.8-3.9,8.8-9.9c0-5.3-2.4-9.2-8.4-9.2
		c-6.1,0-8.9,3.8-8.9,9.4C61.5,23.4,63.9,27.4,70.1,27.4L70.1,27.4z M70.2,24.8c-3.5,0-5.3-2.3-5.3-7c0-4.7,2-6.8,5.5-6.8
		c3.4,0,5.1,2.1,5.1,6.7C75.5,22.6,73.6,24.8,70.2,24.8L70.2,24.8z"/>
	<path fill-rule="evenodd" clip-rule="evenodd" fill="#959595" d="M89.8,27v-1.9l-3.4-0.3c-0.5,0-0.6-0.1-0.6-0.7V13.3
		c0.8-0.8,2.7-2.3,4.3-2.3c0.3,0,0.4,0.1,0.4,0.4l0.4,2.5l2.5,0.1V8.6c-0.6-0.2-1.7-0.3-2.5-0.3c-2.5,0-4.3,1.5-5.5,2.9l-0.1,0
		l-0.3-2.4h-4.6l-0.3,1.9l2,0.7c0.4,0.1,0.5,0.4,0.5,0.8v12.1c0,0.5-0.1,0.6-0.6,0.7l-1.8,0.2V27H89.8L89.8,27z"/>
	<path fill-rule="evenodd" clip-rule="evenodd" fill="#959595" d="M102.5,27v-1.9l-2.1-0.2c-0.5-0.1-0.6-0.1-0.6-0.7V0h-5.5L94,1.9
		l2.1,0.7c0.4,0.1,0.5,0.4,0.5,0.8v20.8c0,0.5-0.1,0.7-0.6,0.7l-2.2,0.2V27H102.5L102.5,27z"/>
	<path fill-rule="evenodd" clip-rule="evenodd" fill="#959595" d="M122,27v-1.9l-1.8-0.2c-0.5-0.1-0.6-0.1-0.6-0.7V0h-5.4l-0.3,1.9
		l2.1,0.7c0.3,0.1,0.5,0.4,0.5,0.7V10c-1.4-1-3.3-1.7-5.5-1.7c-4.3,0-7.4,2.9-7.4,9.9c0,6.5,2.7,9.2,6.7,9.2c2.8,0,4.6-1.2,6.3-2.8
		l0.1,0l0.3,2.4H122L122,27z M116.5,21.7c-1.6,1.6-3.3,3-5.4,3c-2.5,0-4.2-1.6-4.2-6.6c0-4.2,1.3-7.2,4.7-7.2c1.9,0,3.8,1,4.9,1.9
		V21.7L116.5,21.7z"/>
	<path fill-rule="evenodd" clip-rule="evenodd" fill="#4F4F4F" d="M132.6,34.5v-1.9l-3.4-0.3c-0.5,0-0.6-0.1-0.6-0.7v-6.2
		c1.7,1.5,3.4,2,5.4,2c5.6,0,7.4-4.9,7.4-10.3c0-6.3-2.7-8.8-6.7-8.8c-2.4,0-4.4,1-6.4,2.4l-0.1,0l-0.3-2h-4.7l-0.3,1.9l2,0.7
		c0.4,0.1,0.5,0.4,0.5,0.7v19.7c0,0.5-0.1,0.6-0.6,0.7l-1.5,0.2v1.9H132.6L132.6,34.5z M128.7,13.2c1-0.8,3.2-2.2,5.5-2.2
		c2.2,0,4.1,1.5,4.1,6.4c0,4.5-1.3,7.3-4.7,7.3c-1.9,0-3.7-1.1-4.9-2.3V13.2L128.7,13.2z"/>
	<path fill-rule="evenodd" clip-rule="evenodd" fill="#4F4F4F" d="M160.2,27v-1.9l-1.8-0.2c-0.5-0.1-0.6-0.1-0.6-0.7v-9.5
		c0-5-1.7-6.4-6.7-6.4c-2.8,0-6.9,0.5-6.9,4.9l3.1,0.3c0-2.7,1.6-2.8,3.8-2.8c3.1,0,3.6,1.3,3.6,3.9v1.9l-4.8,0.4
		c-4.3,0.4-6.5,2-6.5,5.6c0,1.8,0.6,4.8,5,4.8c2.7,0,4.7-1.2,6.4-2.7l0.1,0l0.3,2.3H160.2L160.2,27z M154.7,22.1
		c-1.1,1-3.3,2.7-5.4,2.7c-1.7,0-2.5-0.8-2.5-2.7c0-1.8,0.9-2.7,3.9-3l4-0.4V22.1L154.7,22.1z"/>
	<path fill-rule="evenodd" clip-rule="evenodd" fill="#4F4F4F" d="M172.7,34.5v-1.8l-3.5-0.3l8.7-21c0.2-0.4,0.5-0.5,0.9-0.6
		l1.2-0.2V8.7h-7.1l-0.4,1.9l2.4,0.3l-4.9,12l-4.7-12l2.3-0.3V8.7h-7.4l-0.4,1.9l1.5,0.4c0.4,0.1,0.6,0.2,0.7,0.6l6.4,15.3l-2.1,4.8
		c-0.2,0.5-0.4,0.7-0.8,0.8l-2.6,0.3v1.9H172.7L172.7,34.5z"/>
	<path fill-rule="evenodd" clip-rule="evenodd" fill="#4F4F4F" d="M16.9,4.9c2,0.4,4.2,1.3,6.1,3.2c0.6,0.6,1.2,1.4,1.4,2.1
		c0.1,0.3,0.1,0.7,0.3,0.9c0.3,0.5,0.8,0.8,1.2,1.3c0.5,0.5,0.8,1.1,1.1,1.7c0.1,0.2,0.2,0.5,0.3,0.7c0.2,0.3,0.4,1.7,0.4,2.3
		c0,1.1-0.4,2.5-0.9,3.5c0,0,0,0,0,0.2v0.9c-0.4,5.9-7.5,10.1-11.9,10.1c-0.5,0-2.1-0.1-2.1-1.1c0-0.1,0.1-0.5,0.2-0.7
		c-0.8,0.1-2.5,0.4-3.4,0.4c-0.7,0-4.1,0-4.1-1.8c0-1.7,3-1.8,3.6-1.8c1.6,0,3.3,0.5,4.9,1.2c-0.3,0.1-0.8,0.2-0.8,0.2
		c-0.1,0-0.3-0.1-0.4-0.2c-1.1-0.4-2.3-0.6-3.4-0.6c-0.6,0-0.8,0-1.5,0.2c-0.1,0-1.4,0.3-1.4,0.9c0,0.4,1.1,0.6,1.3,0.6
		c0.5,0.1,1.4,0.2,1.5,0.2c6.8,0,17.4-5.6,17.4-12.3c0-1.3-0.6-3-1.7-4.2c-0.1,0.5-0.2,1-0.4,1.6c-0.1,0.3-0.4,0.9-0.4,1
		c0,0,1.9,2.1,1.9,2.5c0,0.3-0.4,1.4-0.4,1.5c-0.4-1-0.9-2.1-2-3.1c-0.2,0.2-0.3,0.4-0.5,0.6c-0.2,0.3-0.4,0.5-0.7,0.8
		c-0.5,0.6-1.6,1.6-1.6,1.7c0,0,1.4,1.4,1.8,3c0.1,0.2,0.2,0.7,0.2,0.8c0,0.2-0.8,0.7-0.8,0.8c0-1.3-0.6-2.7-2-3.9
		c-1.6,1.2-3.4,2.2-5,3c1,0.8,1.6,2.1,1.6,2.9c0,0.4-0.2,1.3-0.4,1.4c-0.2,0.2-0.5,0.2-0.8,0.3c0.3-0.4,0.6-1.3,0.6-1.6
		c0-0.7-0.5-1.7-1.2-2.3c-0.2-0.1-0.5-0.4-0.5-0.4c-0.1,0-1.1,0.4-1.6,0.6c-0.6,0.2-1.3,0.4-1.9,0.6c-2,0.6-3.8,0.9-5.7,0.9
		c-0.7,0-3.9-0.1-3.9-1.8c0-2.5,5.9-2.8,6.7-2.8c1.8,0,3.4,0.2,5.2,1c-0.3,0.1-1,0.4-1.1,0.4c-0.1,0-2.1-0.6-3.9-0.6
		c-0.8,0-1.8,0.1-2.6,0.2c-0.6,0.1-1.2,0.3-1.8,0.5c-0.2,0-1.6,0.6-1.6,1.2c0,0.1,0.2,0.2,0.4,0.3c0.8,0.4,1.5,0.3,2.2,0.3
		c7.2,0,18.3-5.7,19-11.5v-0.9c-0.3-3.8-6.3-6.3-9.2-6.3c-0.1,0-0.6,0-0.9,0.1c0.2,0.1,0.4,0.1,0.6,0.2c0.2,0,0.3,0.1,0.5,0.2
		c0.3,0.1,0.8,0.4,1.2,0.7c0.3,0.2,0.4,0.6,0.7,0.8c0.2,0.2,0.6,0.2,0.9,0.3c1,0.3,2.2,0.8,3.3,1.2c0.4,0.2,1,0.5,1.4,0.7
		c0.2,0.1,0.3,0.3,0.4,0.5c0.2,0.3,0.4,0.8,0.5,1.2c-2-1.5-4-2.2-6-2.9H17c0.1,1-0.3,2.1-1.1,3.1c2.2,0.6,4.5,1.4,6.7,3
		c-0.1,0.3-0.3,0.6-0.5,0.8c-1-0.7-2-1.2-2.9-1.7c-0.2-0.1-3.4-1.3-3.9-1.3c-0.1,0-0.9,0.8-1.3,1.1c-1,0.8-2.1,1.5-3.1,2.1
		c2.8,0.4,5.6,1,8.4,2.8c-0.2,0.2-0.6,0.6-0.7,0.6c-0.1,0-0.8-0.5-1.2-0.7c-2-0.9-5.7-1.9-7.9-1.9c-0.2,0-2.4,0.9-2.9,1.1
		c-1.6,0.5-3.3,1-4.9,1c-0.5,0-1.6,0-1.6-0.9c0-1.7,6.1-2.1,6.5-2.1h1.3c-1,0.4-2.1,0.8-3,1c-0.9,0.2-1.8,0.4-2.6,0.6
		c-0.2,0-0.3,0.2-0.5,0.2c0,0,0,0,0.1,0c0.1,0,1.3-0.2,2-0.3c3.5-0.8,7.2-2.2,10.7-5.4c0.8-0.8,1.5-1.8,1.6-2.7V8.1
		C16,7.3,14.8,6.4,14,6.2c-0.5-0.2-1.5-0.3-1.6-0.3c-0.2,0-0.5,0.1-0.7,0.4c1.2,0.3,2.6,0,3.7,1.5c0,0,0,0,0,0.1
		c-0.3-0.1-4.1-1-4.7-1c-0.2,0-2,1.3-2.4,1.5c-1.1,0.7-2.3,1.3-3.5,1.9l3.9,0c1.7,0.1,3.7,0.3,5.4,0.7c-0.1,0-0.8,0.8-0.9,0.8
		c-0.1,0-1.3-0.2-1.9-0.3c-1.1-0.2-2.3-0.2-3.4-0.3l-5,0.1c-0.3,0-0.8-0.1-0.8-0.5c0-0.3,0.4-0.6,0.7-0.7C3.3,10,3.5,9.9,3.7,9.8
		c2.4-1,5-2.4,7.5-4c-0.1,0-0.2,0-0.3,0c-0.1,0-0.4,0-0.6,0.1c0,0,0.1,0,0.1,0c-0.3,0.2-0.9,0.6-1,0.6C9.1,6.5,8.7,6.2,8.7,6
		c0-0.7,1.6-0.7,1.7-0.7c1.6,0,1.7,0,1.8,0c0.1,0,0.7-0.3,1.2-0.4c0.6-0.2,0.9-0.2,1.5-0.2C15.5,4.7,16.2,4.8,16.9,4.9L16.9,4.9z
		 M14.6,31c-0.1,0-1.1,0-1.1-0.3c0-0.2,0.3-0.8,0.6-0.9c0.6-0.2,1.8-0.5,1.9-0.5c0.1,0,1.1,0.1,1.2,0.1c0.1,0,0.8,0,1.2-0.2
		c0.5-0.1,1.1-0.3,1.7-0.7c0.6-0.3,1.4-1.1,1.8-1.7c0.2-0.3,0.3-0.8,0.6-1.1c0.3-0.5,1-0.8,1.5-1.3c0.5-0.5,1.1-1.1,1.6-1.7
		C24.6,27.5,18.3,31,14.6,31L14.6,31z M17.3,28.7c1.1-0.5,2.3-1.1,3.5-1.8C19.7,28.1,18.5,28.5,17.3,28.7L17.3,28.7z"/>
</g>
</svg>
