<?xml version="1.0" encoding="utf-8"?>
<!-- Generator: Adobe Illustrator 18.0.0, SVG Export Plug-In . SVG Version: 6.00 Build 0)  -->
<!DOCTYPE svg PUBLIC "-//W3C//DTD SVG 1.1//EN" "http://www.w3.org/Graphics/SVG/1.1/DTD/svg11.dtd">
<svg version="1.1" id="Layer_1" xmlns="http://www.w3.org/2000/svg" xmlns:xlink="http://www.w3.org/1999/xlink" x="0px" y="0px"
	 width="106.8px" height="71.3px" viewBox="0 0 106.8 71.3" enable-background="new 0 0 106.8 71.3" xml:space="preserve">
<g opacity="0.3">
	<path fill-rule="evenodd" clip-rule="evenodd" fill="#4B4B4B" d="M54.1,0C43.5,0,34.8,8.6,34.8,19.3c0,4.4,1.5,8.4,3.9,11.7
		l16-21.1l-1.7,0l-1.7,0c-1.8,0-3.5,0.1-4.8,0.4c-0.8,0.1-1.4,0.4-2,0.8c-0.6,0.4-1.4,1.4-2,2.3c-0.1,0.1-0.1,0.3-0.3,0.5l-0.9-0.2
		L43,7.7h20.1L47.2,29c1-0.1,1.5-0.1,2.3-0.1c0.6,0,1.6,0,2.9,0.1l2.8,0.2c1,0.1,1.9,0.1,2.5,0.1c1.5,0,2.4-0.1,3.4-0.4
		c0.7-0.2,1.4-0.6,2.1-1c1.1-0.8,2.2-2,2.9-3.3c0.1-0.1,0.2-0.3,0.3-0.6l0.8,0.2c-0.3,1.1-0.4,1.5-0.8,2.4c-0.9,1.9-1.8,3.2-3.2,4.2
		c-1.4,1-2.9,1.5-4.7,1.5l-0.3,0c-1.3,0-2.4-0.1-5.5-0.6c-3.2-0.5-4.9-0.7-6.5-0.7c-1.1,0-2.1,0.1-3.1,0.2c-1.4,0.2-1.9,0.4-3.2,1
		c3.5,3.8,8.6,6.2,14.2,6.2c10.6,0,19.3-8.6,19.3-19.3C73.4,8.6,64.8,0,54.1,0L54.1,0z"/>
	<path fill-rule="evenodd" clip-rule="evenodd" d="M17.7,51.9H3l-1.8,4c0.6-0.3,0.8-0.4,1.4-0.6c0.8-0.3,1.8-0.6,2.7-0.8
		c0.8-0.1,1.5-0.2,2.6-0.2c0.5,0,1,0,1.5,0h2.2L0,70.7h16.2l1.9-4.3c-0.7,0.4-0.9,0.5-1.4,0.7c-0.9,0.4-2,0.7-3,0.9
		c-0.8,0.1-1.8,0.2-3,0.3c-0.4,0-0.9,0-1.5,0H6.4L17.7,51.9L17.7,51.9z"/>
	<path fill-rule="evenodd" clip-rule="evenodd" d="M66.5,70.7c-0.3-0.3-0.4-0.4-0.6-0.7c-0.1-0.2-0.2-0.4-0.3-0.6
		c-0.2-0.4-0.3-1.1-0.3-1.7v-1V56.5l0-1.1c0-1.3,0-1.6,0.2-2.1c0.1-0.2,0.2-0.4,0.3-0.6c0.2-0.3,0.3-0.5,0.7-0.8h-6
		c0.4,0.3,0.5,0.5,0.7,0.7c0.1,0.2,0.2,0.4,0.3,0.6c0.1,0.5,0.2,0.9,0.2,2c0,0.6,0,0.9,0,1.1v10.3v0.9c0,0.7-0.1,1.4-0.3,1.8
		c-0.1,0.2-0.2,0.4-0.3,0.6c-0.1,0.2-0.2,0.3-0.6,0.7H66.5L66.5,70.7z"/>
	<path fill-rule="evenodd" clip-rule="evenodd" d="M85.4,52.1c-0.5-0.1-0.6-0.2-1.1-0.3c-1.1-0.2-2.1-0.3-3.3-0.3
		c-2,0-3.8,0.3-5.4,1c-0.9,0.4-1.8,0.9-2.6,1.5c-2.3,1.9-3.6,4.6-3.6,7.7c0,3,1.2,5.6,3.4,7.4c1.8,1.4,4.2,2.2,7,2.2
		c1.8,0,3.4-0.3,5.3-0.8c0.1,0,0.2-0.1,0.3-0.1v-3.4c-0.4,0.3-0.6,0.4-0.9,0.6c-0.4,0.2-0.7,0.4-1.2,0.6c-1.1,0.5-2.2,0.7-3.3,0.7
		c-1.9,0-3.6-0.7-4.8-2c-1.2-1.3-1.9-3.1-1.9-5.2c0-2,0.6-3.8,1.7-5.1c0.5-0.6,1-1,1.7-1.4c1.1-0.6,2.3-0.9,3.6-0.9
		c1.1,0,2.3,0.2,3.4,0.7c0.7,0.3,0.9,0.4,1.5,0.8V52.1L85.4,52.1z"/>
	<path fill-rule="evenodd" clip-rule="evenodd" d="M101.8,62.2v4.6c0,1,0,1.4-0.1,1.9c0,0.3-0.1,0.6-0.2,0.8c-0.1,0.4-0.4,0.7-0.7,1
		c-0.1,0.1-0.1,0.1-0.3,0.2h6c-0.3-0.2-0.3-0.4-0.5-0.6c-0.1-0.2-0.3-0.4-0.3-0.6c-0.2-0.4-0.2-0.8-0.2-1.7c0-0.6,0-0.9,0-1l0-10.3
		v-1.1c0-0.8,0.1-1.5,0.2-2c0.1-0.2,0.2-0.5,0.3-0.7c0.2-0.3,0.3-0.5,0.7-0.8h-6.1c0.4,0.3,0.5,0.4,0.7,0.8c0.1,0.2,0.2,0.4,0.3,0.7
		c0.1,0.4,0.2,1,0.2,2v1.2v3.4h-8.4v-3.4c0-1,0-1.7,0.1-2.2c0-0.3,0.1-0.6,0.1-0.8c0.1-0.4,0.5-1,0.8-1.3c0,0,0.1-0.1,0.2-0.2h-6
		c0.4,0.4,0.5,0.5,0.6,0.7c0.1,0.2,0.2,0.4,0.3,0.6c0.2,0.5,0.2,0.7,0.2,2l0,1.2v10.3c0,1,0,1.5-0.1,2c0,0.2-0.1,0.5-0.2,0.7
		c-0.2,0.4-0.4,0.7-0.7,1.1c0,0-0.1,0.1-0.2,0.2h5.9c-0.3-0.3-0.3-0.4-0.5-0.6c-0.1-0.2-0.2-0.4-0.3-0.6c-0.2-0.5-0.3-0.8-0.3-1.6
		c0-0.4,0-0.8,0-1.1v-4.5H101.8L101.8,62.2z"/>
	<path fill-rule="evenodd" clip-rule="evenodd" d="M20.3,51.9c0.4,0.3,0.5,0.4,0.7,0.8c0.1,0.2,0.2,0.4,0.3,0.7
		c0.1,0.3,0.1,0.6,0.1,0.9c0,0.2,0,0.6,0,1.2l0,1.1v5.4c0,1.9,0,2.5,0.1,3.3c0.1,1.3,0.5,2.5,1.3,3.4c0.8,1,1.9,1.7,3.2,2.2
		c1,0.4,2.1,0.5,3.4,0.5c1.4,0,2.8-0.2,3.8-0.6c1.1-0.4,2.1-1.1,2.8-1.9c0.9-1,1.4-2.1,1.5-3.6c0.1-0.9,0.1-1.7,0.1-3.4v-5.4l0-1.1
		l0-0.1c0-0.9,0.1-1.5,0.2-1.9c0.2-0.7,0.5-1.1,0.8-1.3c0.1-0.1,0.2-0.1,0.2-0.2h-5.6c0.2,0.3,0.3,0.5,0.4,0.8
		c0.1,0.2,0.1,0.5,0.2,0.7c0.1,0.7,0.1,1.5,0.1,3.1v5.8c0,1.6,0,2.4-0.2,3.2c-0.1,0.5-0.2,1-0.5,1.4c-0.5,0.8-1.3,1.4-2.3,1.6
		c-0.4,0.1-0.9,0.1-1.3,0.1c-1,0-1.8-0.2-2.5-0.6c-0.5-0.3-0.9-0.6-1.1-1c-0.5-0.8-0.7-1.5-0.7-3.4l0-2.4v-4.8c0-1.6,0-2.5,0.1-3.1
		c0.1-0.5,0.2-0.9,0.5-1.4c0,0,0.1-0.1,0.1-0.2H20.3L20.3,51.9z"/>
	<path fill-rule="evenodd" clip-rule="evenodd" d="M46.7,66.8c0,0.3,0,0.7,0,0.9c0,0.9,0.1,1.3,0.2,1.7c0.1,0.2,0.2,0.4,0.3,0.6
		c0.2,0.2,0.2,0.3,0.5,0.6h-6c0.3-0.3,0.5-0.4,0.6-0.7c0.1-0.2,0.2-0.4,0.3-0.6C43,69,43,68.5,43,67.6v-0.8V56.4v-1.1
		c0-1-0.1-1.6-0.2-2c-0.1-0.2-0.2-0.5-0.3-0.7c-0.2-0.3-0.3-0.4-0.6-0.7h4.8c0.6,0,1.2,0,1.7,0c1.5,0,2.4,0.1,3.2,0.3
		c1.2,0.3,2.3,0.9,3,1.7c0.8,0.9,1.3,1.9,1.3,3.1c0,0.5-0.1,1-0.2,1.4c-0.3,0.8-0.7,1.5-1.5,2.1c-0.7,0.5-1.4,1-2.3,1.3
		c-0.3,0.1-0.5,0.2-0.8,0.3l2.9,3.4c0.4,0.4,0.8,0.9,1.4,1.5c0.9,1,1.5,1.6,2.1,2.2c0.3,0.3,0.6,0.5,0.8,0.7
		c0.2,0.2,0.4,0.3,0.7,0.6h-1.5h-0.9c-0.3,0-0.7,0-1,0c-0.8,0-1.3-0.1-1.9-0.4c-0.6-0.3-1.3-0.8-1.9-1.5c-0.2-0.2-0.5-0.6-0.9-1
		c-0.4-0.4-0.6-0.7-0.8-0.9l-3.5-4.2V66.8L46.7,66.8L46.7,66.8z M47,61c0.3,0,0.6,0,1-0.1c1-0.1,1.7-0.4,2.4-0.8
		c0.3-0.2,0.6-0.4,0.9-0.7c0.5-0.5,0.7-1.3,0.7-2.1c0-1-0.3-1.8-1-2.3c-0.4-0.3-0.8-0.5-1.3-0.7c-0.7-0.2-1.6-0.3-2.5-0.3
		c-0.2,0-0.3,0-0.5,0V61C46.9,61,47,61,47,61L47,61z"/>
</g>
</svg>
